0
SECTION
2
HEADER
9
$INSUNITS
70
4
9
$ACADVER
1
AC1014
9
$HANDSEED
5
FFFF
0
ENDSEC
0
SECTION
2
TABLES
0
TABLE
2
VPORT
5
8
100
AcDbSymbolTable
0
ENDTAB
0
TABLE
2
LTYPE
5
5
100
AcDbSymbolTable
0
LTYPE
5
14
100
AcDbSymbolTableRecord
100
AcDbLinetypeTableRecord
2
BYBLOCK
70
0
0
LTYPE
5
15
100
AcDbSymbolTableRecord
100
AcDbLinetypeTableRecord
2
BYLAYER
70
0
0
LTYPE
5
16
100
AcDbSymbolTableRecord
100
AcDbLinetypeTableRecord
2
DASHED
70
0
3
Dashed __ __ __ __ __ __ __ __ __ __ __ __ __ _
72
65
73
2
40
0.75
49
0.5
74
0
49
-0.25
74
0
0
ENDTAB
0
TABLE
2
LAYER
5
2
100
AcDbSymbolTable
70
2
0
LAYER
5
50
100
AcDbSymbolTableRecord
100
AcDbLayerTableRecord
2
0
70
0
62
7
6
CONTINUOUS
0
ENDTAB
0
TABLE
2
STYLE
5
3
100
AcDbSymbolTable
70
1
0
STYLE
5
11
100
AcDbSymbolTableRecord
100
AcDbTextStyleTableRecord
2
STANDARD
70
0
0
ENDTAB
0
TABLE
2
VIEW
5
6
100
AcDbSymbolTable
70
0
0
ENDTAB
0
TABLE
2
UCS
5
7
100
AcDbSymbolTable
70
0
0
ENDTAB
0
TABLE
2
APPID
5
9
100
AcDbSymbolTable
70
2
0
APPID
5
12
100
AcDbSymbolTableRecord
100
AcDbRegAppTableRecord
2
ACAD
70
0
0
ENDTAB
0
TABLE
2
DIMSTYLE
5
A
100
AcDbSymbolTable
70
1
0
ENDTAB
0
TABLE
2
BLOCK_RECORD
5
1
100
AcDbSymbolTable
70
1
0
BLOCK_RECORD
5
1F
100
AcDbSymbolTableRecord
100
AcDbBlockTableRecord
2
*MODEL_SPACE
0
BLOCK_RECORD
5
1B
100
AcDbSymbolTableRecord
100
AcDbBlockTableRecord
2
*PAPER_SPACE
0
ENDTAB
0
ENDSEC
0
SECTION
2
BLOCKS
0
BLOCK
5
20
100
AcDbEntity
100
AcDbBlockBegin
2
*MODEL_SPACE
0
ENDBLK
5
21
100
AcDbEntity
100
AcDbBlockEnd
0
BLOCK
5
1C
100
AcDbEntity
100
AcDbBlockBegin
2
*PAPER_SPACE
0
ENDBLK
5
1D
100
AcDbEntity
100
AcDbBlockEnd
0
ENDSEC
0
SECTION
2
ENTITIES
0
SPLINE
5
100
100
AcDbEntity
8
0
100
AcDbSpline
70
0
71
3
72
8
73
4
74
0
42
0.000000001
43
0.0000000001
44
0.0000000001
40
-0.16898973605002601
40
-0.16898973605002601
40
-0.16898973605002601
40
-0.16898973605002601
40
0
40
0
40
0
40
0
10
-13949.349542202801
20
-4470.48325973385
30
0
10
-13948.828026093999
20
-4469.9871829344002
30
0
10
-13947.764734696602
20
-4469.1357799155803
30
0
10
-13947.487080302701
20
-4468.9919437086601
30
0
0
SPLINE
5
101
100
AcDbEntity
8
0
100
AcDbSpline
70
0
71
3
72
8
73
4
74
0
42
0.000000001
43
0.0000000001
44
0.0000000001
40
-0.27940080559335601
40
-0.27940080559335601
40
-0.27940080559335601
40
-0.27940080559335601
40
0
40
0
40
0
40
0
10
-13950.6411549267
20
-4471.4506064810903
30
0
10
-13950.193294126502
20
-4471.2515274237403
30
0
10
-13950.023591496001
20
-4471.1244294418411
30
0
10
-13949.349542202801
20
-4470.48325973385
30
0
0
LINE
5
102
100
AcDbEntity
8
0
100
AcDbLine
10
-13950.6411549267
20
-4471.4506064810903
30
0
11
-13950.882091182702
21
-4471.5577040158396
31
0
0
LINE
5
103
100
AcDbEntity
8
0
100
AcDbLine
10
-13950.882091182702
20
-4471.5577040158396
30
0
11
-13954.627554798701
21
-4471.5854527539605
31
0
0
SPLINE
5
104
100
AcDbEntity
8
0
100
AcDbSpline
70
0
71
3
72
8
73
4
74
0
42
0.000000001
43
0.0000000001
44
0.0000000001
40
-1.9334643163296701
40
-1.9334643163296701
40
-1.9334643163296701
40
-1.9334643163296701
40
0
40
0
40
0
40
0
10
-13979.706828718699
20
-4471.6428065345299
30
0
10
-13967.9732330515
20
-4471.6265241718702
30
0
10
-13956.687559787501
20
-4471.6007152443999
30
0
10
-13954.627554798701
20
-4471.5854527539605
30
0
0
SPLINE
5
105
100
AcDbEntity
8
0
100
AcDbSpline
70
0
71
3
72
8
73
4
74
0
42
0.000000001
43
0.0000000001
44
0.0000000001
40
-2.05919965643514
40
-2.05919965643514
40
-2.05919965643514
40
-2.05919965643514
40
0
40
0
40
0
40
0
10
-14001.128252206699
20
-4471.6905872057996
30
0
10
-14001.080064955502
20
-4471.6805897201302
30
0
10
-13991.440424385901
20
-4471.6590888971996
30
0
10
-13979.706828718699
20
-4471.6428065345299
30
0
0
SPLINE
5
106
100
AcDbEntity
8
0
100
AcDbSpline
70
0
71
3
72
10
73
6
74
0
42
0.000000001
43
0.0000000001
44
0.0000000001
40
0
40
0
40
0
40
0
40
0.014236316061934292
40
0.014236316061934292
40
0.028266862398396375
40
0.028266862398396375
40
0.028266862398396375
40
0.028266862398396375
10
-14001.347285166701
20
-4471.8245231229303
30
0
10
-14001.311675238021
20
-4471.7931567107516
30
0
10
-14001.269009530386
20
-4471.7620556760003
30
0
10
-14001.189028425068
20
-4471.7131481707784
30
0
10
-14001.152343953843
20
-4471.6955835056333
30
0
10
-14001.128252206699
20
-4471.6905872057996
30
0
0
SPLINE
5
107
100
AcDbEntity
8
0
100
AcDbSpline
70
0
71
3
72
10
73
6
74
0
42
0.000000001
43
0.0000000001
44
0.0000000001
40
0
40
0
40
0
40
0
40
0.016796344400597168
40
0.016796344400597168
40
0.033149093409620752
40
0.033149093409620752
40
0.033149093409620752
40
0.033149093409620752
10
-14001.634127993202
20
-4472.0396504514601
30
0
10
-14001.586956603398
20
-4472.0094926104339
30
0
10
-14001.532045064734
20
-4471.970184492704
30
0
10
-14001.440689733703
20
-4471.9016695190749
30
0
10
-14001.387918335739
20
-4471.8603149422242
30
0
10
-14001.347285166701
20
-4471.8245231229303
30
0
0
SPLINE
5
108
100
AcDbEntity
8
0
100
AcDbSpline
70
0
71
3
72
10
73
6
74
0
42
0.000000001
43
0.0000000001
44
0.0000000001
40
0
40
0
40
0
40
0
40
0.049478244978061345
40
0.049478244978061345
40
0.063408199518283914
40
0.063408199518283914
40
0.063408199518283914
40
0.063408199518283914
10
-14002.2637751986
20
-4472.5711695217597
30
0
10
-14002.141872152657
20
-4472.4600807188863
30
0
10
-14002.006268168641
20
-4472.3406620535579
30
0
10
-14001.848561387906
20
-4472.2075332978366
30
0
10
-14001.696396485317
20
-4472.0794608824526
30
0
10
-14001.634127993202
20
-4472.0396504514601
30
0
0
SPLINE
5
109
100
AcDbEntity
8
0
100
AcDbSpline
70
0
71
3
72
10
73
6
74
0
42
0.000000001
43
0.0000000001
44
0.0000000001
40
0
40
0
40
0
40
0
40
0.039301128476932352
40
0.039301128476932352
40
0.079088936258272971
40
0.079088936258272971
40
0.079088936258272971
40
0.079088936258272971
10
-14003.097800689902
20
-4473.2661611038393
30
0
10
-14002.992016746743
20
-4473.18888405084
30
0
10
-14002.846607221845
20
-4473.0720964922739
30
0
10
-14002.560407580924
20
-4472.8336069712959
30
0
10
-14002.400239716464
20
-4472.6955266527584
30
0
10
-14002.263775198608
20
-4472.5711695217633
30
0
0
SPLINE
5
110
100
AcDbEntity
8
0
100
AcDbSpline
70
0
71
3
72
8
73
4
74
0
42
0.000000001
43
0.0000000001
44
0.0000000001
40
-0.055382803546209503
40
-0.055382803546209503
40
-0.055382803546209503
40
-0.055382803546209503
40
0
40
0
40
0
40
0
10
-14003.585221580601
20
-4473.6307414657604
30
0
10
-14003.515029730603
20
-4473.5747840203003
30
0
10
-14003.295691493402
20
-4473.4107228574412
30
0
10
-14003.097800689902
20
-4473.2661611038402
30
0
0
SPLINE
5
111
100
AcDbEntity
8
0
100
AcDbSpline
70
0
71
3
72
8
73
4
74
0
42
0.000000001
43
0.0000000001
44
0.0000000001
40
-0.074764586767712998
40
-0.074764586767712998
40
-0.074764586767712998
40
-0.074764586767712998
40
0
40
0
40
0
40
0
10
-14004.545166382703
20
-4474.2217567327698
30
0
10
-14004.347906667899
20
-4474.1355097668602
30
0
10
-14003.7791369359
20
-4473.7853321910097
30
0
10
-14003.585221580601
20
-4473.6307414657604
30
0
0
SPLINE
5
112
100
AcDbEntity
8
0
100
AcDbSpline
70
0
71
3
72
8
73
4
74
0
42
0.000000001
43
0.0000000001
44
0.0000000001
40
-0.149691033599472
40
-0.149691033599472
40
-0.149691033599472
40
-0.149691033599472
40
0
40
0
40
0
40
0
10
-14006.9764322387
20
-4474.4725932785605
30
0
10
-14005.134421172301
20
-4474.4349278231803
30
0
10
-14005.001316211501
20
-4474.4211958255401
30
0
10
-14004.545166382703
20
-4474.2217567327698
30
0
0
SPLINE
5
113
100
AcDbEntity
8
0
100
AcDbSpline
70
0
71
3
72
8
73
4
74
0
42
0.000000001
43
0.0000000001
44
0.0000000001
40
-0.25736745893614099
40
-0.25736745893614099
40
-0.25736745893614099
40
-0.25736745893614099
40
0
40
0
40
0
40
0
10
-14009.676634976702
20
-4474.5827038854604
30
0
10
-14009.4633543699
20
-4474.5399335931597
30
0
10
-14008.652383466502
20
-4474.5068637230597
30
0
10
-14006.9764322387
20
-4474.4725932785605
30
0
0
SPLINE
5
114
100
AcDbEntity
8
0
100
AcDbSpline
70
0
71
3
72
8
73
4
74
0
42
0.000000001
43
0.0000000001
44
0.0000000001
40
-0.066308327792996405
40
-0.066308327792996405
40
-0.066308327792996405
40
-0.066308327792996405
40
0
40
0
40
0
40
0
10
-14010.765702446701
20
-4475.4397319444897
30
0
10
-14010.1205805628
20
-4474.8790924421601
30
0
10
-14009.766961431502
20
-4474.6008165423
30
0
10
-14009.676634976702
20
-4474.5827038854604
30
0
0
SPLINE
5
115
100
AcDbEntity
8
0
100
AcDbSpline
70
0
71
3
72
8
73
4
74
0
42
0.000000001
43
0.0000000001
44
0.0000000001
40
-0.14552883154101301
40
-0.14552883154101301
40
-0.14552883154101301
40
-0.14552883154101301
40
0
40
0
40
0
40
0
10
-14012.018213680401
20
-4476.1153336337802
30
0
10
-14011.6053091717
20
-4476.0073079468602
30
0
10
-14011.1136349347
20
-4475.7421001009898
30
0
10
-14010.765702446701
20
-4475.4397319444897
30
0
0
SPLINE
5
116
100
AcDbEntity
8
0
100
AcDbSpline
70
0
71
3
72
8
73
4
74
0
42
0.000000001
43
0.0000000001
44
0.0000000001
40
-0.11121571478792799
40
-0.11121571478792799
40
-0.11121571478792799
40
-0.11121571478792799
40
0
40
0
40
0
40
0
10
-14013.3385991215
20
-4476.05468066924
30
0
10
-14012.981416597802
20
-4476.1815199184712
30
0
10
-14012.3772757807
20
-4476.2092713945003
30
0
10
-14012.018213680401
20
-4476.1153336337802
30
0
0
SPLINE
5
117
100
AcDbEntity
8
0
100
AcDbSpline
70
0
71
3
72
8
73
4
74
0
42
0.000000001
43
0.0000000001
44
0.0000000001
40
-0.119610425231548
40
-0.119610425231548
40
-0.119610425231548
40
-0.119610425231548
40
0
40
0
40
0
40
0
10
-14014.569493171002
20
-4475.1141120703305
30
0
10
-14013.952215778259
20
-4475.7398787365555
30
0
10
-14013.714314262059
20
-4475.9212604555778
30
0
10
-14013.3385991215
20
-4476.05468066924
30
0
0
LINE
5
118
100
AcDbEntity
8
0
100
AcDbLine
10
-14014.569493171002
20
-4475.1141120703305
30
0
11
-14015.131596087302
21
-4474.5442786595004
31
0
0
LINE
5
119
100
AcDbEntity
8
0
100
AcDbLine
10
-14015.131596087302
20
-4474.5442786595004
30
0
11
-14027.937818062901
21
-4474.5707501616698
31
0
0
SPLINE
5
120
100
AcDbEntity
8
0
100
AcDbSpline
70
0
71
3
72
8
73
4
74
0
42
0.000000001
43
0.0000000001
44
0.0000000001
40
-0.297482534246438
40
-0.297482534246438
40
-0.297482534246438
40
-0.297482534246438
40
0
40
0
40
0
40
0
10
-14042.7080182398
20
-4474.51330739896
30
0
10
-14040.844280472702
20
-4474.5929382005197
30
0
10
-14040.090437472199
20
-4474.5958691353198
30
0
10
-14027.937818062901
20
-4474.5707501616698
30
0
0
SPLINE
5
121
100
AcDbEntity
8
0
100
AcDbSpline
70
0
71
3
72
8
73
4
74
0
42
0.000000001
43
0.0000000001
44
0.0000000001
40
-0.29734331216181498
40
-0.29734331216181498
40
-0.29734331216181498
40
-0.29734331216181498
40
0
40
0
40
0
40
0
10
-14045.898589230701
20
-4474.3789347848597
30
0
10
-14045.2239677139
20
-4474.4066876298511
30
0
10
-14043.788206661102
20
-4474.4671557853308
30
0
10
-14042.7080182398
20
-4474.51330739896
30
0
0
LINE
5
122
100
AcDbEntity
8
0
100
AcDbLine
10
-14045.898589230701
20
-4474.3789347848597
30
0
11
-14047.1251738067
21
-4474.3284736977503
31
0
0
LINE
5
123
100
AcDbEntity
8
0
100
AcDbLine
10
-14047.1251738067
20
-4474.3284736977503
30
0
11
-14048.789824302701
21
-4474.5092210653002
31
0
0
SPLINE
5
124
100
AcDbEntity
8
0
100
AcDbSpline
70
0
71
3
72
8
73
4
74
0
42
0.000000001
43
0.0000000001
44
0.0000000001
40
-0.21263592002246701
40
-0.21263592002246701
40
-0.21263592002246701
40
-0.21263592002246701
40
0
40
0
40
0
40
0
10
-14051.1115736787
20
-4474.6929787670897
30
0
10
-14050.658107003701
20
-4474.6909006918804
30
0
10
-14049.938611109201
20
-4474.6339562291496
30
0
10
-14048.789824302701
20
-4474.5092210653002
30
0
0
SPLINE
5
125
100
AcDbEntity
8
0
100
AcDbSpline
70
0
71
3
72
10
73
6
74
0
42
0.000000001
43
0.0000000001
44
0.0000000001
40
0
40
0
40
0
40
0
40
0.047402303180229172
40
0.047402303180229172
40
0.10267983176476751
40
0.10267983176476751
40
0.10267983176476751
40
0.10267983176476751
10
-14052.2565000293
20
-4474.7278200662404
30
0
10
-14052.098827679649
20
-4474.717531420496
30
0
10
-14051.886179132911
20
-4474.7095444524921
30
0
10
-14051.524085856028
20
-4474.6985249957543
30
0
10
-14051.302940759933
20
-4474.6938558662123
30
0
10
-14051.111573678707
20
-4474.6929787670897
30
0
0
SPLINE
5
126
100
AcDbEntity
8
0
100
AcDbSpline
70
0
71
3
72
11
73
7
74
0
42
0.000000001
43
0.0000000001
44
0.0000000001
40
-0.168940497649778
40
-0.168940497649778
40
-0.168940497649778
40
-0.168940497649778
40
-0.076848144908736496
40
-0.076848144908736496
40
-0.076848144908736496
40
0
40
0
40
0
40
0
10
-14053.367613166702
20
-4475.3202563095801
30
0
10
-14053.035023161035
20
-4475.0076231490439
30
0
10
-14052.899854819671
20
-4474.8697603207511
30
0
10
-14052.754812957312
20
-4474.8020986247029
30
0
10
-14052.6337801275
20
-4474.7456370872587
30
0
10
-14052.5121170067
20
-4474.7444980138425
30
0
10
-14052.2565000293
20
-4474.7278200662404
30
0
0
SPLINE
5
127
100
AcDbEntity
8
0
100
AcDbSpline
70
0
71
3
72
10
73
6
74
0
42
0.000000001
43
0.0000000001
44
0.0000000001
40
0
40
0
40
0
40
0
40
0.052186682739325967
40
0.052186682739325967
40
0.10760873893658031
40
0.10760873893658031
40
0.10760873893658031
40
0.10760873893658031
10
-14054.244347347401
20
-4476.00994455612
30
0
10
-14054.097661434344
20
-4475.9164362845131
30
0
10
-14053.941985302263
20
-4475.8022949359847
30
0
10
-14053.655897844448
20
-4475.5772424838342
30
0
10
-14053.503391983642
20
-4475.4478866990139
30
0
10
-14053.367613166702
20
-4475.320256309582
30
0
0
SPLINE
5
128
100
AcDbEntity
8
0
100
AcDbSpline
70
0
71
3
72
8
73
4
74
0
42
0.000000001
43
0.0000000001
44
0.0000000001
40
-0.0880261447626247
40
-0.0880261447626247
40
-0.0880261447626247
40
-0.0880261447626247
40
0
40
0
40
0
40
0
10
-14055.303755016601
20
-4476.3158925325597
30
0
10
-14055.001804391703
20
-4476.3149383702312
30
0
10
-14054.4916903174
20
-4476.1676209081998
30
0
10
-14054.244347347401
20
-4476.00994455612
30
0
0
SPLINE
5
129
100
AcDbEntity
8
0
100
AcDbSpline
70
0
71
3
72
8
73
4
74
0
42
0.000000001
43
0.0000000001
44
0.0000000001
40
-0.25181250481075701
40
-0.25181250481075701
40
-0.25181250481075701
40
-0.25181250481075701
40
0
40
0
40
0
40
0
10
-14057.6171674506
20
-4475.0206096376096
30
0
10
-14056.717503257001
20
-4475.9438801085198
30
0
10
-14056.048864077902
20
-4476.31824713688
30
0
10
-14055.303755016601
20
-4476.3158925325597
30
0
0
LINE
5
130
100
AcDbEntity
8
0
100
AcDbLine
10
-14057.6171674506
20
-4475.0206096376096
30
0
11
-14058.076821806701
21
-4474.5488920412199
31
0
0
LINE
5
131
100
AcDbEntity
8
0
100
AcDbLine
10
-14058.076821806701
20
-4474.5488920412199
30
0
11
-14059.894795374701
21
-4474.56462545253
31
0
0
SPLINE
5
132
100
AcDbEntity
8
0
100
AcDbSpline
70
0
71
3
72
8
73
4
74
0
42
0.000000001
43
0.0000000001
44
0.0000000001
40
-0.36111695318567899
40
-0.36111695318567899
40
-0.36111695318567899
40
-0.36111695318567899
40
0
40
0
40
0
40
0
10
-14062.304157934701
20
-4474.5007472276602
30
0
10
-14061.792948695602
20
-4474.5695673836899
30
0
10
-14061.4663021045
20
-4474.5782328751702
30
0
10
-14059.894795374701
20
-4474.56462545253
30
0
0
SPLINE
5
133
100
AcDbEntity
8
0
100
AcDbSpline
70
0
71
3
72
8
73
4
74
0
42
0.000000001
43
0.0000000001
44
0.0000000001
40
-0.30468315604745599
40
-0.30468315604745599
40
-0.30468315604745599
40
-0.30468315604745599
40
0
40
0
40
0
40
0
10
-14064.3820962471
20
-4473.6392057207004
30
0
10
-14063.719506452599
20
-4474.1958465680891
30
0
10
-14063.310689060956
20
-4474.3652488116468
30
0
10
-14062.304157934701
20
-4474.5007472276602
30
0
0
SPLINE
5
134
100
AcDbEntity
8
0
100
AcDbSpline
70
0
71
3
72
8
73
4
74
0
42
0.000000001
43
0.0000000001
44
0.0000000001
40
-0.57831952202564696
40
-0.57831952202564696
40
-0.57831952202564696
40
-0.57831952202564696
40
0
40
0
40
0
40
0
10
-14066.446906271502
20
-4472.0706737323308
30
0
10
-14065.97781390288
20
-4472.3068831507962
30
0
10
-14065.858094525855
20
-4472.3992142920224
30
0
10
-14064.3820962471
20
-4473.6392057207004
30
0
0
LINE
5
135
100
AcDbEntity
8
0
100
AcDbLine
10
-14066.446906271502
20
-4472.0706737323308
30
0
11
-14066.7127712162
21
-4471.9367994182203
31
0
0
LINE
5
136
100
AcDbEntity
8
0
100
AcDbLine
10
-14066.7127712162
20
-4471.9367994182203
30
0
11
-14068.804577052902
21
-4471.79484278789
31
0
0
LINE
5
137
100
AcDbEntity
8
0
100
AcDbLine
10
-14068.804577052902
20
-4471.79484278789
30
0
11
-14070.8963692
21
-4471.6528861575607
31
0
0
LINE
5
138
100
AcDbEntity
8
0
100
AcDbLine
10
-14070.8963692
20
-4471.6528861575607
30
0
11
-14074.408795436202
21
-4471.7624368614597
31
0
0
SPLINE
5
139
100
AcDbEntity
8
0
100
AcDbSpline
70
0
71
3
72
20
73
16
74
0
42
0.000000001
43
0.0000000001
44
0.0000000001
40
-0.56822654204116396
40
-0.56822654204116396
40
-0.56822654204116396
40
-0.56822654204116396
40
-0.42597474823004378
40
-0.42597474823004378
40
-0.42597474823004378
40
-0.30171783067077546
40
-0.30171783067077546
40
-0.30171783067077546
40
-0.17688391011832999
40
-0.17688391011832999
40
-0.17688391011832999
40
-0.057188650044302416
40
-0.057188650044302416
40
-0.057188650044302416
40
0
40
0
40
0
40
0
10
-14085.8721044307
20
-4471.8408602438303
30
0
10
-14085.655851854524
20
-4471.8417068418794
30
0
10
-14084.388964763464
20
-4471.8468777571416
30
0
10
-14083.035334346601
20
-4471.8515811826264
30
0
10
-14081.852938409033
20
-4471.8556896239843
30
0
10
-14080.645643531425
20
-4471.8591516143661
30
0
10
-14079.687590188081
20
-4471.8581475990768
30
0
10
-14078.725088000703
20
-4471.8571389215131
30
0
10
-14077.990466187828
20
-4471.8521280334207
30
0
10
-14077.244441536746
20
-4471.8389986184447
30
0
10
-14076.529126226309
20
-4471.8264096623898
30
0
10
-14075.810864564808
20
-4471.8055236091714
30
0
10
-14075.176750031796
20
-4471.7861998898425
30
0
10
-14074.873779353642
20
-4471.7769672984978
30
0
10
-14074.599331615573
20
-4471.7683796299971
30
0
10
-14074.408795436202
20
-4471.7624368614597
30
0
0
SPLINE
5
140
100
AcDbEntity
8
0
100
AcDbSpline
70
0
71
3
72
8
73
4
74
0
42
0.000000001
43
0.0000000001
44
0.0000000001
40
-1.73416409253403
40
-1.73416409253403
40
-1.73416409253403
40
-1.73416409253403
40
0
40
0
40
0
40
0
10
-14105.4121579984
20
-4471.8041872815502
30
0
10
-14099.038120898102
20
-4471.8072373155201
30
0
10
-14090.2450974771
20
-4471.8237400800999
30
0
10
-14085.8721044307
20
-4471.8408602438303
30
0
0
LINE
5
141
100
AcDbEntity
8
0
100
AcDbLine
10
-14105.4121579984
20
-4471.8041872815502
30
0
11
-14117.001328807601
21
-4471.7986430097499
31
0
0
LINE
5
142
100
AcDbEntity
8
0
100
AcDbLine
10
-14117.001328807601
20
-4471.7986430097499
30
0
11
-14117.3629932932
21
-4471.6237424532801
31
0
0
SPLINE
5
143
100
AcDbEntity
8
0
100
AcDbSpline
70
0
71
3
72
8
73
4
74
0
42
0.000000001
43
0.0000000001
44
0.0000000001
40
-0.17377727339833399
40
-0.17377727339833399
40
-0.17377727339833399
40
-0.17377727339833399
40
0
40
0
40
0
40
0
10
-14118.684035833201
20
-4470.6167178853402
30
0
10
-14118.062830513374
20
-4471.2323341127094
30
0
10
-14117.884476033889
20
-4471.3715617782518
30
0
10
-14117.3629932932
20
-4471.6237424532801
30
0
0
SPLINE
5
144
100
AcDbEntity
8
0
100
AcDbSpline
70
0
71
3
72
8
73
4
74
0
42
0.000000001
43
0.0000000001
44
0.0000000001
40
-0.235205856477261
40
-0.235205856477261
40
-0.235205856477261
40
-0.235205856477261
40
0
40
0
40
0
40
0
10
-14120.367728507201
20
-4469.26537487323
30
0
10
-14119.972141291801
20
-4469.4735971876999
30
0
10
-14119.264158317301
20
-4470.0418343958299
30
0
10
-14118.684035833201
20
-4470.6167178853402
30
0
0
SPLINE
5
145
100
AcDbEntity
8
0
100
AcDbSpline
70
0
71
3
72
8
73
4
74
0
42
0.000000001
43
0.0000000001
44
0.0000000001
40
-0.073630532096183504
40
-0.073630532096183504
40
-0.073630532096183504
40
-0.073630532096183504
40
0
40
0
40
0
40
0
10
-14121.576270243102
20
-4469.1342384711297
30
0
10
-14120.60526787579
20
-4469.1487502993359
30
0
10
-14120.584913223094
20
-4469.1510543111572
30
0
10
-14120.367728507201
20
-4469.26537487323
30
0
0
SPLINE
5
146
100
AcDbEntity
8
0
100
AcDbSpline
70
0
71
3
72
11
73
7
74
0
42
0.000000001
43
0.0000000001
44
0.0000000001
40
-0.26776921556716898
40
-0.26776921556716898
40
-0.26776921556716898
40
-0.26776921556716898
40
-0.13444244161745
40
-0.13444244161745
40
-0.13444244161745
40
0
40
0
40
0
40
0
10
-14122.663782579002
20
-4469.2005000483896
30
0
10
-14122.617875729429
20
-4469.1633314102082
30
0
10
-14122.573378464838
20
-4469.1433074193365
30
0
10
-14122.426111283105
20
-4469.1343331002045
30
0
10
-14122.277611781505
20
-4469.125283684697
30
0
10
-14122.024361631802
20
-4469.1275387460801
30
0
10
-14121.576270243102
20
-4469.1342384711297
30
0
0
SPLINE
5
147
100
AcDbEntity
8
0
100
AcDbSpline
70
0
71
3
72
8
73
4
74
0
42
0.000000001
43
0.0000000001
44
0.0000000001
40
-0.036996016432443699
40
-0.036996016432443699
40
-0.036996016432443699
40
-0.036996016432443699
40
0
40
0
40
0
40
0
10
-14122.8245938404
20
-4470.3977109355001
30
0
10
-14122.7661531087
20
-4469.3241154062398
30
0
10
-14122.7600201858
20
-4469.27842923765
30
0
10
-14122.663782579002
20
-4469.2005000483896
30
0
0
SPLINE
5
148
100
AcDbEntity
8
0
100
AcDbSpline
70
0
71
3
72
8
73
4
74
0
42
0.000000001
43
0.0000000001
44
0.0000000001
40
-0.54916511084293995
40
-0.54916511084293995
40
-0.54916511084293995
40
-0.54916511084293995
40
0
40
0
40
0
40
0
10
-14123.153252796801
20
-4473.2038653920999
30
0
10
-14122.9930712553
20
-4472.8898775370708
30
0
10
-14122.931769405603
20
-4472.3664585794304
30
0
10
-14122.8245938404
20
-4470.3977109355001
30
0
0
SPLINE
5
149
100
AcDbEntity
8
0
100
AcDbSpline
70
0
71
3
72
8
73
4
74
0
42
0.000000001
43
0.0000000001
44
0.0000000001
40
-0.15875988570817701
40
-0.15875988570817701
40
-0.15875988570817701
40
-0.15875988570817701
40
0
40
0
40
0
40
0
10
-14124.443808686701
20
-4474.0722927477309
30
0
10
-14123.894583539502
20
-4473.9751379404097
30
0
10
-14123.364879704903
20
-4473.6186932840001
30
0
10
-14123.153252796801
20
-4473.2038653920999
30
0
0
SPLINE
5
150
100
AcDbEntity
8
0
100
AcDbSpline
70
0
71
3
72
8
73
4
74
0
42
0.000000001
43
0.0000000001
44
0.0000000001
40
-0.16717970020720699
40
-0.16717970020720699
40
-0.16717970020720699
40
-0.16717970020720699
40
0
40
0
40
0
40
0
10
-14125.965129489501
20
-4473.5591108430599
30
0
10
-14125.607818283999
20
-4473.9411056942499
30
0
10
-14124.952280013802
20
-4474.1622386327599
30
0
10
-14124.443808686701
20
-4474.0722927477309
30
0
0
SPLINE
5
151
100
AcDbEntity
8
0
100
AcDbSpline
70
0
71
3
72
11
73
7
74
0
42
0.000000001
43
0.0000000001
44
0.0000000001
40
-0.16831118732290901
40
-0.16831118732290901
40
-0.16831118732290901
40
-0.16831118732290901
40
-0.097027711073215589
40
-0.097027711073215589
40
-0.097027711073215589
40
0
40
0
40
0
40
0
10
-14126.525347353399
20
-4470.9227849609497
30
0
10
-14126.47673014574
20
-4471.6172770949706
30
0
10
-14126.431262475642
20
-4472.202870853399
30
0
10
-14126.373788268647
20
-4472.586791523202
30
0
10
-14126.295557084595
20
-4473.1093662597959
30
0
10
-14126.186065865746
20
-4473.3229090153682
30
0
10
-14125.965129489501
20
-4473.5591108430599
30
0
0
SPLINE
5
152
100
AcDbEntity
8
0
100
AcDbSpline
70
0
71
3
72
8
73
4
74
0
42
0.000000001
43
0.0000000001
44
0.0000000001
40
-0.119741922066828
40
-0.119741922066828
40
-0.119741922066828
40
-0.119741922066828
40
0
40
0
40
0
40
0
10
-14126.651674613102
20
-4469.4551888363712
30
0
10
-14126.630921240101
20
-4469.5662508676905
30
0
10
-14126.574082187
20
-4470.2266694659902
30
0
10
-14126.525347353399
20
-4470.9227849609497
30
0
0
SPLINE
5
153
100
AcDbEntity
8
0
100
AcDbSpline
70
0
71
3
72
9
73
5
74
0
42
0.000000001
43
0.0000000001
44
0.0000000001
40
-0.104618561128306
40
-0.104618561128306
40
-0.104618561128306
40
-0.104618561128306
40
-0.052309280564153099
40
0
40
0
40
0
40
0
10
-14127.874782040801
20
-4469.142082589
30
0
10
-14127.292934672201
20
-4469.13033352413
30
0
10
-14126.712908015001
20
-4469.1181176452701
30
0
10
-14126.683201669803
20
-4469.2864198338202
30
0
10
-14126.651674613102
20
-4469.4551888363712
30
0
0
SPLINE
5
154
100
AcDbEntity
8
0
100
AcDbSpline
70
0
71
3
72
8
73
4
74
0
42
0.000000001
43
0.0000000001
44
0.0000000001
40
-0.30428678755851102
40
-0.30428678755851102
40
-0.30428678755851102
40
-0.30428678755851102
40
0
40
0
40
0
40
0
10
-14129.057560024801
20
-4469.2762608113399
30
0
10
-14128.897665963999
20
-4469.1636190048011
30
0
10
-14128.888206478099
20
-4469.162545743291
30
0
10
-14127.874782040801
20
-4469.142082589
30
0
0
SPLINE
5
155
100
AcDbEntity
8
0
100
AcDbSpline
70
0
71
3
72
8
73
4
74
0
42
0.000000001
43
0.0000000001
44
0.0000000001
40
-0.13255774303456599
40
-0.13255774303456599
40
-0.13255774303456599
40
-0.13255774303456599
40
0
40
0
40
0
40
0
10
-14130.1386656467
20
-4470.1712527581603
30
0
10
-14129.5820892058
20
-4469.6701354627103
30
0
10
-14129.384781577501
20
-4469.5068039533899
30
0
10
-14129.057560024801
20
-4469.2762608113399
30
0
0
SPLINE
5
156
100
AcDbEntity
8
0
100
AcDbSpline
70
0
71
3
72
8
73
4
74
0
42
0.000000001
43
0.0000000001
44
0.0000000001
40
-0.47594018322696002
40
-0.47594018322696002
40
-0.47594018322696002
40
-0.47594018322696002
40
0
40
0
40
0
40
0
10
-14132.0442523987
20
-4471.6502810342899
30
0
10
-14131.462884164603
20
-4471.3451421108502
30
0
10
-14131.3149547793
20
-4471.2303264021702
30
0
10
-14130.1386656467
20
-4470.1712527581603
30
0
0
LINE
5
157
100
AcDbEntity
8
0
100
AcDbLine
10
-14132.0442523987
20
-4471.6502810342899
30
0
11
-14132.2851886547
21
-4471.7767397137504
31
0
0
LINE
5
158
100
AcDbEntity
8
0
100
AcDbLine
10
-14132.2851886547
20
-4471.7767397137504
30
0
11
-14140.214181806699
21
-4471.8025678065997
31
0
0
SPLINE
5
159
100
AcDbEntity
8
0
100
AcDbSpline
70
0
71
3
72
8
73
4
74
0
42
0.000000001
43
0.0000000001
44
0.0000000001
40
-2.5840916004354999
40
-2.5840916004354999
40
-2.5840916004354999
40
-2.5840916004354999
40
0
40
0
40
0
40
0
10
-14181.567604654701
20
-4472.1483387130802
30
0
10
-14179.213246746802
20
-4472.04947818658
30
0
10
-14155.726725753702
20
-4471.8531000794301
30
0
10
-14140.214181806699
20
-4471.8025678065997
30
0
0
SPLINE
5
160
100
AcDbEntity
8
0
100
AcDbSpline
70
0
71
3
72
8
73
4
74
0
42
0.000000001
43
0.0000000001
44
0.0000000001
40
-0.20064844712466601
40
-0.20064844712466601
40
-0.20064844712466601
40
-0.20064844712466601
40
0
40
0
40
0
40
0
10
-14183.715674583
20
-4472.3293872509503
30
0
10
-14183.2847409238
20
-4472.2491883326402
30
0
10
-14182.605040580202
20
-4472.1919002619597
30
0
10
-14181.567604654701
20
-4472.1483387130802
30
0
0
SPLINE
5
161
100
AcDbEntity
8
0
100
AcDbSpline
70
0
71
3
72
8
73
4
74
0
42
0.000000001
43
0.0000000001
44
0.0000000001
40
-0.10567369563201801
40
-0.10567369563201801
40
-0.10567369563201801
40
-0.10567369563201801
40
0
40
0
40
0
40
0
10
-14184.981260715402
20
-4473.2003375924896
30
0
10
-14184.4663005369
20
-4472.7255781758604
30
0
10
-14183.955433536801
20
-4472.3740056338602
30
0
10
-14183.715674583
20
-4472.3293872509503
30
0
0
SPLINE
5
162
100
AcDbEntity
8
0
100
AcDbSpline
70
0
71
3
72
10
73
6
74
0
42
0.000000001
43
0.0000000001
44
0.0000000001
40
0
40
0
40
0
40
0
40
0.025035893581148581
40
0.025035893581148581
40
0.048522500641007882
40
0.048522500641007882
40
0.048522500641007882
40
0.048522500641007882
10
-14185.488294638701
20
-4473.6159266239183
30
0
10
-14185.420142314932
20
-4473.567763770985
30
0
10
-14185.330308574281
20
-4473.4976590566303
30
0
10
-14185.155233159641
20
-4473.3541589236675
30
0
10
-14185.059919911047
20
-4473.2728539986247
30
0
10
-14184.981260715402
20
-4473.2003375924915
30
0
0
SPLINE
5
163
100
AcDbEntity
8
0
100
AcDbSpline
70
0
71
3
72
10
73
6
74
0
42
0.000000001
43
0.0000000001
44
0.0000000001
40
0
40
0
40
0
40
0
40
0.026365361014326051
40
0.026365361014326051
40
0.053210493177794971
40
0.053210493177794971
40
0.053210493177794971
40
0.053210493177794971
10
-14185.9482638547
20
-4473.96837803568
30
0
10
-14185.880696499044
20
-4473.9121788876155
30
0
10
-14185.795309356547
20
-4473.8452586546864
30
0
10
-14185.648964733664
20
-4473.7331220874012
30
0
10
-14185.561698319218
20
-4473.667801338599
30
0
10
-14185.488294638701
20
-4473.6159266239201
30
0
0
SPLINE
5
164
100
AcDbEntity
8
0
100
AcDbSpline
70
0
71
3
72
8
73
4
74
0
42
0.000000001
43
0.0000000001
44
0.0000000001
40
-0.12929835963782799
40
-0.12929835963782799
40
-0.12929835963782799
40
-0.12929835963782799
40
0
40
0
40
0
40
0
10
-14187.2165057618
20
-4474.6711357051499
30
0
10
-14186.827667499601
20
-4474.5477941385097
30
0
10
-14186.2800577204
20
-4474.2443486136399
30
0
10
-14185.9482638547
20
-4473.96837803568
30
0
0
SPLINE
5
165
100
AcDbEntity
8
0
100
AcDbSpline
70
0
71
3
72
8
73
4
74
0
42
0.000000001
43
0.0000000001
44
0.0000000001
40
-0.17580998861693301
40
-0.17580998861693301
40
-0.17580998861693301
40
-0.17580998861693301
40
0
40
0
40
0
40
0
10
-14193.414317156201
20
-4474.8639613714913
30
0
10
-14188.4264301433
20
-4474.8627033009197
30
0
10
-14187.754505469802
20
-4474.8417979738497
30
0
10
-14187.2165057618
20
-4474.6711357051499
30
0
0
LINE
5
166
100
AcDbEntity
8
0
100
AcDbLine
10
-14193.414317156201
20
-4474.8639613714913
30
0
11
-14197.9453151041
21
-4474.8650565362896
31
0
0
LINE
5
167
100
AcDbEntity
8
0
100
AcDbLine
10
-14197.9453151041
20
-4474.8650565362896
30
0
11
-14198.588628597199
21
-4475.4994800291006
31
0
0
SPLINE
5
168
100
AcDbEntity
8
0
100
AcDbSpline
70
0
71
3
72
8
73
4
74
0
42
0.000000001
43
0.0000000001
44
0.0000000001
40
-0.245241597836236
40
-0.245241597836236
40
-0.245241597836236
40
-0.245241597836236
40
0
40
0
40
0
40
0
10
-14199.6179466136
20
-4476.31912463768
30
0
10
-14199.269027108301
20
-4476.1517040567905
30
0
10
-14199.170106347801
20
-4476.072931590641
30
0
10
-14198.588628597199
20
-4475.4994800291006
30
0
0
SPLINE
5
169
100
AcDbEntity
8
0
100
AcDbSpline
70
0
71
3
72
8
73
4
74
0
42
0.000000001
43
0.0000000001
44
0.0000000001
40
-0.12559760838822401
40
-0.12559760838822401
40
-0.12559760838822401
40
-0.12559760838822401
40
0
40
0
40
0
40
0
10
-14200.539883721402
20
-4476.5221887259404
30
0
10
-14200.015915812401
20
-4476.5047441196302
30
0
10
-14199.995340403702
20
-4476.5002115063098
30
0
10
-14199.6179466136
20
-4476.31912463768
30
0
0
SPLINE
5
170
100
AcDbEntity
8
0
100
AcDbSpline
70
0
71
3
72
8
73
4
74
0
42
0.000000001
43
0.0000000001
44
0.0000000001
40
-0.280807452019807
40
-0.280807452019807
40
-0.280807452019807
40
-0.280807452019807
40
0
40
0
40
0
40
0
10
-14202.553659065999
20
-4475.9861069252911
30
0
10
-14202.0249135006
20
-4476.4104778094697
30
0
10
-14201.486859034401
20
-4476.5537144136597
30
0
10
-14200.539883721402
20
-4476.5221887259404
30
0
0
SPLINE
5
171
100
AcDbEntity
8
0
100
AcDbSpline
70
0
71
3
72
8
73
4
74
0
42
0.000000001
43
0.0000000001
44
0.0000000001
40
-0.145607310583097
40
-0.145607310583097
40
-0.145607310583097
40
-0.145607310583097
40
0
40
0
40
0
40
0
10
-14203.465315314203
20
-4475.0072705303501
30
0
10
-14203.347064895002
20
-4475.2359354647697
30
0
10
-14202.928848837
20
-4475.6849735671003
30
0
10
-14202.553659065999
20
-4475.9861069252911
30
0
0
LINE
5
172
100
AcDbEntity
8
0
100
AcDbLine
10
-14203.465315314203
20
-4475.0072705303501
30
0
11
-14203.538855630602
21
-4474.8650565362896
31
0
0
LINE
5
173
100
AcDbEntity
8
0
100
AcDbLine
10
-14203.538855630602
20
-4474.8650565362896
30
0
11
-14206.133273662599
21
-4474.86315368745
31
0
0
SPLINE
5
174
100
AcDbEntity
8
0
100
AcDbSpline
70
0
71
3
72
8
73
4
74
0
42
0.000000001
43
0.0000000001
44
0.0000000001
40
-1.1251161486216299
40
-1.1251161486216299
40
-1.1251161486216299
40
-1.1251161486216299
40
0
40
0
40
0
40
0
10
-14210.611375150702
20
-4474.2011950136502
30
0
10
-14209.895178440202
20
-4474.8582665145304
30
0
10
-14209.880763333502
20
-4474.8603883963297
30
0
10
-14206.133273662599
20
-4474.86315368745
30
0
0
SPLINE
5
175
100
AcDbEntity
8
0
100
AcDbSpline
70
0
71
3
72
8
73
4
74
0
42
0.000000001
43
0.0000000001
44
0.0000000001
40
-0.058354894299348398
40
-0.058354894299348398
40
-0.058354894299348398
40
-0.058354894299348398
40
0
40
0
40
0
40
0
10
-14212.8017047507
20
-4472.1271486431597
30
0
10
-14211.735657644802
20
-4473.1635140450398
30
0
10
-14211.524893179101
20
-4473.3630982471504
30
0
10
-14210.611375150702
20
-4474.2011950136502
30
0
0
SPLINE
5
176
100
AcDbEntity
8
0
100
AcDbSpline
70
0
71
3
72
8
73
4
74
0
42
0.000000001
43
0.0000000001
44
0.0000000001
40
-0.31629682158475497
40
-0.31629682158475497
40
-0.31629682158475497
40
-0.31629682158475497
40
0
40
0
40
0
40
0
10
-14215.6568541426
20
-4469.5621864373297
30
0
10
-14215.412495496601
20
-4469.6824245807202
30
0
10
-14214.147101017999
20
-4470.8192152258098
30
0
10
-14212.8017047507
20
-4472.1271486431597
30
0
0
SPLINE
5
177
100
AcDbEntity
8
0
100
AcDbSpline
70
0
71
3
72
8
73
4
74
0
42
0.000000001
43
0.0000000001
44
0.0000000001
40
-0.056083847230137297
40
-0.056083847230137297
40
-0.056083847230137297
40
-0.056083847230137297
40
0
40
0
40
0
40
0
10
-14216.8834387186
20
-4469.4649700269911
30
0
10
-14215.9274967438
20
-4469.4715629190896
30
0
10
-14215.824414357001
20
-4469.4797328484901
30
0
10
-14215.6568541426
20
-4469.5621864373297
30
0
0
SPLINE
5
178
100
AcDbEntity
8
0
100
AcDbSpline
70
0
71
3
72
8
73
4
74
0
42
0.000000001
43
0.0000000001
44
0.0000000001
40
-0.32878303674343901
40
-0.32878303674343901
40
-0.32878303674343901
40
-0.32878303674343901
40
0
40
0
40
0
40
0
10
-14218.168806265201
20
-4469.6535519297213
30
0
10
-14218.0712407711
20
-4469.47125353503
30
0
10
-14217.9769744609
20
-4469.457427079431
30
0
10
-14216.8834387186
20
-4469.4649700269911
30
0
0
SPLINE
5
179
100
AcDbEntity
8
0
100
AcDbSpline
70
0
71
3
72
12
73
8
74
0
42
0.000000001
43
0.0000000001
44
0.0000000001
40
0
40
0
40
0
40
0
40
0.088201888145797505
40
0.088201888145797505
40
0.11605698284896199
40
0.11605698284896199
40
0.13221529840024041
40
0.13221529840024041
40
0.13221529840024041
40
0.13221529840024041
10
-14218.258253850199
20
-4470.9776965240198
30
0
10
-14218.248075561862
20
-4470.6838664655643
30
0
10
-14218.23323951493
20
-4470.3508047213872
30
0
10
-14218.208354710341
20
-4469.9824209704848
30
0
10
-14218.199959373178
20
-4469.8700359446702
30
0
10
-14218.185044645617
20
-4469.7318099423937
30
0
10
-14218.176995563053
20
-4469.6688581173858
30
0
10
-14218.168806265201
20
-4469.6535519297213
30
0
0
SPLINE
5
180
100
AcDbEntity
8
0
100
AcDbSpline
70
0
71
3
72
8
73
4
74
0
42
0.000000001
43
0.0000000001
44
0.0000000001
40
-0.501511095233519
40
-0.501511095233519
40
-0.501511095233519
40
-0.501511095233519
40
0
40
0
40
0
40
0
10
-14218.557535011001
20
-4473.2999250346202
30
0
10
-14218.341020930002
20
-4472.8420338938304
30
0
10
-14218.316160689001
20
-4472.6491028178798
30
0
10
-14218.258253850199
20
-4470.9776965240198
30
0
0
SPLINE
5
181
100
AcDbEntity
8
0
100
AcDbSpline
70
0
71
3
72
8
73
4
74
0
42
0.000000001
43
0.0000000001
44
0.0000000001
40
-0.10097450562916099
40
-0.10097450562916099
40
-0.10097450562916099
40
-0.10097450562916099
40
0
40
0
40
0
40
0
10
-14219.009016699802
20
-4473.9097566018499
30
0
10
-14218.782344965302
20
-4473.7136207999101
30
0
10
-14218.701562871702
20
-4473.6045163756608
30
0
10
-14218.557535011001
20
-4473.2999250346202
30
0
0
SPLINE
5
182
100
AcDbEntity
8
0
100
AcDbSpline
70
0
71
3
72
8
73
4
74
0
42
0.000000001
43
0.0000000001
44
0.0000000001
40
-0.16793662202972301
40
-0.16793662202972301
40
-0.16793662202972301
40
-0.16793662202972301
40
0
40
0
40
0
40
0
10
-14220.141512929902
20
-4474.3289309290503
30
0
10
-14219.67108489
20
-4474.3557528839601
30
0
10
-14219.414843705999
20
-4474.2609075054097
30
0
10
-14219.009016699802
20
-4473.9097566018499
30
0
0
SPLINE
5
183
100
AcDbEntity
8
0
100
AcDbSpline
70
0
71
3
72
8
73
4
74
0
42
0.000000001
43
0.0000000001
44
0.0000000001
40
-0.077214727913520895
40
-0.077214727913520895
40
-0.077214727913520895
40
-0.077214727913520895
40
0
40
0
40
0
40
0
10
-14220.7900421453
20
-4474.1853917855897
30
0
10
-14220.578370794321
20
-4474.2803806767151
30
0
10
-14220.398477942428
20
-4474.3142784297324
30
0
10
-14220.141512929902
20
-4474.3289309290503
30
0
0
SPLINE
5
184
100
AcDbEntity
8
0
100
AcDbSpline
70
0
71
3
72
8
73
4
74
0
42
0.000000001
43
0.0000000001
44
0.0000000001
40
-0.11420539532768199
40
-0.11420539532768199
40
-0.11420539532768199
40
-0.11420539532768199
40
0
40
0
40
0
40
0
10
-14221.6084314212
20
-4473.3229166506399
30
0
10
-14221.501543336801
20
-4473.6505105593496
30
0
10
-14221.1452725378
20
-4474.0259727525199
30
0
10
-14220.7900421453
20
-4474.1853917855897
30
0
0
SPLINE
5
185
100
AcDbEntity
8
0
100
AcDbSpline
70
0
71
3
72
10
73
6
74
0
42
0.000000001
43
0.0000000001
44
0.0000000001
40
0
40
0
40
0
40
0
40
0.0088627166602001477
40
0.0088627166602001477
40
0.039245333853326569
40
0.039245333853326569
40
0.039245333853326569
40
0.039245333853326569
10
-14221.730172678301
20
-4473.0329211184699
30
0
10
-14221.711798716206
20
-4473.0560544333403
30
0
10
-14221.682344037701
20
-4473.1255191114378
30
0
10
-14221.651655695918
20
-4473.1986206769952
30
0
10
-14221.627916999258
20
-4473.2631860813126
30
0
10
-14221.608431421208
20
-4473.3229166506371
30
0
0
SPLINE
5
186
100
AcDbEntity
8
0
100
AcDbSpline
70
0
71
3
72
16
73
12
74
0
42
0.000000001
43
0.0000000001
44
0.0000000001
40
0
40
0
40
0
40
0
40
0.093596186814879953
40
0.093596186814879953
40
0.12034479825076577
40
0.12034479825076577
40
0.12799136846555004
40
0.12799136846555004
40
0.1303276711631558
40
0.1303276711631558
40
0.13195434015415847
40
0.13195434015415847
40
0.13195434015415847
40
0.13195434015415847
10
-14221.809667953201
20
-4471.6311101744705
30
0
10
-14221.801906259499
20
-4471.9430009002826
30
0
10
-14221.789881654395
20
-4472.3258787264749
30
0
10
-14221.767934093281
20
-4472.7128991297905
30
0
10
-14221.760567495929
20
-4472.8283891874098
30
0
10
-14221.749034429271
20
-4472.9391063336152
30
0
10
-14221.745277585525
20
-4472.9715280092787
30
0
10
-14221.739477534202
20
-4473.0037550785592
30
0
10
-14221.73763338388
20
-4473.0129364832537
30
0
10
-14221.733983254326
20
-4473.0255343653771
30
0
10
-14221.732191203846
20
-4473.0303795622403
30
0
10
-14221.730172678301
20
-4473.0329211184699
30
0
0
SPLINE
5
187
100
AcDbEntity
8
0
100
AcDbSpline
70
0
71
3
72
8
73
4
74
0
42
0.000000001
43
0.0000000001
44
0.0000000001
40
-0.13295636314046799
40
-0.13295636314046799
40
-0.13295636314046799
40
-0.13295636314046799
40
0
40
0
40
0
40
0
10
-14221.895624700501
20
-4469.9037683384504
30
0
10
-14221.866739728901
20
-4470.11469570997
30
0
10
-14221.828053032303
20
-4470.8919998784204
30
0
10
-14221.809667953201
20
-4471.6311101744705
30
0
0
LINE
5
188
100
AcDbEntity
8
0
100
AcDbLine
10
-14221.895624700501
20
-4469.9037683384504
30
0
11
-14221.9481378526
21
-4469.5202621598301
31
0
0
LINE
5
189
100
AcDbEntity
8
0
100
AcDbLine
10
-14221.9481378526
20
-4469.5202621598301
30
0
11
-14222.168745112001
21
-4469.4547507704501
31
0
0
SPLINE
5
190
100
AcDbEntity
8
0
100
AcDbSpline
70
0
71
3
72
8
73
4
74
0
42
0.000000001
43
0.0000000001
44
0.0000000001
40
-0.18667170530612801
40
-0.18667170530612801
40
-0.18667170530612801
40
-0.18667170530612801
40
0
40
0
40
0
40
0
10
-14224.357486723102
20
-4469.5246921014405
30
0
10
-14223.7391019188
20
-4469.3792240989696
30
0
10
-14222.5509302481
20
-4469.3412547353601
30
0
10
-14222.168745112001
20
-4469.4547507704501
30
0
0
SPLINE
5
191
100
AcDbEntity
8
0
100
AcDbSpline
70
0
71
3
72
8
73
4
74
0
42
0.000000001
43
0.0000000001
44
0.0000000001
40
-0.16192284052395201
40
-0.16192284052395201
40
-0.16192284052395201
40
-0.16192284052395201
40
0
40
0
40
0
40
0
10
-14226.5719647069
20
-4471.3386313561105
30
0
10
-14225.397181426
20
-4470.1925167517002
30
0
10
-14224.672305534401
20
-4469.5987512520896
30
0
10
-14224.357486723102
20
-4469.5246921014405
30
0
0
LINE
5
192
100
AcDbEntity
8
0
100
AcDbLine
10
-14226.5719647069
20
-4471.3386313561105
30
0
11
-14227.200602991699
21
-4471.9519236441101
31
0
0
LINE
5
193
100
AcDbEntity
8
0
100
AcDbLine
10
-14227.200602991699
20
-4471.9519236441101
30
0
11
-14228.149179983202
21
-4471.983419214801
31
0
0
SPLINE
5
194
100
AcDbEntity
8
0
100
AcDbSpline
70
0
71
3
72
10
73
6
74
0
42
0.000000001
43
0.0000000001
44
0.0000000001
40
0
40
0
40
0
40
0
40
0.25422072222516828
40
0.25422072222516828
40
0.59476343289485989
40
0.59476343289485989
40
0.59476343289485989
40
0.59476343289485989
10
-14234.595484270701
20
-4472.07896960569
30
0
10
-14233.748206202488
20
-4472.0934856389085
30
0
10
-14232.641317304444
20
-4472.0839247460863
30
0
10
-14230.589538197491
20
-4472.0535122449373
30
0
10
-14229.332958076324
20
-4472.0227239403403
30
0
10
-14228.149179983202
20
-4471.9834192147991
30
0
0
ELLIPSE
5
195
100
AcDbEntity
8
0
100
AcDbEllipse
10
-14235.320940696913
20
-4472.2188703026231
30
0
11
-2.8776225167185188
21
0.010989142243458738
31
0.0
40
0.051230988566509046
41
4.4577320951422683
42
5.4764734762066123
0
SPLINE
5
196
100
AcDbEntity
8
0
100
AcDbSpline
70
0
71
3
72
8
73
4
74
0
42
0.000000001
43
0.0000000001
44
0.0000000001
40
-0.319887244338391
40
-0.319887244338391
40
-0.319887244338391
40
-0.319887244338391
40
0
40
0
40
0
40
0
10
-14238.705678833801
20
-4472.2618060000996
30
0
10
-14238.490777955883
20
-4472.1655683781628
30
0
10
-14238.37669503687
20
-4472.1529983879436
30
0
10
-14237.311492974703
20
-4472.1048250776603
30
0
0
SPLINE
5
197
100
AcDbEntity
8
0
100
AcDbSpline
70
0
71
3
72
8
73
4
74
0
42
0.000000001
43
0.0000000001
44
0.0000000001
40
-0.14760424430404701
40
-0.14760424430404701
40
-0.14760424430404701
40
-0.14760424430404701
40
0
40
0
40
0
40
0
10
-14239.640319853203
20
-4473.1023395082702
30
0
10
-14239.4843546962
20
-4472.8499930040098
30
0
10
-14238.953939004401
20
-4472.3729802858097
30
0
10
-14238.705678833801
20
-4472.2618060000996
30
0
0
LINE
5
198
100
AcDbEntity
8
0
100
AcDbLine
10
-14239.640319853203
20
-4473.1023395082702
30
0
11
-14239.730698328402
21
-4473.2485741260998
31
0
0
LINE
5
199
100
AcDbEntity
8
0
100
AcDbLine
10
-14239.730698328402
20
-4473.2485741260998
30
0
11
-14239.719335993603
21
-4517.5020070540613
31
0
0
SPLINE
5
200
100
AcDbEntity
8
0
100
AcDbSpline
70
0
71
3
72
8
73
4
74
0
42
0.000000001
43
0.0000000001
44
0.0000000001
40
-1.3146693849309601
40
-1.3146693849309601
40
-1.3146693849309601
40
-1.3146693849309601
40
0
40
0
40
0
40
0
10
-14239.830810080603
20
-4567.0122310220204
30
0
10
-14239.717967037603
20
-4564.3978207565196
30
0
10
-14239.7085212412
20
-4560.0032844495499
30
0
10
-14239.719335993603
20
-4517.5020070540613
30
0
0
SPLINE
5
201
100
AcDbEntity
8
0
100
AcDbSpline
70
0
71
3
72
8
73
4
74
0
42
0.000000001
43
0.0000000001
44
0.0000000001
40
-0.211544861976
40
-0.211544861976
40
-0.211544861976
40
-0.211544861976
40
0
40
0
40
0
40
0
10
-14239.898313301001
20
-4569.7939496140207
30
0
10
-14239.874657741302
20
-4568.5772215212301
30
0
10
-14239.844225849401
20
-4567.3254481548202
30
0
10
-14239.830810080603
20
-4567.0122310220204
30
0
0
SPLINE
5
202
100
AcDbEntity
8
0
100
AcDbSpline
70
0
71
3
72
8
73
4
74
0
42
0.000000001
43
0.0000000001
44
0.0000000001
40
-0.82961447361910801
40
-0.82961447361910801
40
-0.82961447361910801
40
-0.82961447361910801
40
0
40
0
40
0
40
0
10
-14240.071883232202
20
-4578.1391053900197
30
0
10
-14240.0010808279
20
-4574.8873078419601
30
0
10
-14239.943803708902
20
-4572.1332859677595
30
0
10
-14239.898313301001
20
-4569.7939496140207
30
0
0
SPLINE
5
203
100
AcDbEntity
8
0
100
AcDbSpline
70
0
71
3
72
8
73
4
74
0
42
0.000000001
43
0.0000000001
44
0.0000000001
40
-1.16262721712344
40
-1.16262721712344
40
-1.16262721712344
40
-1.16262721712344
40
0
40
0
40
0
40
0
10
-14239.783635856902
20
-4590.0643743363999
30
0
10
-14240.111637714501
20
-4580.7010490478697
30
0
10
-14240.120070483399
20
-4580.3520953186899
30
0
10
-14240.071883232202
20
-4578.1391053900197
30
0
0
SPLINE
5
204
100
AcDbEntity
8
0
100
AcDbSpline
70
0
71
3
72
8
73
4
74
0
42
0.000000001
43
0.0000000001
44
0.0000000001
40
-0.112648703914271
40
-0.112648703914271
40
-0.112648703914271
40
-0.112648703914271
40
0
40
0
40
0
40
0
10
-14239.526573299199
20
-4595.7053975123908
30
0
10
-14239.5788263497
20
-4595.5803277756904
30
0
10
-14239.6289027602
20
-4594.4815904112102
30
0
10
-14239.783635856902
20
-4590.0643743363999
30
0
0
SPLINE
5
205
100
AcDbEntity
8
0
100
AcDbSpline
70
0
71
3
72
8
73
4
74
0
42
0.000000001
43
0.0000000001
44
0.0000000001
40
-0.122797484388733
40
-0.122797484388733
40
-0.122797484388733
40
-0.122797484388733
40
0
40
0
40
0
40
0
10
-14238.4972552828
20
-4596.7991785716604
30
0
10
-14238.871445715802
20
-4596.6095620119804
30
0
10
-14239.370252213603
20
-4596.0795144324902
30
0
10
-14239.526573299199
20
-4595.7053975123908
30
0
0
LINE
5
206
100
AcDbEntity
8
0
100
AcDbLine
10
-14238.4972552828
20
-4596.7991785716604
30
0
11
-14238.278112806302
21
-4596.9102299251299
31
0
0
LINE
5
207
100
AcDbEntity
8
0
100
AcDbLine
10
-14238.278112806302
20
-4596.9102299251299
30
0
11
-14226.0217539114
21
-4596.9064625582196
31
0
0
SPLINE
5
208
100
AcDbEntity
8
0
100
AcDbSpline
70
0
71
3
72
8
73
4
74
0
42
0.000000001
43
0.0000000001
44
0.0000000001
40
-1.1038423305678799
40
-1.1038423305678799
40
-1.1038423305678799
40
-1.1038423305678799
40
0
40
0
40
0
40
0
10
-14212.7978169157
20
-4596.8735372498804
30
0
10
-14213.329998560701
20
-4596.8895738849396
30
0
10
-14219.280768155302
20
-4596.9043899588296
30
0
10
-14226.0217539114
20
-4596.9064625582196
30
0
0
LINE
5
209
100
AcDbEntity
8
0
100
AcDbLine
10
-14212.7978169157
20
-4596.8735372498804
30
0
11
-14211.830225125303
21
-4596.8443797191403
31
0
0
LINE
5
210
100
AcDbEntity
8
0
100
AcDbLine
10
-14211.830225125303
20
-4596.8443797191403
30
0
11
-14211.636942227702
21
-4596.7139175278598
31
0
0
SPLINE
5
211
100
AcDbEntity
8
0
100
AcDbSpline
70
0
71
3
72
11
73
7
74
0
42
0.000000001
43
0.0000000001
44
0.0000000001
40
-0.123547308344215
40
-0.123547308344215
40
-0.123547308344215
40
-0.123547308344215
40
-0.052004676008295697
40
-0.052004676008295697
40
-0.052004676008295697
40
0
40
0
40
0
40
0
10
-14209.8124387396
20
-4595.3017626154297
30
0
10
-14210.169073779132
20
-4595.6009958853347
30
0
10
-14210.629231327166
20
-4595.9631840437196
30
0
10
-14210.994199739971
20
-4596.2418280112261
30
0
10
-14211.259496996188
20
-4596.4443756220526
30
0
10
-14211.493261256435
20
-4596.6169349182228
30
0
10
-14211.636942227702
20
-4596.7139175278598
30
0
0
SPLINE
5
212
100
AcDbEntity
8
0
100
AcDbSpline
70
0
71
3
72
8
73
4
74
0
42
0.000000001
43
0.0000000001
44
0.0000000001
40
-0.24661102096944901
40
-0.24661102096944901
40
-0.24661102096944901
40
-0.24661102096944901
40
0
40
0
40
0
40
0
10
-14208.656957738202
20
-4594.4604804252212
30
0
10
-14208.908079026802
20
-4594.57097543497
30
0
10
-14209.160391307199
20
-4594.75467755714
30
0
10
-14209.8124387396
20
-4595.3017626154297
30
0
0
SPLINE
5
213
100
AcDbEntity
8
0
100
AcDbSpline
70
0
71
3
72
10
73
6
74
0
42
0.000000001
43
0.0000000001
44
0.0000000001
40
0
40
0
40
0
40
0
40
0.10104916661643738
40
0.10104916661643738
40
0.14779271663197252
40
0.14779271663197252
40
0.14779271663197252
40
0.14779271663197252
10
-14206.988063478602
20
-4594.2824975274198
30
0
10
-14207.324893845152
20
-4594.2821408577065
30
0
10
-14207.691461499886
20
-4594.2946551951609
30
0
10
-14208.172018435116
20
-4594.3459052493827
30
0
10
-14208.485734734424
20
-4594.3851438884494
30
0
10
-14208.656957738202
20
-4594.4604804252212
30
0
0
SPLINE
5
214
100
AcDbEntity
8
0
100
AcDbSpline
70
0
71
3
72
10
73
6
74
0
42
0.000000001
43
0.0000000001
44
0.0000000001
40
0
40
0
40
0
40
0
40
0.12294167603937516
40
0.12294167603937516
40
0.19803622901629558
40
0.19803622901629558
40
0.19803622901629558
40
0.19803622901629558
10
-14204.828863938008
20
-4594.2311812534899
30
0
10
-14205.238434228715
20
-4594.2450663512309
30
0
10
-14205.690591429084
20
-4594.2580733427158
30
0
10
-14206.343226759065
20
-4594.2735841586964
30
0
10
-14206.764337682927
20
-4594.2827377197327
30
0
10
-14206.988063478588
20
-4594.2824975274198
30
0
0
LINE
5
215
100
AcDbEntity
8
0
100
AcDbLine
10
-14204.828863938008
20
-4594.2311812534899
30
0
11
-14203.295633218002
21
-4594.1792022679601
31
0
0
LINE
5
216
100
AcDbEntity
8
0
100
AcDbLine
10
-14203.295633218002
20
-4594.1792022679601
30
0
11
-14202.766093658101
21
-4593.6719033148001
31
0
0
SPLINE
5
217
100
AcDbEntity
8
0
100
AcDbSpline
70
0
71
3
72
8
73
4
74
0
42
0.000000001
43
0.0000000001
44
0.0000000001
40
-0.26898439501598898
40
-0.26898439501598898
40
-0.26898439501598898
40
-0.26898439501598898
40
0
40
0
40
0
40
0
10
-14201.517331994901
20
-4592.7857924700302
30
0
10
-14201.968211343101
20
-4592.9453431966704
30
0
10
-14202.120411871201
20
-4593.0533479385604
30
0
10
-14202.766093658101
20
-4593.6719033148001
30
0
0
SPLINE
5
218
100
AcDbEntity
8
0
100
AcDbSpline
70
0
71
3
72
8
73
4
74
0
42
0.000000001
43
0.0000000001
44
0.0000000001
40
-0.145147472032359
40
-0.145147472032359
40
-0.145147472032359
40
-0.145147472032359
40
0
40
0
40
0
40
0
10
-14199.971397363202
20
-4592.7502267193613
30
0
10
-14200.426055030002
20
-4592.60979620118
30
0
10
-14201.061291682599
20
-4592.6244103540603
30
0
10
-14201.517331994901
20
-4592.7857924700302
30
0
0
SPLINE
5
219
100
AcDbEntity
8
0
100
AcDbSpline
70
0
71
3
72
10
73
6
74
0
42
0.000000001
43
0.0000000001
44
0.0000000001
40
0
40
0
40
0
40
0
40
0.10590235744412699
40
0.10590235744412699
40
0.16541594782016697
40
0.16541594782016697
40
0.16541594782016697
40
0.16541594782016697
10
-14198.453649535602
20
-4593.77017190472
30
0
10
-14198.716681202697
20
-4593.5347384958377
30
0
10
-14199.009137305147
20
-4593.2966107023331
30
0
10
-14199.462236278137
20
-4592.9921226255838
30
0
10
-14199.731752677926
20
-4592.824244596648
30
0
10
-14199.971397363202
20
-4592.7502267193613
30
0
0
LINE
5
220
100
AcDbEntity
8
0
100
AcDbLine
10
-14198.453649535602
20
-4593.77017190472
30
0
11
-14197.992338742701
21
-4594.1830898292101
31
0
0
LINE
5
221
100
AcDbEntity
8
0
100
AcDbLine
10
-14197.992338742701
20
-4594.1830898292101
30
0
11
-14196.2852232316
21
-4594.2094768667903
31
0
0
SPLINE
5
222
100
AcDbEntity
8
0
100
AcDbSpline
70
0
71
3
72
8
73
4
74
0
42
0.000000001
43
0.0000000001
44
0.0000000001
40
-1.1635200677644799
40
-1.1635200677644799
40
-1.1635200677644799
40
-1.1635200677644799
40
0
40
0
40
0
40
0
10
-14191.511659970001
20
-4594.58971794846
30
0
10
-14191.920060613502
20
-4594.3081577862613
30
0
10
-14192.406176889101
20
-4594.2694361813201
30
0
10
-14196.2852232316
20
-4594.2094768667903
30
0
0
SPLINE
5
223
100
AcDbEntity
8
0
100
AcDbSpline
70
0
71
3
72
10
73
6
74
0
42
0.000000001
43
0.0000000001
44
0.0000000001
40
0
40
0
40
0
40
0
40
0.16679168101189515
40
0.16679168101189515
40
0.23619266501673525
40
0.23619266501673525
40
0.23619266501673525
40
0.23619266501673525
10
-14189.532998346802
20
-4596.4102806229403
30
0
10
-14189.928757302705
20
-4596.0197937295943
30
0
10
-14190.371585804365
20
-4595.5923066127143
30
0
10
-14190.936008175293
20
-4595.0729827237237
30
0
10
-14191.326049300911
20
-4594.7176796647282
30
0
10
-14191.511659970001
20
-4594.58971794846
30
0
0
SPLINE
5
224
100
AcDbEntity
8
0
100
AcDbSpline
70
0
71
3
72
8
73
4
74
0
42
0.000000001
43
0.0000000001
44
0.0000000001
40
-0.44431457692357001
40
-0.44431457692357001
40
-0.44431457692357001
40
-0.44431457692357001
40
0
40
0
40
0
40
0
10
-14186.157180229902
20
-4599.5976236156503
30
0
10
-14186.4258789136
20
-4599.4290880200997
30
0
10
-14187.5294354138
20
-4598.3871497352302
30
0
10
-14189.532998346802
20
-4596.4102806229403
30
0
0
LINE
5
225
100
AcDbEntity
8
0
100
AcDbLine
10
-14186.157180229902
20
-4599.5976236156503
30
0
11
-14185.971864656201
21
-4599.7138522238201
31
0
0
LINE
5
226
100
AcDbEntity
8
0
100
AcDbLine
10
-14185.971864656201
20
-4599.7138522238201
30
0
11
-14179.3014485819
21
-4599.7118813378602
31
0
0
ELLIPSE
5
227
100
AcDbEntity
8
0
100
AcDbEllipse
10
-14183.401591491242
20
-4599.5290708734055
30
0
11
-15.434492712385257
21
0.044358530111220339
31
0.0
40
0.011493792105469606
41
1.8397054231313152
42
2.6826363860574407
0
SPLINE
5
228
100
AcDbEntity
8
0
100
AcDbSpline
70
0
71
3
72
8
73
4
74
0
42
0.000000001
43
0.0000000001
44
0.0000000001
40
-0.56954418200938295
40
-0.56954418200938295
40
-0.56954418200938295
40
-0.56954418200938295
40
0
40
0
40
0
40
0
10
-14163.36592461
20
-4599.5320324161403
30
0
10
-14165.0886188404
20
-4599.5611365575896
30
0
10
-14167.878003586002
20
-4599.6130654393301
30
0
10
-14169.564557378
20
-4599.6474297942204
30
0
0
LINE
5
229
100
AcDbEntity
8
0
100
AcDbLine
10
-14163.36592461
20
-4599.5320324161403
30
0
11
-14160.233753282
21
-4599.4791156957499
31
0
0
LINE
5
230
100
AcDbEntity
8
0
100
AcDbLine
10
-14160.233753282
20
-4599.4791156957499
30
0
11
-14159.943781022102
21
-4599.2872191398501
31
0
0
LINE
5
231
100
AcDbEntity
8
0
100
AcDbLine
10
-14159.943781022102
20
-4599.2872191398501
30
0
11
-14159.653822451801
21
-4599.0953225839512
31
0
0
LINE
5
232
100
AcDbEntity
8
0
100
AcDbLine
10
-14159.653822451801
20
-4599.0953225839512
30
0
11
-14159.6287431778
21
-4597.7946951478798
31
0
0
SPLINE
5
233
100
AcDbEntity
8
0
100
AcDbSpline
70
0
71
3
72
8
73
4
74
0
42
0.000000001
43
0.0000000001
44
0.0000000001
40
-0.39740284120097302
40
-0.39740284120097302
40
-0.39740284120097302
40
-0.39740284120097302
40
0
40
0
40
0
40
0
10
-14159.350872489002
20
-4595.8236636746597
30
0
10
-14159.564005248601
20
-4596.10407843137
30
0
10
-14159.6012408518
20
-4596.3682072661304
30
0
10
-14159.6287431778
20
-4597.7946951478798
30
0
0
ELLIPSE
5
234
100
AcDbEntity
8
0
100
AcDbEllipse
10
-14151.755220259454
20
-4613.5710154407952
30
0
11
-6.6449135172198766
21
18.47947741012679
31
0.0
40
0.30221708437021405
41
6.1749369348275787
42
6.4768806762262869
0
SPLINE
5
235
100
AcDbEntity
8
0
100
AcDbSpline
70
0
71
3
72
8
73
4
74
0
42
0.000000001
43
0.0000000001
44
0.0000000001
40
-0.073370260370561893
40
-0.073370260370561893
40
-0.073370260370561893
40
-0.073370260370561893
40
0
40
0
40
0
40
0
10
-14157.193137731301
20
-4595.1226104923098
30
0
10
-14157.418810127901
20
-4595.0062203473399
30
0
10
-14157.5136103309
20
-4594.9827401509201
30
0
10
-14157.757873150002
20
-4594.9827401509201
30
0
0
SPLINE
5
236
100
AcDbEntity
8
0
100
AcDbSpline
70
0
71
3
72
8
73
4
74
0
42
0.000000001
43
0.0000000001
44
0.0000000001
40
-0.13109867111080001
40
-0.13109867111080001
40
-0.13109867111080001
40
-0.13109867111080001
40
0
40
0
40
0
40
0
10
-14156.246846896302
20
-4596.2312280229198
30
0
10
-14156.4388292858
20
-4595.7530144565208
30
0
10
-14156.806900485501
20
-4595.3218101546809
30
0
10
-14157.193137731301
20
-4595.1226104923098
30
0
0
SPLINE
5
237
100
AcDbEntity
8
0
100
AcDbSpline
70
0
71
3
72
8
73
4
74
0
42
0.000000001
43
0.0000000001
44
0.0000000001
40
-0.112165986227954
40
-0.112165986227954
40
-0.112165986227954
40
-0.112165986227954
40
0
40
0
40
0
40
0
10
-14156.011318016501
20
-4598.2747502338998
30
0
10
-14156.0753577782
20
-4596.8580755763396
30
0
10
-14156.107637760702
20
-4596.5779697930002
30
0
10
-14156.246846896302
20
-4596.2312280229198
30
0
0
SPLINE
5
238
100
AcDbEntity
8
0
100
AcDbSpline
70
0
71
3
72
12
73
8
74
0
42
0.000000001
43
0.0000000001
44
0.0000000001
40
0
40
0
40
0
40
0
40
0.0049852162811085806
40
0.0049852162811085806
40
0.013514675290565711
40
0.013514675290565711
40
0.039088257290048903
40
0.039088257290048903
40
0.039088257290048903
40
0.039088257290048903
10
-14155.924389310501
20
-4599.2653421277992
30
0
10
-14155.932230209524
20
-4599.2506909205695
30
0
10
-14155.94015507593
20
-4599.2001653227162
30
0
10
-14155.954639710515
20
-4599.0927370006375
30
0
10
-14155.962882750049
20
-4599.0076796282019
30
0
10
-14155.987051136224
20
-4598.7322613194883
30
0
10
-14156.001535515888
20
-4598.4912626502264
30
0
10
-14156.011318016501
20
-4598.2747502338998
30
0
0
SPLINE
5
239
100
AcDbEntity
8
0
100
AcDbSpline
70
0
71
3
72
8
73
4
74
0
42
0.000000001
43
0.0000000001
44
0.0000000001
40
-0.059546781803808499
40
-0.059546781803808499
40
-0.059546781803808499
40
-0.059546781803808499
40
0
40
0
40
0
40
0
10
-14154.670316098
20
-4599.4727740070803
30
0
10
-14155.643561676699
20
-4599.4729241815503
30
0
10
-14155.8297807614
20
-4599.4421208919102
30
0
10
-14155.924389310501
20
-4599.2653421278001
30
0
0
SPLINE
5
240
100
AcDbEntity
8
0
100
AcDbSpline
70
0
71
3
72
8
73
4
74
0
42
0.000000001
43
0.0000000001
44
0.0000000001
40
-0.118233850072706
40
-0.118233850072706
40
-0.118233850072706
40
-0.118233850072706
40
0
40
0
40
0
40
0
10
-14153.562146216
20
-4599.41577478611
30
0
10
-14153.6906090471
20
-4599.4545760642804
30
0
10
-14154.042512876402
20
-4599.4726770849902
30
0
10
-14154.670316098
20
-4599.4727740070803
30
0
0
SPLINE
5
241
100
AcDbEntity
8
0
100
AcDbSpline
70
0
71
3
72
8
73
4
74
0
42
0.000000001
43
0.0000000001
44
0.0000000001
40
-0.0669855335491224
40
-0.0669855335491224
40
-0.0669855335491224
40
-0.0669855335491224
40
0
40
0
40
0
40
0
10
-14153.099274813301
20
-4599.1259353149198
30
0
10
-14153.2516806848
20
-4599.2552162340598
30
0
10
-14153.457694873199
20
-4599.3842248678611
30
0
10
-14153.562146216
20
-4599.41577478611
30
0
0
SPLINE
5
242
100
AcDbEntity
8
0
100
AcDbSpline
70
0
71
3
72
10
73
6
74
0
42
0.000000001
43
0.0000000001
44
0.0000000001
40
0
40
0
40
0
40
0
40
0.027465760059467034
40
0.027465760059467034
40
0.058380010977171506
40
0.058380010977171506
40
0.058380010977171506
40
0.058380010977171506
10
-14152.591775445
20
-4598.7256495688198
30
0
10
-14152.666128562034
20
-4598.7790675469132
30
0
10
-14152.761175178732
20
-4598.8525102648919
30
0
10
-14152.922089452884
20
-4598.9794300656968
30
0
10
-14153.018374503445
20
-4599.0573054719262
30
0
10
-14153.099274813301
20
-4599.1259353149162
30
0
0
SPLINE
5
243
100
AcDbEntity
8
0
100
AcDbSpline
70
0
71
3
72
10
73
6
74
0
42
0.000000001
43
0.0000000001
44
0.0000000001
40
0
40
0
40
0
40
0
40
0.061795959366718514
40
0.061795959366718514
40
0.079572352640351174
40
0.079572352640351174
40
0.079572352640351174
40
0.079572352640351174
10
-14151.8061452862
20
-4598.0062637384035
30
0
10
-14151.951889016978
20
-4598.1518288990173
30
0
10
-14152.115424996344
20
-4598.3084165207465
30
0
10
-14152.308006931855
20
-4598.4847600802505
30
0
10
-14152.498433518045
20
-4598.6585965072491
30
0
10
-14152.591775445
20
-4598.7256495688198
30
0
0
SPLINE
5
244
100
AcDbEntity
8
0
100
AcDbSpline
70
0
71
3
72
8
73
4
74
0
42
0.000000001
43
0.0000000001
44
0.0000000001
40
-0.266769189468262
40
-0.266769189468262
40
-0.266769189468262
40
-0.266769189468262
40
0
40
0
40
0
40
0
10
-14150.541640629001
20
-4596.9905639593899
30
0
10
-14150.869738313502
20
-4597.1224101651796
30
0
10
-14151.132714761099
20
-4597.3336441828496
30
0
10
-14151.8061452862
20
-4598.0062637383999
30
0
0
SPLINE
5
245
100
AcDbEntity
8
0
100
AcDbSpline
70
0
71
3
72
8
73
4
74
0
42
0.000000001
43
0.0000000001
44
0.0000000001
40
-0.081262359901676795
40
-0.081262359901676795
40
-0.081262359901676795
40
-0.081262359901676795
40
0
40
0
40
0
40
0
10
-14148.186940482001
20
-4596.8614077521397
30
0
10
-14150.249697072402
20
-4596.8887779739198
30
0
10
-14150.294448244002
20
-4596.8912321013413
30
0
10
-14150.541640629001
20
-4596.9905639593899
30
0
0
SPLINE
5
246
100
AcDbEntity
8
0
100
AcDbSpline
70
0
71
3
72
8
73
4
74
0
42
0.000000001
43
0.0000000001
44
0.0000000001
40
-0.20824303508026001
40
-0.20824303508026001
40
-0.20824303508026001
40
-0.20824303508026001
40
0
40
0
40
0
40
0
10
-14145.470931778
20
-4596.7853214514507
30
0
10
-14145.808242536401
20
-4596.8118237551298
30
0
10
-14147.0304464532
20
-4596.8460624398504
30
0
10
-14148.186940482001
20
-4596.8614077521397
30
0
0
SPLINE
5
247
100
AcDbEntity
8
0
100
AcDbSpline
70
0
71
3
72
8
73
4
74
0
42
0.000000001
43
0.0000000001
44
0.0000000001
40
-0.25530826053022598
40
-0.25530826053022598
40
-0.25530826053022598
40
-0.25530826053022598
40
0
40
0
40
0
40
0
10
-14142.908246146
20
-4596.602529821901
30
0
10
-14144.078949938103
20
-4596.6815601993703
30
0
10
-14144.853121935203
20
-4596.7367808727004
30
0
10
-14145.470931778
20
-4596.7853214514507
30
0
0
SPLINE
5
248
100
AcDbEntity
8
0
100
AcDbSpline
70
0
71
3
72
8
73
4
74
0
42
0.000000001
43
0.0000000001
44
0.0000000001
40
-0.12404227593547799
40
-0.12404227593547799
40
-0.12404227593547799
40
-0.12404227593547799
40
0
40
0
40
0
40
0
10
-14141.550241794002
20
-4596.5049554295711
30
0
10
-14141.947786616402
20
-4596.5350372794001
30
0
10
-14142.558888574802
20
-4596.5789458586196
30
0
10
-14142.908246146
20
-4596.602529821901
30
0
0
SPLINE
5
249
100
AcDbEntity
8
0
100
AcDbSpline
70
0
71
3
72
8
73
4
74
0
42
0.000000001
43
0.0000000001
44
0.0000000001
40
-0.36028383591236701
40
-0.36028383591236701
40
-0.36028383591236701
40
-0.36028383591236701
40
0
40
0
40
0
40
0
10
-14134.519283778
20
-4596.5544440103404
30
0
10
-14139.308877514402
20
-4596.4419930362601
30
0
10
-14140.598228723002
20
-4596.4329176793599
30
0
10
-14141.550241794002
20
-4596.5049554295711
30
0
0
SPLINE
5
250
100
AcDbEntity
8
0
100
AcDbSpline
70
0
71
3
72
26
73
22
74
0
42
0.000000001
43
0.0000000001
44
0.0000000001
40
-4.8536529318269004
40
-4.8536529318269004
40
-4.8536529318269004
40
-4.8536529318269004
40
-4.1570526264465064
40
-4.1570526264465064
40
-4.1570526264465064
40
-3.1914498905754876
40
-3.1914498905754876
40
-3.1914498905754876
40
-2.590930132813237
40
-2.590930132813237
40
-2.590930132813237
40
-2.0977421866668848
40
-2.0977421866668848
40
-2.0977421866668848
40
-1.0488710933334424
40
-1.0488710933334424
40
-1.0488710933334424
40
-0.30363425326807336
40
-0.30363425326807336
40
-0.30363425326807336
40
0
40
0
40
0
40
0
10
-14111.148466946001
20
-4596.7998344384796
30
0
10
-14113.558216564596
20
-4596.8048916066791
30
0
10
-14115.104076520431
20
-4596.8086542424953
30
0
10
-14116.353353727116
20
-4596.8109097213182
30
0
10
-14118.085057660228
20
-4596.814036186388
30
0
10
-14119.223057654919
20
-4596.8147014172528
30
0
10
-14120.318080391582
20
-4596.8120777125559
30
0
10
-14120.999087977971
20
-4596.8104459995848
30
0
10
-14121.648257830455
20
-4596.8075285568657
30
0
10
-14122.350566230198
20
-4596.8017250813882
30
0
10
-14122.927349979198
20
-4596.7969588699289
30
0
10
-14123.54523724239
20
-4596.7898223345546
30
0
10
-14124.10318991563
20
-4596.7817280611516
30
0
10
-14125.289797242474
20
-4596.7645138338785
30
0
10
-14126.363360175908
20
-4596.7429354173546
30
0
10
-14127.825152496054
20
-4596.7105456888512
30
0
10
-14128.863775351067
20
-4596.6875323566383
30
0
10
-14130.084307860652
20
-4596.6590063996664
30
0
10
-14131.912520611169
20
-4596.6158691426181
30
0
10
-14132.657395238235
20
-4596.5982935906222
30
0
10
-14133.507448436991
20
-4596.5782000849422
30
0
10
-14134.519283778
20
-4596.5544440103404
30
0
0
SPLINE
5
251
100
AcDbEntity
8
0
100
AcDbSpline
70
0
71
3
72
8
73
4
74
0
42
0.000000001
43
0.0000000001
44
0.0000000001
40
-1.9946758491913901
40
-1.9946758491913901
40
-1.9946758491913901
40
-1.9946758491913901
40
0
40
0
40
0
40
0
10
-14083.156999237701
20
-4596.5522268492095
30
0
10
-14083.571614941402
20
-4596.6873328130296
30
0
10
-14091.668017722603
20
-4596.7589522102899
30
0
10
-14111.148466946001
20
-4596.7998344384796
30
0
0
SPLINE
5
252
100
AcDbEntity
8
0
100
AcDbSpline
70
0
71
3
72
8
73
4
74
0
42
0.000000001
43
0.0000000001
44
0.0000000001
40
-0.17037579606426001
40
-0.17037579606426001
40
-0.17037579606426001
40
-0.17037579606426001
40
0
40
0
40
0
40
0
10
-14081.33808109
20
-4595.2017739322901
30
0
10
-14082.007870192201
20
-4595.8426787472899
30
0
10
-14082.812241358602
20
-4596.4398811478404
30
0
10
-14083.156999237701
20
-4596.5522268492095
30
0
0
SPLINE
5
253
100
AcDbEntity
8
0
100
AcDbSpline
70
0
71
3
72
10
73
6
74
0
42
0.000000001
43
0.0000000001
44
0.0000000001
40
0
40
0
40
0
40
0
40
0.09757224621429017
40
0.09757224621429017
40
0.18021595850755434
40
0.18021595850755434
40
0.18021595850755434
40
0.18021595850755434
10
-14079.8631131374
20
-4594.126436406521
30
0
10
-14080.143120369921
20
-4594.2918980068844
30
0
10
-14080.424652631225
20
-4594.4755977266841
30
0
10
-14080.908127573875
20
-4594.8280791136176
30
0
10
-14081.141900714469
20
-4595.0140547115216
30
0
10
-14081.33808109
20
-4595.2017739322901
30
0
0
LINE
5
254
100
AcDbEntity
8
0
100
AcDbLine
10
-14079.8631131374
20
-4594.126436406521
30
0
11
-14079.458901499302
21
-4593.8875753509201
31
0
0
LINE
5
255
100
AcDbEntity
8
0
100
AcDbLine
10
-14079.458901499302
20
-4593.8875753509201
30
0
11
-14074.690937267802
21
-4593.8875753509201
31
0
0
LINE
5
256
100
AcDbEntity
8
0
100
AcDbLine
10
-14074.690937267802
20
-4593.8875753509201
30
0
11
-14074.4442787757
21
-4593.7371844457803
31
0
0
SPLINE
5
257
100
AcDbEntity
8
0
100
AcDbSpline
70
0
71
3
72
8
73
4
74
0
42
0.000000001
43
0.0000000001
44
0.0000000001
40
-0.047625338041566802
40
-0.047625338041566802
40
-0.047625338041566802
40
-0.047625338041566802
40
0
40
0
40
0
40
0
10
-14074.022380226001
20
-4593.4043058193201
30
0
10
-14074.118834732055
20
-4593.5047574329919
30
0
10
-14074.30873096783
20
-4593.6545484242861
30
0
10
-14074.4442787757
20
-4593.7371844457803
30
0
0
SPLINE
5
258
100
AcDbEntity
8
0
100
AcDbSpline
70
0
71
3
72
8
73
4
74
0
42
0.000000001
43
0.0000000001
44
0.0000000001
40
-0.13969828360120701
40
-0.13969828360120701
40
-0.13969828360120701
40
-0.13969828360120701
40
0
40
0
40
0
40
0
10
-14072.971022018
20
-4592.6090100097499
30
0
10
-14073.23763373755
20
-4592.7242356052011
30
0
10
-14073.699859978644
20
-4593.068417733889
30
0
10
-14074.022380226001
20
-4593.4043058193201
30
0
0
SPLINE
5
259
100
AcDbEntity
8
0
100
AcDbSpline
70
0
71
3
72
8
73
4
74
0
42
0.000000001
43
0.0000000001
44
0.0000000001
40
-0.15491880364316099
40
-0.15491880364316099
40
-0.15491880364316099
40
-0.15491880364316099
40
0
40
0
40
0
40
0
10
-14071.794527542101
20
-4592.4054446097998
30
0
10
-14072.401947008802
20
-4592.3873320898601
30
0
10
-14072.495569909701
20
-4592.4035323151602
30
0
10
-14072.971022018
20
-4592.6090100097499
30
0
0
SPLINE
5
260
100
AcDbEntity
8
0
100
AcDbSpline
70
0
71
3
72
8
73
4
74
0
42
0.000000001
43
0.0000000001
44
0.0000000001
40
-0.160940011509035
40
-0.160940011509035
40
-0.160940011509035
40
-0.160940011509035
40
0
40
0
40
0
40
0
10
-14070.934015490002
20
-4592.5585442681804
30
0
10
-14071.198798959602
20
-4592.4321410314396
30
0
10
-14071.259115160901
20
-4592.4214099222609
30
0
10
-14071.794527542101
20
-4592.4054446097998
30
0
0
SPLINE
5
261
100
AcDbEntity
8
0
100
AcDbSpline
70
0
71
3
72
8
73
4
74
0
42
0.000000001
43
0.0000000001
44
0.0000000001
40
-0.119813361536708
40
-0.119813361536708
40
-0.119813361536708
40
-0.119813361536708
40
0
40
0
40
0
40
0
10
-14069.752496945603
20
-4593.44352791457
30
0
10
-14070.295356447401
20
-4592.9420188239201
30
0
10
-14070.584698987503
20
-4592.725302958841
30
0
10
-14070.934015490002
20
-4592.5585442681804
30
0
0
LINE
5
262
100
AcDbEntity
8
0
100
AcDbLine
10
-14069.752496945603
20
-4593.44352791457
30
0
11
-14069.335074882001
21
-4593.8291416009597
31
0
0
LINE
5
263
100
AcDbEntity
8
0
100
AcDbLine
10
-14069.335074882001
20
-4593.8291416009597
30
0
11
-14068.261813378002
21
-4593.881491710461
31
0
0
SPLINE
5
264
100
AcDbEntity
8
0
100
AcDbSpline
70
0
71
3
72
10
73
6
74
0
42
0.000000001
43
0.0000000001
44
0.0000000001
40
0
40
0
40
0
40
0
40
0.11371576674562638
40
0.11371576674562638
40
0.22459214681130762
40
0.22459214681130762
40
0.22459214681130762
40
0.22459214681130762
10
-14065.852450818002
20
-4593.9985267705997
30
0
10
-14066.231059931089
20
-4593.9801970254148
30
0
10
-14066.670246264473
20
-4593.9588890805626
30
0
10
-14067.434366235657
20
-4593.9217761457203
30
0
10
-14067.905407085329
20
-4593.8988759398408
30
0
10
-14068.261813378002
20
-4593.881491710461
30
0
0
SPLINE
5
265
100
AcDbEntity
8
0
100
AcDbSpline
70
0
71
3
72
8
73
4
74
0
42
0.000000001
43
0.0000000001
44
0.0000000001
40
-0.54368508889867195
40
-0.54368508889867195
40
-0.54368508889867195
40
-0.54368508889867195
40
0
40
0
40
0
40
0
10
-14063.3022500648
20
-4594.6160691194
30
0
10
-14063.837755893892
20
-4594.1368141961966
30
0
10
-14064.042287312934
20
-4594.0861626028654
30
0
10
-14065.852450818002
20
-4593.9985267705997
30
0
0
SPLINE
5
266
100
AcDbEntity
8
0
100
AcDbSpline
70
0
71
3
72
10
73
6
74
0
42
0.000000001
43
0.0000000001
44
0.0000000001
40
0
40
0
40
0
40
0
40
0.015468310199726191
40
0.015468310199726191
40
0.067478739501752705
40
0.067478739501752705
40
0.067478739501752705
40
0.067478739501752705
10
-14062.917409154001
20
-4594.9310188029103
30
0
10
-14062.961116073509
20
-4594.9036647280009
30
0
10
-14063.053751439227
20
-4594.8281381657971
30
0
10
-14063.149337500863
20
-4594.7499116227355
30
0
10
-14063.230064340361
20
-4594.6806770069206
30
0
10
-14063.3022500648
20
-4594.6160691194
30
0
0
SPLINE
5
267
100
AcDbEntity
8
0
100
AcDbSpline
70
0
71
3
72
10
73
6
74
0
42
0.000000001
43
0.0000000001
44
0.0000000001
40
0
40
0
40
0
40
0
40
0.040019744927649946
40
0.040019744927649946
40
0.051511228269110601
40
0.051511228269110601
40
0.051511228269110601
40
0.051511228269110601
10
-14062.398834931701
20
-4595.3306511463197
30
0
10
-14062.502523655679
20
-4595.2467227144534
30
0
10
-14062.617114302448
20
-4595.1558941028097
30
0
10
-14062.749357076784
20
-4595.0539830239386
30
0
10
-14062.873700109403
20
-4594.9583742078103
30
0
10
-14062.917409154001
20
-4594.9310188029103
30
0
0
SPLINE
5
268
100
AcDbEntity
8
0
100
AcDbSpline
70
0
71
3
72
8
73
4
74
0
42
0.000000001
43
0.0000000001
44
0.0000000001
40
-0.086318508927487797
40
-0.086318508927487797
40
-0.086318508927487797
40
-0.086318508927487797
40
0
40
0
40
0
40
0
10
-14061.676026163699
20
-4595.9123831119996
30
0
10
-14061.848583067502
20
-4595.7745307486603
30
0
10
-14062.1738470131
20
-4595.5127513161806
30
0
10
-14062.398834931701
20
-4595.3306511463197
30
0
0
SPLINE
5
269
100
AcDbEntity
8
0
100
AcDbSpline
70
0
71
3
72
8
73
4
74
0
42
0.000000001
43
0.0000000001
44
0.0000000001
40
-0.064605895420958903
40
-0.064605895420958903
40
-0.064605895420958903
40
-0.064605895420958903
40
0
40
0
40
0
40
0
10
-14060.880402626
20
-4596.4120408265608
30
0
10
-14061.145432507601
20
-4596.2750814332212
30
0
10
-14061.503455570301
20
-4596.0502354753498
30
0
10
-14061.676026163699
20
-4595.9123831119996
30
0
0
LINE
5
270
100
AcDbEntity
8
0
100
AcDbLine
10
-14060.880402626
20
-4596.4120408265608
30
0
11
-14060.398530114
21
-4596.6610577560396
31
0
0
LINE
5
271
100
AcDbEntity
8
0
100
AcDbLine
10
-14060.398530114
20
-4596.6610577560396
30
0
11
-14059.522398274003
21
-4596.6970671853496
31
0
0
SPLINE
5
272
100
AcDbEntity
8
0
100
AcDbSpline
70
0
71
3
72
10
73
6
74
0
42
0.000000001
43
0.0000000001
44
0.0000000001
40
0
40
0
40
0
40
0
40
0.060240177348448075
40
0.060240177348448075
40
0.13271400677396869
40
0.13271400677396869
40
0.13271400677396869
40
0.13271400677396869
10
-14058.032974145999
20
-4596.77288681341
30
0
10
-14058.233353021555
20
-4596.7598797521832
30
0
10
-14058.51025886579
20
-4596.7450469665364
30
0
10
-14058.979986475802
20
-4596.7211353280054
30
0
10
-14059.269760083131
20
-4596.7074507585421
30
0
10
-14059.522398274003
20
-4596.6970671853496
30
0
0
SPLINE
5
273
100
AcDbEntity
8
0
100
AcDbSpline
70
0
71
3
72
8
73
4
74
0
42
0.000000001
43
0.0000000001
44
0.0000000001
40
-0.25565737503323199
40
-0.25565737503323199
40
-0.25565737503323199
40
-0.25565737503323199
40
0
40
0
40
0
40
0
10
-14049.4193113402
20
-4596.7891543913502
30
0
10
-14054.030187870701
20
-4596.8027227987504
30
0
10
-14057.679509706802
20
-4596.7958307897597
30
0
10
-14058.032974145999
20
-4596.77288681341
30
0
0
LINE
5
274
100
AcDbEntity
8
0
100
AcDbLine
10
-14049.4193113402
20
-4596.7891543913502
30
0
11
-14041.4189271328
21
-4596.76561190744
31
0
0
LINE
5
275
100
AcDbEntity
8
0
100
AcDbLine
10
-14041.4189271328
20
-4596.76561190744
30
0
11
-14041.139865452202
21
-4596.8984099483396
31
0
0
SPLINE
5
276
100
AcDbEntity
8
0
100
AcDbSpline
70
0
71
3
72
8
73
4
74
0
42
0.000000001
43
0.0000000001
44
0.0000000001
40
-0.095264889823002505
40
-0.095264889823002505
40
-0.095264889823002505
40
-0.095264889823002505
40
0
40
0
40
0
40
0
10
-14039.7765221718
20
-4597.983491839821
30
0
10
-14040.554486176999
20
-4597.2736778866501
30
0
10
-14040.856669524501
20
-4597.0331701138712
30
0
10
-14041.139865452202
20
-4596.8984099483396
30
0
0
SPLINE
5
277
100
AcDbEntity
8
0
100
AcDbSpline
70
0
71
3
72
8
73
4
74
0
42
0.000000001
43
0.0000000001
44
0.0000000001
40
-0.28366809257800502
40
-0.28366809257800502
40
-0.28366809257800502
40
-0.28366809257800502
40
0
40
0
40
0
40
0
10
-14038.256885184901
20
-4599.2116229254098
30
0
10
-14038.4169024517
20
-4599.1867019028005
30
0
10
-14038.774774929199
20
-4598.8974787356101
30
0
10
-14039.7765221718
20
-4597.983491839821
30
0
0
SPLINE
5
278
100
AcDbEntity
8
0
100
AcDbSpline
70
0
71
3
72
8
73
4
74
0
42
0.000000001
43
0.0000000001
44
0.0000000001
40
-0.025145564012765399
40
-0.025145564012765399
40
-0.025145564012765399
40
-0.025145564012765399
40
0
40
0
40
0
40
0
10
-14037.991458306002
20
-4599.2606616672401
30
0
10
-14038.05169237
20
-4599.2470442512204
30
0
10
-14038.171133780999
20
-4599.2249770911903
30
0
10
-14038.256885184901
20
-4599.2116229254098
30
0
0
SPLINE
5
279
100
AcDbEntity
8
0
100
AcDbSpline
70
0
71
3
72
8
73
4
74
0
42
0.000000001
43
0.0000000001
44
0.0000000001
40
-0.084473697773375794
40
-0.084473697773375794
40
-0.084473697773375794
40
-0.084473697773375794
40
0
40
0
40
0
40
0
10
-14036.1476662279
20
-4599.3586449667309
30
0
10
-14036.778330567502
20
-4599.3532078841899
30
0
10
-14037.8291001244
20
-4599.29736721068
30
0
10
-14037.991458306002
20
-4599.2606616672401
30
0
0
LINE
5
280
100
AcDbEntity
8
0
100
AcDbLine
10
-14036.1476662279
20
-4599.3586449667309
30
0
11
-14035.596182303299
21
-4599.3633993509211
31
0
0
LINE
5
281
100
AcDbEntity
8
0
100
AcDbLine
10
-14035.596182303299
20
-4599.3633993509211
30
0
11
-14035.566544405901
21
-4598.1477664229196
31
0
0
SPLINE
5
282
100
AcDbEntity
8
0
100
AcDbSpline
70
0
71
3
72
8
73
4
74
0
42
0.000000001
43
0.0000000001
44
0.0000000001
40
-0.25409004858283002
40
-0.25409004858283002
40
-0.25409004858283002
40
-0.25409004858283002
40
0
40
0
40
0
40
0
10
-14035.403036301203
20
-4595.9947633248003
30
0
10
-14035.491730960503
20
-4596.2907918460596
30
0
10
-14035.535236382202
20
-4596.8638002765401
30
0
10
-14035.566544405901
20
-4598.1477664229196
30
0
0
SPLINE
5
283
100
AcDbEntity
8
0
100
AcDbSpline
70
0
71
3
72
8
73
4
74
0
42
0.000000001
43
0.0000000001
44
0.0000000001
40
-0.104860750712391
40
-0.104860750712391
40
-0.104860750712391
40
-0.104860750712391
40
0
40
0
40
0
40
0
10
-14034.5569941141
20
-4595.1192284865101
30
0
10
-14034.953046774501
20
-4595.34547926702
30
0
10
-14035.323308303799
20
-4595.7286496407305
30
0
10
-14035.403036301203
20
-4595.9947633248003
30
0
0
LINE
5
284
100
AcDbEntity
8
0
100
AcDbLine
10
-14034.5569941141
20
-4595.1192284865101
30
0
11
-14034.220805899602
21
-4594.9271673821004
31
0
0
LINE
5
285
100
AcDbEntity
8
0
100
AcDbLine
10
-14034.220805899602
20
-4594.9271673821004
30
0
11
-14033.817237670801
21
-4594.9521423415699
31
0
0
ELLIPSE
5
286
100
AcDbEntity
8
0
100
AcDbEllipse
10
-14046.540758213549
20
-4608.1544406978792
30
0
11
-14.024157635255975
21
-12.671099227658335
31
0.0
40
0.26604351937748938
41
2.9830645380247636
42
3.3961228124496765
0
ELLIPSE
5
287
100
AcDbEntity
8
0
100
AcDbEllipse
10
-14031.935386825906
20
-4603.6321978281921
30
0
11
-0.24524000350421199
21
7.4570729231706032
31
0.0
40
0.020133657726685437
41
5.4690824065338708
42
6.159778482298397
0
SPLINE
5
288
100
AcDbEntity
8
0
100
AcDbSpline
70
0
71
3
72
8
73
4
74
0
42
0.000000001
43
0.0000000001
44
0.0000000001
40
-0.056957224084782397
40
-0.056957224084782397
40
-0.056957224084782397
40
-0.056957224084782397
40
0
40
0
40
0
40
0
10
-14031.928311113399
20
-4599.1979330916201
30
0
10
-14031.947243774803
20
-4599.1564245660502
30
0
10
-14031.977073326099
20
-4598.8464815653197
30
0
10
-14031.994582273301
20
-4598.5091708069203
30
0
0
SPLINE
5
289
100
AcDbEntity
8
0
100
AcDbSpline
70
0
71
3
72
8
73
4
74
0
42
0.000000001
43
0.0000000001
44
0.0000000001
40
-0.047981189016728501
40
-0.047981189016728501
40
-0.047981189016728501
40
-0.047981189016728501
40
0
40
0
40
0
40
0
10
-14030.627173193599
20
-4599.3097417515401
30
0
10
-14031.692385236302
20
-4599.3285127393201
30
0
10
-14031.8759348568
20
-4599.3127393545001
30
0
10
-14031.928311113399
20
-4599.1979330916201
30
0
0
SPLINE
5
290
100
AcDbEntity
8
0
100
AcDbSpline
70
0
71
3
72
8
73
4
74
0
42
0.000000001
43
0.0000000001
44
0.0000000001
40
-0.43186222590337198
40
-0.43186222590337198
40
-0.43186222590337198
40
-0.43186222590337198
40
0
40
0
40
0
40
0
10
-14028.0476220237
20
-4598.2077019176204
30
0
10
-14029.153478370001
20
-4599.2690285894196
30
0
10
-14029.189468223301
20
-4599.2844068935401
30
0
10
-14030.627173193599
20
-4599.3097417515401
30
0
0
SPLINE
5
291
100
AcDbEntity
8
0
100
AcDbSpline
70
0
71
3
72
8
73
4
74
0
42
0.000000001
43
0.0000000001
44
0.0000000001
40
-0.45202785470811702
40
-0.45202785470811702
40
-0.45202785470811702
40
-0.45202785470811702
40
0
40
0
40
0
40
0
10
-14026.309992483302
20
-4596.8617580679802
30
0
10
-14026.7546978399
20
-4597.0047653720403
30
0
10
-14026.959630553101
20
-4597.1635062243004
30
0
10
-14028.0476220237
20
-4598.2077019176204
30
0
0
LINE
5
292
100
AcDbEntity
8
0
100
AcDbLine
10
-14026.309992483302
20
-4596.8617580679802
30
0
11
-14025.930846429601
21
-4596.7398325494196
31
0
0
LINE
5
293
100
AcDbEntity
8
0
100
AcDbLine
10
-14025.930846429601
20
-4596.7398325494196
30
0
11
-14010.7916195217
21
-4596.6929122669999
31
0
0
SPLINE
5
294
100
AcDbEntity
8
0
100
AcDbSpline
70
0
71
3
72
8
73
4
74
0
42
0.000000001
43
0.0000000001
44
0.0000000001
40
-2.7522082551624898
40
-2.7522082551624898
40
-2.7522082551624898
40
-2.7522082551624898
40
0
40
0
40
0
40
0
10
-13980.889606702702
20
-4596.6032674154012
30
0
10
-13989.0091585299
20
-4596.6267877222199
30
0
10
-14002.4650829163
20
-4596.6671457771699
30
0
10
-14010.7916195217
20
-4596.6929122669999
30
0
0
SPLINE
5
295
100
AcDbEntity
8
0
100
AcDbSpline
70
0
71
3
72
8
73
4
74
0
42
0.000000001
43
0.0000000001
44
0.0000000001
40
-1.57776808659963
40
-1.57776808659963
40
-1.57776808659963
40
-1.57776808659963
40
0
40
0
40
0
40
0
10
-13962.644161134702
20
-4596.5099771708701
30
0
10
-13964.559604369901
20
-4596.5377664300813
30
0
10
-13972.7700548755
20
-4596.5797469716699
30
0
10
-13980.889606702702
20
-4596.6032674154012
30
0
0
LINE
5
296
100
AcDbEntity
8
0
100
AcDbLine
10
-13962.644161134702
20
-4596.5099771708701
30
0
11
-13959.161537070702
21
-4596.4594510583402
31
0
0
LINE
5
297
100
AcDbEntity
8
0
100
AcDbLine
10
-13959.161537070702
20
-4596.4594510583402
30
0
11
-13958.8986975187
21
-4596.3041987166507
31
0
0
SPLINE
5
298
100
AcDbEntity
8
0
100
AcDbSpline
70
0
71
3
72
8
73
4
74
0
42
0.000000001
43
0.0000000001
44
0.0000000001
40
-0.113222897495155
40
-0.113222897495155
40
-0.113222897495155
40
-0.113222897495155
40
0
40
0
40
0
40
0
10
-13957.015014062699
20
-4594.85855421222
30
0
10
-13957.636291471101
20
-4595.3934132613613
30
0
10
-13958.570293188102
20
-4596.1102186097196
30
0
10
-13958.8986975187
20
-4596.3041987166507
30
0
0
SPLINE
5
299
100
AcDbEntity
8
0
100
AcDbSpline
70
0
71
3
72
8
73
4
74
0
42
0.000000001
43
0.0000000001
44
0.0000000001
40
-0.120384594953337
40
-0.120384594953337
40
-0.120384594953337
40
-0.120384594953337
40
0
40
0
40
0
40
0
10
-13955.842614134201
20
-4594.0400541877607
30
0
10
-13956.048962347902
20
-4594.1345237878804
30
0
10
-13956.710331001599
20
-4594.5962514278599
30
0
10
-13957.015014062699
20
-4594.85855421222
30
0
0
SPLINE
5
300
100
AcDbEntity
8
0
100
AcDbSpline
70
0
71
3
72
8
73
4
74
0
42
0.000000001
43
0.0000000001
44
0.0000000001
40
-0.044359539635264303
40
-0.044359539635264303
40
-0.044359539635264303
40
-0.044359539635264303
40
0
40
0
40
0
40
0
10
-13955.3430410211
20
-4593.8866938801502
30
0
10
-13955.4835753061
20
-4593.9095892585701
30
0
10
-13955.708383891502
20
-4593.9786014791198
30
0
10
-13955.842614134201
20
-4594.0400541877607
30
0
0
SPLINE
5
301
100
AcDbEntity
8
0
100
AcDbSpline
70
0
71
3
72
10
73
6
74
0
42
0.000000001
43
0.0000000001
44
0.0000000001
40
0
40
0
40
0
40
0
40
0.26829097873735075
40
0.26829097873735075
40
0.36139501451742018
40
0.36139501451742018
40
0.36139501451742018
40
0.36139501451742018
10
-13951.257944897307
20
-4593.7259733806104
30
0
10
-13952.151930214875
20
-4593.749818237804
30
0
10
-13953.174117265717
20
-4593.7806958510337
30
0
10
-13954.330215414357
20
-4593.8261803795749
30
0
10
-13955.185168239221
20
-4593.8609736685785
30
0
10
-13955.3430410211
20
-4593.8866938801502
30
0
0
LINE
5
302
100
AcDbEntity
8
0
100
AcDbLine
10
-13951.257944897307
20
-4593.7259733806104
30
0
11
-13950.582439034901
21
-4593.7079560031198
31
0
0
LINE
5
303
100
AcDbEntity
8
0
100
AcDbLine
10
-13950.582439034901
20
-4593.7079560031198
30
0
11
-13950.084579854802
21
-4593.2293420170799
31
0
0
SPLINE
5
304
100
AcDbEntity
8
0
100
AcDbSpline
70
0
71
3
72
8
73
4
74
0
42
0.000000001
43
0.0000000001
44
0.0000000001
40
-0.113418527131479
40
-0.113418527131479
40
-0.113418527131479
40
-0.113418527131479
40
0
40
0
40
0
40
0
10
-13949.284059561502
20
-4592.5709204517998
30
0
10
-13949.4545767209
20
-4592.6722230589003
30
0
10
-13949.804088984101
20
-4592.9596938255199
30
0
10
-13950.084579854802
20
-4593.2293420170799
30
0
0
SPLINE
5
305
100
AcDbEntity
8
0
100
AcDbSpline
70
0
71
3
72
8
73
4
74
0
42
0.000000001
43
0.0000000001
44
0.0000000001
40
-0.21434007758493401
40
-0.21434007758493401
40
-0.21434007758493401
40
-0.21434007758493401
40
0
40
0
40
0
40
0
10
-13947.3613499079
20
-4592.1959605285901
30
0
10
-13947.990264185704
20
-4592.0343817930225
30
0
10
-13948.66981319072
20
-4592.2060034979531
30
0
10
-13949.284059561502
20
-4592.5709204517998
30
0
0
SPLINE
5
306
100
AcDbEntity
8
0
100
AcDbSpline
70
0
71
3
72
8
73
4
74
0
42
0.000000001
43
0.0000000001
44
0.0000000001
40
-0.17421663649987801
40
-0.17421663649987801
40
-0.17421663649987801
40
-0.17421663649987801
40
0
40
0
40
0
40
0
10
-13945.831689425102
20
-4593.1944852487213
30
0
10
-13946.551871166503
20
-4592.5016210242702
30
0
10
-13946.798655602601
20
-4592.3405262521601
30
0
10
-13947.3613499079
20
-4592.1959605285901
30
0
0
SPLINE
5
307
100
AcDbEntity
8
0
100
AcDbSpline
70
0
71
3
72
8
73
4
74
0
42
0.000000001
43
0.0000000001
44
0.0000000001
40
-0.107161763431014
40
-0.107161763431014
40
-0.107161763431014
40
-0.107161763431014
40
0
40
0
40
0
40
0
10
-13945.186066503302
20
-4593.7123884088496
30
0
10
-13945.263522033702
20
-4593.7123884088496
30
0
10
-13945.443093468102
20
-4593.5683408351297
30
0
10
-13945.831689425102
20
-4593.1944852487213
30
0
0
SPLINE
5
308
100
AcDbEntity
8
0
100
AcDbSpline
70
0
71
3
72
8
73
4
74
0
42
0.000000001
43
0.0000000001
44
0.0000000001
40
-0.065909017870089806
40
-0.065909017870089806
40
-0.065909017870089806
40
-0.065909017870089806
40
0
40
0
40
0
40
0
10
-13944.103545380902
20
-4593.7550342630602
30
0
10
-13944.639916031201
20
-4593.7315791185401
30
0
10
-13945.127050810101
20
-4593.7123884088496
30
0
10
-13945.186066503302
20
-4593.7123884088496
30
0
0
SPLINE
5
309
100
AcDbEntity
8
0
100
AcDbSpline
70
0
71
3
72
8
73
4
74
0
42
0.000000001
43
0.0000000001
44
0.0000000001
40
-0.20526939815891501
40
-0.20526939815891501
40
-0.20526939815891501
40
-0.20526939815891501
40
0
40
0
40
0
40
0
10
-13941.814126638701
20
-4593.8447789115507
30
0
10
-13942.536935406701
20
-4593.8188745678499
30
0
10
-13943.5671733616
20
-4593.7784895444802
30
0
10
-13944.103545380902
20
-4593.7550342630602
30
0
0
SPLINE
5
310
100
AcDbEntity
8
0
100
AcDbSpline
70
0
71
3
72
11
73
7
74
0
42
0.000000001
43
0.0000000001
44
0.0000000001
40
-0.585367811910254
40
-0.585367811910254
40
-0.585367811910254
40
-0.585367811910254
40
-0.292683905955127
40
-0.292683905955127
40
-0.292683905955127
40
0
40
0
40
0
40
0
10
-13938.662468222101
20
-4594.9608762808502
30
0
10
-13939.287030093847
20
-4594.429297210344
30
0
10
-13939.587363334411
20
-4594.1678353660664
30
0
10
-13939.975413447468
20
-4594.0304269635799
30
0
10
-13940.363463560527
20
-4593.8930185610925
30
0
10
-13940.839139552387
20
-4593.879720948351
30
0
10
-13941.814126638701
20
-4593.8447789115507
30
0
0
SPLINE
5
311
100
AcDbEntity
8
0
100
AcDbSpline
70
0
71
3
72
10
73
6
74
0
42
0.000000001
43
0.0000000001
44
0.0000000001
40
0
40
0
40
0
40
0
40
0.044197267401916013
40
0.044197267401916013
40
0.099079542141256666
40
0.099079542141256666
40
0.099079542141256666
40
0.099079542141256666
10
-13937.795846519402
20
-4595.6732245822704
30
0
10
-13937.91204756793
20
-4595.5826611045486
30
0
10
-13938.074051701149
20
-4595.45073143226
30
0
10
-13938.346543526286
20
-4595.2267478020121
30
0
10
-13938.515516785666
20
-4595.0859504052241
30
0
10
-13938.662468222101
20
-4594.9608762808502
30
0
0
SPLINE
5
312
100
AcDbEntity
8
0
100
AcDbSpline
70
0
71
3
72
10
73
6
74
0
42
0.000000001
43
0.0000000001
44
0.0000000001
40
0
40
0
40
0
40
0
40
0.017655198396938757
40
0.017655198396938757
40
0.036411717550465017
40
0.036411717550465017
40
0.036411717550465017
40
0.036411717550465017
10
-13937.2914533122
20
-4596.0813700523504
30
0
10
-13937.335676889688
20
-4596.0425412546319
30
0
10
-13937.414904337
20
-4595.9771470813939
30
0
10
-13937.595577237473
20
-4595.8309499791476
30
0
10
-13937.70082472329
20
-4595.7472810865829
30
0
10
-13937.795846519402
20
-4595.6732245822704
30
0
0
SPLINE
5
313
100
AcDbEntity
8
0
100
AcDbSpline
70
0
71
3
72
8
73
4
74
0
42
0.000000001
43
0.0000000001
44
0.0000000001
40
-0.080112348997494004
40
-0.080112348997494004
40
-0.080112348997494004
40
-0.080112348997494004
40
0
40
0
40
0
40
0
10
-13936.5354323027
20
-4596.3445447247796
30
0
10
-13936.9802540206
20
-4596.29602331142
30
0
10
-13937.0908081692
20
-4596.2575392203398
30
0
10
-13937.2914533122
20
-4596.0813700523504
30
0
0
SPLINE
5
314
100
AcDbEntity
8
0
100
AcDbSpline
70
0
71
3
72
8
73
4
74
0
42
0.000000001
43
0.0000000001
44
0.0000000001
40
-0.382299699736039
40
-0.382299699736039
40
-0.382299699736039
40
-0.382299699736039
40
0
40
0
40
0
40
0
10
-13925.277138158701
20
-4596.4263724269304
30
0
10
-13927.9153135004
20
-4596.4767452163796
30
0
10
-13935.852335579302
20
-4596.4190571367499
30
0
10
-13936.5354323027
20
-4596.3445447247796
30
0
0
SPLINE
5
315
100
AcDbEntity
8
0
100
AcDbSpline
70
0
71
3
72
8
73
4
74
0
42
0.000000001
43
0.0000000001
44
0.0000000001
40
-0.53466583712501303
40
-0.53466583712501303
40
-0.53466583712501303
40
-0.53466583712501303
40
0
40
0
40
0
40
0
10
-13921.181221806701
20
-4596.4697635407801
30
0
10
-13922.720078935899
20
-4596.3867373176508
30
0
10
-13923.0295971496
20
-4596.3834583942398
30
0
10
-13925.277138158701
20
-4596.4263724269304
30
0
0
SPLINE
5
316
100
AcDbEntity
8
0
100
AcDbSpline
70
0
71
3
72
8
73
4
74
0
42
0.000000001
43
0.0000000001
44
0.0000000001
40
-0.234484883464433
40
-0.234484883464433
40
-0.234484883464433
40
-0.234484883464433
40
0
40
0
40
0
40
0
10
-13918.653652634002
20
-4596.5596968314103
30
0
10
-13919.1282573586
20
-4596.5596308477307
30
0
10
-13920.265664033901
20
-4596.5191609490903
30
0
10
-13921.181221806701
20
-4596.4697635407801
30
0
0
SPLINE
5
317
100
AcDbEntity
8
0
100
AcDbSpline
70
0
71
3
72
8
73
4
74
0
42
0.000000001
43
0.0000000001
44
0.0000000001
40
-0.242162320723109
40
-0.242162320723109
40
-0.242162320723109
40
-0.242162320723109
40
0
40
0
40
0
40
0
10
-13917.427068058001
20
-4596.67395386914
30
0
10
-13917.767304275401
20
-4596.5671699622199
30
0
10
-13917.846329998401
20
-4596.5598092227001
30
0
10
-13918.653652634002
20
-4596.5596968314103
30
0
0
SPLINE
5
318
100
AcDbEntity
8
0
100
AcDbSpline
70
0
71
3
72
8
73
4
74
0
42
0.000000001
43
0.0000000001
44
0.0000000001
40
-0.17262918638824601
40
-0.17262918638824601
40
-0.17262918638824601
40
-0.17262918638824601
40
0
40
0
40
0
40
0
10
-13915.259882028202
20
-4598.2702280246504
30
0
10
-13916.3904849921
20
-4597.2057982033903
30
0
10
-13916.879021581901
20
-4596.8459589467802
30
0
10
-13917.427068058001
20
-4596.67395386914
30
0
0
SPLINE
5
319
100
AcDbEntity
8
0
100
AcDbSpline
70
0
71
3
72
8
73
4
74
0
42
0.000000001
43
0.0000000001
44
0.0000000001
40
-0.40182424832587799
40
-0.40182424832587799
40
-0.40182424832587799
40
-0.40182424832587799
40
0
40
0
40
0
40
0
10
-13912.9268072792
20
-4599.2623420607297
30
0
10
-13914.194463273099
20
-4599.2266778821204
30
0
10
-13914.284755504003
20
-4599.1882819518196
30
0
10
-13915.259882028202
20
-4598.2702280246504
30
0
0
SPLINE
5
320
100
AcDbEntity
8
0
100
AcDbSpline
70
0
71
3
72
8
73
4
74
0
42
0.000000001
43
0.0000000001
44
0.0000000001
40
-0.081658714980291605
40
-0.081658714980291605
40
-0.081658714980291605
40
-0.081658714980291605
40
0
40
0
40
0
40
0
10
-13911.9181988291
20
-4599.2460412171604
30
0
10
-13912.001675028099
20
-4599.2683504086199
30
0
10
-13912.4536262688
20
-4599.2756537888799
30
0
10
-13912.9268072792
20
-4599.2623420607297
30
0
0
SPLINE
5
321
100
AcDbEntity
8
0
100
AcDbSpline
70
0
71
3
72
8
73
4
74
0
42
0.000000001
43
0.0000000001
44
0.0000000001
40
-0.044108198245284301
40
-0.044108198245284301
40
-0.044108198245284301
40
-0.044108198245284301
40
0
40
0
40
0
40
0
10
-13911.713576869002
20
-4598.9012214613103
30
0
10
-13911.765220734102
20
-4599.1957824617402
30
0
10
-13911.7718341605
20
-4599.2069257635812
30
0
10
-13911.9181988291
20
-4599.2460412171604
30
0
0
SPLINE
5
322
100
AcDbEntity
8
0
100
AcDbSpline
70
0
71
3
72
10
73
6
74
0
42
0.000000001
43
0.0000000001
44
0.0000000001
40
0
40
0
40
0
40
0
40
0.058002620182055556
40
0.058002620182055556
40
0.11448053390010646
40
0.11448053390010646
40
0.11448053390010646
40
0.11448053390010646
10
-13911.654932162901
20
-4597.8740147857498
30
0
10
-13911.656343575634
20
-4598.0673517012419
30
0
10
-13911.663419653716
20
-4598.2827088118584
30
0
10
-13911.684964766066
20
-4598.6600876967877
30
0
10
-13911.698900237252
20
-4598.8175078458162
30
0
10
-13911.713576869002
20
-4598.9012214613103
30
0
0
SPLINE
5
323
100
AcDbEntity
8
0
100
AcDbSpline
70
0
71
3
72
8
73
4
74
0
42
0.000000001
43
0.0000000001
44
0.0000000001
40
-0.183185873103555
40
-0.183185873103555
40
-0.183185873103555
40
-0.183185873103555
40
0
40
0
40
0
40
0
10
-13911.445945971
20
-4595.7052885434896
30
0
10
-13911.559343441202
20
-4595.9259146944796
30
0
10
-13911.647375525799
20
-4596.8394940520702
30
0
10
-13911.654932162901
20
-4597.8740147857498
30
0
0
SPLINE
5
324
100
AcDbEntity
8
0
100
AcDbSpline
70
0
71
3
72
8
73
4
74
0
42
0.000000001
43
0.0000000001
44
0.0000000001
40
-0.0869264583450267
40
-0.0869264583450267
40
-0.0869264583450267
40
-0.0869264583450267
40
0
40
0
40
0
40
0
10
-13910.569448619701
20
-4594.9258946637101
30
0
10
-13910.907550634702
20
-4595.0860501951001
30
0
10
-13911.312956002403
20
-4595.4465432650904
30
0
10
-13911.445945971
20
-4595.7052885434896
30
0
0
SPLINE
5
325
100
AcDbEntity
8
0
100
AcDbSpline
70
0
71
3
72
8
73
4
74
0
42
0.000000001
43
0.0000000001
44
0.0000000001
40
-0.091000607441540302
40
-0.091000607441540302
40
-0.091000607441540302
40
-0.091000607441540302
40
0
40
0
40
0
40
0
10
-13909.813411182702
20
-4594.7856499128502
30
0
10
-13910.2400627476
20
-4594.7856499128502
30
0
10
-13910.2948264634
20
-4594.7958085246401
30
0
10
-13910.569448619701
20
-4594.9258946637101
30
0
0
SPLINE
5
326
100
AcDbEntity
8
0
100
AcDbSpline
70
0
71
3
72
8
73
4
74
0
42
0.000000001
43
0.0000000001
44
0.0000000001
40
-0.123735946359035
40
-0.123735946359035
40
-0.123735946359035
40
-0.123735946359035
40
0
40
0
40
0
40
0
10
-13909.112415359599
20
-4594.90416125515
30
0
10
-13909.3279615887
20
-4594.7981785981701
30
0
10
-13909.4020672838
20
-4594.7856499128502
30
0
10
-13909.813411182702
20
-4594.7856499128502
30
0
0
SPLINE
5
327
100
AcDbEntity
8
0
100
AcDbSpline
70
0
71
3
72
8
73
4
74
0
42
0.000000001
43
0.0000000001
44
0.0000000001
40
-0.099737068768138301
40
-0.099737068768138301
40
-0.099737068768138301
40
-0.099737068768138301
40
0
40
0
40
0
40
0
10
-13908.411509887601
20
-4595.5524413205903
30
0
10
-13908.532232641401
20
-4595.3158067350296
30
0
10
-13908.823936630703
20
-4595.0460045359196
30
0
10
-13909.112415359599
20
-4594.90416125515
30
0
0
SPLINE
5
328
100
AcDbEntity
8
0
100
AcDbSpline
70
0
71
3
72
8
73
4
74
0
42
0.000000001
43
0.0000000001
44
0.0000000001
40
-0.13126361363296801
40
-0.13126361363296801
40
-0.13126361363296801
40
-0.13126361363296801
40
0
40
0
40
0
40
0
10
-13908.160418715999
20
-4597.5614852795497
30
0
10
-13908.184788870702
20
-4596.1663028205003
30
0
10
-13908.2128387792
20
-4595.94186932908
30
0
10
-13908.411509887601
20
-4595.5524413205903
30
0
0
LINE
5
329
100
AcDbEntity
8
0
100
AcDbLine
10
-13908.160418715999
20
-4597.5614852795497
30
0
11
-13908.137183425803
21
-4598.8917031102401
31
0
0
LINE
5
330
100
AcDbEntity
8
0
100
AcDbLine
10
-13908.137183425803
20
-4598.8917031102401
30
0
11
-13908.012163519103
21
-4599.03409356273
31
0
0
SPLINE
5
331
100
AcDbEntity
8
0
100
AcDbSpline
70
0
71
3
72
8
73
4
74
0
42
0.000000001
43
0.0000000001
44
0.0000000001
40
-0.083420854083446502
40
-0.083420854083446502
40
-0.083420854083446502
40
-0.083420854083446502
40
0
40
0
40
0
40
0
10
-13907.031692590699
20
-4599.29015130671
30
0
10
-13907.576070264702
20
-4599.2946874793097
30
0
10
-13907.845031788002
20
-4599.2244462100498
30
0
10
-13908.012163519103
20
-4599.03409356273
30
0
0
SPLINE
5
332
100
AcDbEntity
8
0
100
AcDbSpline
70
0
71
3
72
8
73
4
74
0
42
0.000000001
43
0.0000000001
44
0.0000000001
40
-0.156844058298752
40
-0.156844058298752
40
-0.156844058298752
40
-0.156844058298752
40
0
40
0
40
0
40
0
10
-13905.322816602202
20
-4599.0756977783203
30
0
10
-13905.532270977101
20
-4599.1632136295502
30
0
10
-13906.509074472302
20
-4599.2857966576703
30
0
10
-13907.031692590699
20
-4599.29015130671
30
0
0
SPLINE
5
333
100
AcDbEntity
8
0
100
AcDbSpline
70
0
71
3
72
8
73
4
74
0
42
0.000000001
43
0.0000000001
44
0.0000000001
40
-0.049049851450267898
40
-0.049049851450267898
40
-0.049049851450267898
40
-0.049049851450267898
40
0
40
0
40
0
40
0
10
-13903.792593478502
20
-4597.7609305326205
30
0
10
-13904.811626528501
20
-4598.7036749502104
30
0
10
-13905.170583219202
20
-4599.0120904698397
30
0
10
-13905.322816602202
20
-4599.0756977783203
30
0
0
SPLINE
5
334
100
AcDbEntity
8
0
100
AcDbSpline
70
0
71
3
72
8
73
4
74
0
42
0.000000001
43
0.0000000001
44
0.0000000001
40
-0.35587484950766801
40
-0.35587484950766801
40
-0.35587484950766801
40
-0.35587484950766801
40
0
40
0
40
0
40
0
10
-13901.894818810801
20
-4596.6913643884509
30
0
10
-13902.6199903012
20
-4596.7756671852994
30
0
10
-13902.921827636124
20
-4596.9553532737027
30
0
10
-13903.792593478502
20
-4597.7609305326205
30
0
0
SPLINE
5
335
100
AcDbEntity
8
0
100
AcDbSpline
70
0
71
3
72
8
73
4
74
0
42
0.000000001
43
0.0000000001
44
0.0000000001
40
-0.12516581481646599
40
-0.12516581481646599
40
-0.12516581481646599
40
-0.12516581481646599
40
0
40
0
40
0
40
0
10
-13896.8904665427
20
-4596.5813334547802
30
0
10
-13899.4323440435
20
-4596.6173775186799
30
0
10
-13901.6843025368
20
-4596.6668914251404
30
0
10
-13901.894818810801
20
-4596.6913643884509
30
0
0
SPLINE
5
336
100
AcDbEntity
8
0
100
AcDbSpline
70
0
71
3
72
8
73
4
74
0
42
0.000000001
43
0.0000000001
44
0.0000000001
40
-0.418072252469253
40
-0.418072252469253
40
-0.418072252469253
40
-0.418072252469253
40
0
40
0
40
0
40
0
10
-13891.915380911101
20
-4596.4749188921796
30
0
10
-13892.109800452999
20
-4596.4974027624203
30
0
10
-13894.348589041902
20
-4596.5452892539897
30
0
10
-13896.8904665427
20
-4596.5813334547802
30
0
0
SPLINE
5
337
100
AcDbEntity
8
0
100
AcDbSpline
70
0
71
3
72
8
73
4
74
0
42
0.000000001
43
0.0000000001
44
0.0000000001
40
-0.13490369314186501
40
-0.13490369314186501
40
-0.13490369314186501
40
-0.13490369314186501
40
0
40
0
40
0
40
0
10
-13891.0203832147
20
-4596.2692789763096
30
0
10
-13891.369203607601
20
-4596.40059115237
30
0
10
-13891.467034131601
20
-4596.4230692729998
30
0
10
-13891.915380911101
20
-4596.4749188921796
30
0
0
SPLINE
5
338
100
AcDbEntity
8
0
100
AcDbSpline
70
0
71
3
72
8
73
4
74
0
42
0.000000001
43
0.0000000001
44
0.0000000001
40
-0.081131166250822104
40
-0.081131166250822104
40
-0.081131166250822104
40
-0.081131166250822104
40
0
40
0
40
0
40
0
10
-13890.5166074067
20
-4595.8699469818603
30
0
10
-13890.7118966463
20
-4596.1304197458303
30
0
10
-13890.766507175902
20
-4596.17370832488
30
0
10
-13891.0203832147
20
-4596.2692789763096
30
0
0
SPLINE
5
339
100
AcDbEntity
8
0
100
AcDbSpline
70
0
71
3
72
8
73
4
74
0
42
0.000000001
43
0.0000000001
44
0.0000000001
40
-0.147634647495647
40
-0.147634647495647
40
-0.147634647495647
40
-0.147634647495647
40
0
40
0
40
0
40
0
10
-13890.141686772602
20
-4595.1226660719203
30
0
10
-13890.189216377303
20
-4595.4120069693399
30
0
10
-13890.221477468202
20
-4595.4763087491901
30
0
10
-13890.5166074067
20
-4595.8699469818603
30
0
0
SPLINE
5
340
100
AcDbEntity
8
0
100
AcDbSpline
70
0
71
3
72
8
73
4
74
0
42
0.000000001
43
0.0000000001
44
0.0000000001
40
-0.20654669267903999
40
-0.20654669267903999
40
-0.20654669267903999
40
-0.20654669267903999
40
0
40
0
40
0
40
0
10
-13889.967978987403
20
-4580.7675406097496
30
0
10
-13890.012026241902
20
-4591.9724102875798
30
0
10
-13890.042867177801
20
-4594.52109300555
30
0
10
-13890.141686772602
20
-4595.1226660719203
30
0
0
SPLINE
5
341
100
AcDbEntity
8
0
100
AcDbSpline
70
0
71
3
72
8
73
4
74
0
42
0.000000001
43
0.0000000001
44
0.0000000001
40
-2.4892668725870202
40
-2.4892668725870202
40
-2.4892668725870202
40
-2.4892668725870202
40
0
40
0
40
0
40
0
10
-13889.965317737002
20
-4556.0606213527899
30
0
10
-13889.934736492
20
-4564.9150424503496
30
0
10
-13889.935555675302
20
-4572.5195875545296
30
0
10
-13889.967978987403
20
-4580.7675406097496
30
0
0
SPLINE
5
342
100
AcDbEntity
8
0
100
AcDbSpline
70
0
71
3
72
8
73
4
74
0
42
0.000000001
43
0.0000000001
44
0.0000000001
40
-3.0013339781720099
40
-3.0013339781720099
40
-3.0013339781720099
40
-3.0013339781720099
40
0
40
0
40
0
40
0
10
-13890.017727122302
20
-4521.5191235607908
30
0
10
-13890.0132003955
20
-4533.4816086711899
30
0
10
-13889.9896161584
20
-4549.0252826775904
30
0
10
-13889.965317737002
20
-4556.0606213527899
30
0
0
SPLINE
5
343
100
AcDbEntity
8
0
100
AcDbSpline
70
0
71
3
72
8
73
4
74
0
42
0.000000001
43
0.0000000001
44
0.0000000001
40
-2.4304908808724499
40
-2.4304908808724499
40
-2.4304908808724499
40
-2.4304908808724499
40
0
40
0
40
0
40
0
10
-13890.063367704603
20
-4493.9209706007896
30
0
10
-13890.042792159002
20
-4497.1374696183902
30
0
10
-13890.022254259802
20
-4509.55663845039
30
0
10
-13890.017727122302
20
-4521.5191235607908
30
0
0
SPLINE
5
344
100
AcDbEntity
8
0
100
AcDbSpline
70
0
71
3
72
8
73
4
74
0
42
0.000000001
43
0.0000000001
44
0.0000000001
40
-1.1823852209432
40
-1.1823852209432
40
-1.1823852209432
40
-1.1823852209432
40
0
40
0
40
0
40
0
10
-13890.147244460102
20
-4480.8447015198399
30
0
10
-13890.1216876943
20
-4484.82015111279
30
0
10
-13890.083943113303
20
-4490.7044715831898
30
0
10
-13890.063367704603
20
-4493.9209706007896
30
0
0
SPLINE
5
345
100
AcDbEntity
8
0
100
AcDbSpline
70
0
71
3
72
8
73
4
74
0
42
0.000000001
43
0.0000000001
44
0.0000000001
40
-0.60994792792463204
40
-0.60994792792463204
40
-0.60994792792463204
40
-0.60994792792463204
40
0
40
0
40
0
40
0
10
-13890.229963215699
20
-4473.2223545118404
30
0
10
-13890.210024508502
20
-4473.439197142241
30
0
10
-13890.172801089002
20
-4476.8692532958403
30
0
10
-13890.147244460102
20
-4480.8447015198399
30
0
0
SPLINE
5
346
100
AcDbEntity
8
0
100
AcDbSpline
70
0
71
3
72
8
73
4
74
0
42
0.000000001
43
0.0000000001
44
0.0000000001
40
-0.14460287578804901
40
-0.14460287578804901
40
-0.14460287578804901
40
-0.14460287578804901
40
0
40
0
40
0
40
0
10
-13890.682155255799
20
-4472.18505000613
30
0
10
-13890.420204293099
20
-4472.3943469510596
30
0
10
-13890.2755964057
20
-4472.7260696310695
30
0
10
-13890.229963215699
20
-4473.2223545118404
30
0
0
ELLIPSE
5
347
100
AcDbEntity
8
0
100
AcDbEllipse
10
-13890.937346746368
20
-4472.5229154245917
30
0
11
-1.0250322305119299
21
0.82433095530244904
31
0.0
40
0.32175921736394686
41
4.7221760381930746
42
5.411843836616983
0
SPLINE
5
348
100
AcDbEntity
8
0
100
AcDbSpline
70
0
71
3
72
8
73
4
74
0
42
0.000000001
43
0.0000000001
44
0.0000000001
40
-0.066350241355203704
40
-0.066350241355203704
40
-0.066350241355203704
40
-0.066350241355203704
40
0
40
0
40
0
40
0
10
-13899.3890093307
20
-4471.6770783479897
30
0
10
-13891.990004892999
20
-4471.6631656481604
30
0
10
-13891.5616265271
20
-4471.6665291730606
30
0
10
-13891.394306290702
20
-4471.7398395047703
30
0
0
SPLINE
5
349
100
AcDbEntity
8
0
100
AcDbSpline
70
0
71
3
72
8
73
4
74
0
42
0.000000001
43
0.0000000001
44
0.0000000001
40
-0.15730568574443099
40
-0.15730568574443099
40
-0.15730568574443099
40
-0.15730568574443099
40
0
40
0
40
0
40
0
10
-13907.360242167601
20
-4471.75143866896
30
0
10
-13907.233424821699
20
-4471.70209054307
30
0
10
-13905.855421391499
20
-4471.6892346772702
30
0
10
-13899.3890093307
20
-4471.6770783479897
30
0
0
SPLINE
5
350
100
AcDbEntity
8
0
100
AcDbSpline
70
0
71
3
72
8
73
4
74
0
42
0.000000001
43
0.0000000001
44
0.0000000001
40
-0.086671368258274303
40
-0.086671368258274303
40
-0.086671368258274303
40
-0.086671368258274303
40
0
40
0
40
0
40
0
10
-13908.433503671602
20
-4472.4435061610202
30
0
10
-13908.180263239101
20
-4472.2413770697112
30
0
10
-13907.5121073015
20
-4471.8105323926102
30
0
10
-13907.360242167601
20
-4471.75143866896
30
0
0
SPLINE
5
351
100
AcDbEntity
8
0
100
AcDbSpline
70
0
71
3
72
8
73
4
74
0
42
0.000000001
43
0.0000000001
44
0.0000000001
40
-0.0584477866267646
40
-0.0584477866267646
40
-0.0584477866267646
40
-0.0584477866267646
40
0
40
0
40
0
40
0
10
-13909.028675089003
20
-4472.9072824436598
30
0
10
-13908.7736112071
20
-4472.7098981538402
30
0
10
-13908.505784548401
20
-4472.5011994426804
30
0
10
-13908.433503671602
20
-4472.4435061610202
30
0
0
SPLINE
5
352
100
AcDbEntity
8
0
100
AcDbSpline
70
0
71
3
72
10
73
6
74
0
42
0.000000001
43
0.0000000001
44
0.0000000001
40
0
40
0
40
0
40
0
40
0.035875544026045224
40
0.035875544026045224
40
0.082397156988319883
40
0.082397156988319883
40
0.082397156988319883
40
0.082397156988319883
10
-13909.765273350802
20
-4473.4966166327004
30
0
10
-13909.67391500194
20
-4473.4194527848367
30
0
10
-13909.536689375233
20
-4473.3087176251183
30
0
10
-13909.306215217621
20
-4473.1243209029672
30
0
10
-13909.159392465222
20
-4473.0084395177491
30
0
10
-13909.02867508901
20
-4472.9072824436598
30
0
0
SPLINE
5
353
100
AcDbEntity
8
0
100
AcDbSpline
70
0
71
3
72
8
73
4
74
0
42
0.000000001
43
0.0000000001
44
0.0000000001
40
-0.221923898233193
40
-0.221923898233193
40
-0.221923898233193
40
-0.221923898233193
40
0
40
0
40
0
40
0
10
-13911.558895929502
20
-4474.3824475259598
30
0
10
-13910.827644809902
20
-4474.2208655424101
30
0
10
-13910.3342497952
20
-4473.9771872675401
30
0
10
-13909.765273350802
20
-4473.4966166327004
30
0
0
SPLINE
5
354
100
AcDbEntity
8
0
100
AcDbSpline
70
0
71
3
72
14
73
10
74
0
42
0.000000001
43
0.0000000001
44
0.0000000001
40
-0.042523216343772
40
-0.042523216343772
40
-0.042523216343772
40
-0.042523216343772
40
-0.033493688762246274
40
-0.033493688762246274
40
-0.033493688762246274
40
-0.022956206135668154
40
-0.022956206135668154
40
-0.022956206135668154
40
0
40
0
40
0
40
0
10
-13912.101347482401
20
-4474.5417200807406
30
0
10
-13912.05077339767
20
-4474.5155674649377
30
0
10
-13911.929247447526
20
-4474.4789801030565
30
0
10
-13911.892385600571
20
-4474.4681014528906
30
0
10
-13911.849367727449
20
-4474.4554060393066
30
0
10
-13911.824177976861
20
-4474.448453513678
30
0
10
-13911.789080711416
20
-4474.4389877107769
30
0
10
-13911.712620318656
20
-4474.4183661894558
30
0
10
-13911.633614219463
20
-4474.3989579075969
30
0
10
-13911.558895929502
20
-4474.3824475259598
30
0
0
SPLINE
5
355
100
AcDbEntity
8
0
100
AcDbSpline
70
0
71
3
72
10
73
6
74
0
42
0.000000001
43
0.0000000001
44
0.0000000001
40
0
40
0
40
0
40
0
40
0.044474755466463414
40
0.044474755466463414
40
0.057223187332555533
40
0.057223187332555533
40
0.057223187332555533
40
0.057223187332555533
10
-13912.658685062899
20
-4475.01160875191
30
0
10
-13912.550953869679
20
-4474.9097666642083
30
0
10
-13912.430218771617
20
-4474.801097261362
30
0
10
-13912.28835469321
20
-4474.6814923431248
30
0
10
-13912.154466407519
20
-4474.569189665157
30
0
10
-13912.101347482401
20
-4474.5417200807406
30
0
0
SPLINE
5
356
100
AcDbEntity
8
0
100
AcDbSpline
70
0
71
3
72
8
73
4
74
0
42
0.000000001
43
0.0000000001
44
0.0000000001
40
-0.203142208776807
40
-0.203142208776807
40
-0.203142208776807
40
-0.203142208776807
40
0
40
0
40
0
40
0
10
-13913.752044209901
20
-4475.8283908734902
30
0
10
-13913.519064326201
20
-4475.7663894872903
30
0
10
-13913.223721651902
20
-4475.5457575866803
30
0
10
-13912.658685062899
20
-4475.01160875191
30
0
0
SPLINE
5
357
100
AcDbEntity
8
0
100
AcDbSpline
70
0
71
3
72
10
73
6
74
0
42
0.000000001
43
0.0000000001
44
0.0000000001
40
0
40
0
40
0
40
0
40
0.0089845879143742886
40
0.0089845879143742886
40
0.01794306026744398
40
0.01794306026744398
40
0.01794306026744398
40
0.01794306026744398
10
-13914.036787057901
20
-4475.9387314650012
30
0
10
-13914.011603217006
20
-4475.9225236156708
30
0
10
-13913.966977219499
20
-4475.9020065928771
30
0
10
-13913.863911818136
20
-4475.8620677568188
30
0
10
-13913.805321798642
20
-4475.8425688946008
30
0
10
-13913.752044209901
20
-4475.8283908734902
30
0
0
SPLINE
5
358
100
AcDbEntity
8
0
100
AcDbSpline
70
0
71
3
72
8
73
4
74
0
42
0.000000001
43
0.0000000001
44
0.0000000001
40
-0.11091253864709499
40
-0.11091253864709499
40
-0.11091253864709499
40
-0.11091253864709499
40
0
40
0
40
0
40
0
10
-13915.440437878802
20
-4475.9166967492301
30
0
10
-13914.922893111299
20
-4476.0898409351503
30
0
10
-13914.287091079801
20
-4476.0998219933399
30
0
10
-13914.036787057901
20
-4475.9387314650012
30
0
0
SPLINE
5
359
100
AcDbEntity
8
0
100
AcDbSpline
70
0
71
3
72
8
73
4
74
0
42
0.000000001
43
0.0000000001
44
0.0000000001
40
-0.14153415104230799
40
-0.14153415104230799
40
-0.14153415104230799
40
-0.14153415104230799
40
0
40
0
40
0
40
0
10
-13916.730128588501
20
-4475.0213078051711
30
0
10
-13916.135206321
20
-4475.5921090678912
30
0
10
-13915.879019895201
20
-4475.76996930723
30
0
10
-13915.440437878802
20
-4475.9166967492301
30
0
0
SPLINE
5
360
100
AcDbEntity
8
0
100
AcDbSpline
70
0
71
3
72
8
73
4
74
0
42
0.000000001
43
0.0000000001
44
0.0000000001
40
-0.120623929682194
40
-0.120623929682194
40
-0.120623929682194
40
-0.120623929682194
40
0
40
0
40
0
40
0
10
-13917.4652606984
20
-4474.4291138670496
30
0
10
-13917.342966383101
20
-4474.46391272856
30
0
10
-13917.144159748002
20
-4474.6240641530903
30
0
10
-13916.730128588501
20
-4475.0213078051711
30
0
0
SPLINE
5
361
100
AcDbEntity
8
0
100
AcDbSpline
70
0
71
3
72
8
73
4
74
0
42
0.000000001
43
0.0000000001
44
0.0000000001
40
-0.15918534669589501
40
-0.15918534669589501
40
-0.15918534669589501
40
-0.15918534669589501
40
0
40
0
40
0
40
0
10
-13923.678197687601
20
-4474.3435404274896
30
0
10
-13918.5514821088
20
-4474.2814007767302
30
0
10
-13917.955516696902
20
-4474.2896090369104
30
0
10
-13917.4652606984
20
-4474.4291138670496
30
0
0
SPLINE
5
362
100
AcDbEntity
8
0
100
AcDbSpline
70
0
71
3
72
8
73
4
74
0
42
0.000000001
43
0.0000000001
44
0.0000000001
40
-0.47596592102815199
40
-0.47596592102815199
40
-0.47596592102815199
40
-0.47596592102815199
40
0
40
0
40
0
40
0
10
-13932.505225975601
20
-4474.3432666362896
30
0
10
-13932.050662766902
20
-4474.4176543363701
30
0
10
-13929.7981291752
20
-4474.4177186773004
30
0
10
-13923.678197687601
20
-4474.3435404274896
30
0
0
SPLINE
5
363
100
AcDbEntity
8
0
100
AcDbSpline
70
0
71
3
72
8
73
4
74
0
42
0.000000001
43
0.0000000001
44
0.0000000001
40
-0.19193651632745401
40
-0.19193651632745401
40
-0.19193651632745401
40
-0.19193651632745401
40
0
40
0
40
0
40
0
10
-13933.848229307801
20
-4473.7828489048297
30
0
10
-13933.470014144103
20
-4474.1012447981802
30
0
10
-13933.138172364899
20
-4474.2397174354901
30
0
10
-13932.505225975601
20
-4474.3432666362896
30
0
0
SPLINE
5
364
100
AcDbEntity
8
0
100
AcDbSpline
70
0
71
3
72
10
73
6
74
0
42
0.000000001
43
0.0000000001
44
0.0000000001
40
0
40
0
40
0
40
0
40
0.22608139202762306
40
0.22608139202762306
40
0.32417095104768912
40
0.32417095104768912
40
0.32417095104768912
40
0.32417095104768912
10
-13936.4317162262
20
-4471.228512535472
30
0
10
-13935.905959455247
20
-4471.7684197232038
30
0
10
-13935.31418113078
20
-4472.3694388091635
30
0
10
-13934.564408835355
20
-4473.1107511209984
30
0
10
-13934.072551365964
20
-4473.5940070989827
30
0
10
-13933.848229307801
20
-4473.7828489048279
30
0
0
SPLINE
5
365
100
AcDbEntity
8
0
100
AcDbSpline
70
0
71
3
72
8
73
4
74
0
42
0.000000001
43
0.0000000001
44
0.0000000001
40
-0.14219352351807499
40
-0.14219352351807499
40
-0.14219352351807499
40
-0.14219352351807499
40
0
40
0
40
0
40
0
10
-13937.409394484403
20
-4470.3091928715803
30
0
10
-13937.188078105701
20
-4470.4898950635798
30
0
10
-13936.7481230265
20
-4470.9035894599201
30
0
10
-13936.4317162262
20
-4471.2285125354701
30
0
0
SPLINE
5
366
100
AcDbEntity
8
0
100
AcDbSpline
70
0
71
3
72
10
73
6
74
0
42
0.000000001
43
0.0000000001
44
0.0000000001
40
0
40
0
40
0
40
0
40
0.053707453381599518
40
0.053707453381599518
40
0.10361670523381772
40
0.10361670523381772
40
0.10361670523381772
40
0.10361670523381772
10
-13938.259888516395
20
-4469.5836434536741
30
0
10
-13938.125889248982
20
-4469.7023619919
30
0
10
-13937.965243293782
20
-4469.8410792329996
30
0
10
-13937.695074298756
20
-4470.0715581738968
30
0
10
-13937.53594781072
20
-4470.2058642242882
30
0
10
-13937.409394484403
20
-4470.3091928715803
30
0
0
SPLINE
5
367
100
AcDbEntity
8
0
100
AcDbSpline
70
0
71
3
72
10
73
6
74
0
42
0.000000001
43
0.0000000001
44
0.0000000001
40
-0.27748544996146002
40
-0.27748544996146002
40
-0.27748544996146002
40
-0.27748544996146002
40
-0.13874272498073001
40
-0.13874272498073001
40
0
40
0
40
0
40
0
10
-13940.193955029001
20
-4468.9582851874902
30
0
10
-13939.564348207899
20
-4468.96714712415
30
0
10
-13939.2538713828
20
-4468.9701790194604
30
0
10
-13938.774681340001
20
-4469.1251195129698
30
0
10
-13938.605968122401
20
-4469.2770281111807
30
0
10
-13938.259888516402
20
-4469.5836434536704
30
0
0
SPLINE
5
368
100
AcDbEntity
8
0
100
AcDbSpline
70
0
71
3
72
10
73
6
74
0
42
0.000000001
43
0.0000000001
44
0.0000000001
40
-0.37661110355086802
40
-0.37661110355086802
40
-0.37661110355086802
40
-0.37661110355086802
40
-0.18830555177543401
40
-0.18830555177543401
40
0
40
0
40
0
40
0
10
-13941.439726892302
20
-4469.62664783746
30
0
10
-13941.414477867802
20
-4469.2587429658897
30
0
10
-13941.424839153602
20
-4469.0871227702301
30
0
10
-13941.1363819857
20
-4468.9323643478701
30
0
10
-13940.837563532103
20
-4468.9492261211599
30
0
10
-13940.193955029001
20
-4468.9582851874902
30
0
0
SPLINE
5
369
100
AcDbEntity
8
0
100
AcDbSpline
70
0
71
3
72
10
73
6
74
0
42
0.000000001
43
0.0000000001
44
0.0000000001
40
0
40
0
40
0
40
0
40
0.034011664030647454
40
0.034011664030647454
40
0.066604703940841004
40
0.066604703940841004
40
0.066604703940841004
40
0.066604703940841004
10
-13941.451992738102
20
-4470.5300520188903
30
0
10
-13941.458446896857
20
-4470.4168636687209
30
0
10
-13941.459859722647
20
-4470.2604743585844
30
0
10
-13941.455630193574
20
-4469.9489610530472
30
0
10
-13941.449945311164
20
-4469.7755355152131
30
0
10
-13941.439726892302
20
-4469.6266478374673
30
0
0
SPLINE
5
370
100
AcDbEntity
8
0
100
AcDbSpline
70
0
71
3
72
10
73
6
74
0
42
0.000000001
43
0.0000000001
44
0.0000000001
40
0
40
0
40
0
40
0
40
0.0420693055634365
40
0.0420693055634365
40
0.087506767483969475
40
0.087506767483969475
40
0.087506767483969475
40
0.087506767483969475
10
-13941.480415002499
20
-4471.3951007911101
30
0
10
-13941.465283092184
20
-4471.2556885827053
30
0
10
-13941.455761789191
20
-4471.0910263072301
30
0
10
-13941.44593413638
20
-4470.7919547954662
30
0
10
-13941.445657852491
20
-4470.6411241448523
30
0
10
-13941.451992738102
20
-4470.5300520188903
30
0
0
SPLINE
5
371
100
AcDbEntity
8
0
100
AcDbSpline
70
0
71
3
72
8
73
4
74
0
42
0.000000001
43
0.0000000001
44
0.0000000001
40
-0.41530654285580998
40
-0.41530654285580998
40
-0.41530654285580998
40
-0.41530654285580998
40
0
40
0
40
0
40
0
10
-13941.993978845901
20
-4473.2965245479209
30
0
10
-13941.678512518401
20
-4472.9871048990599
30
0
10
-13941.636529375801
20
-4472.83166952795
30
0
10
-13941.480415002499
20
-4471.3951007911101
30
0
0
SPLINE
5
372
100
AcDbEntity
8
0
100
AcDbSpline
70
0
71
3
72
8
73
4
74
0
42
0.000000001
43
0.0000000001
44
0.0000000001
40
-0.075131670561487202
40
-0.075131670561487202
40
-0.075131670561487202
40
-0.075131670561487202
40
0
40
0
40
0
40
0
10
-13942.827621029601
20
-4473.8135176261003
30
0
10
-13942.704538195701
20
-4473.8130152192398
30
0
10
-13942.2042244774
20
-4473.5027399728897
30
0
10
-13941.993978845901
20
-4473.2965245479209
30
0
0
SPLINE
5
373
100
AcDbEntity
8
0
100
AcDbSpline
70
0
71
3
72
10
73
6
74
0
42
0.000000001
43
0.0000000001
44
0.0000000001
40
0
40
0
40
0
40
0
40
0.011050077210050758
40
0.011050077210050758
40
0.014193865451486272
40
0.014193865451486272
40
0.014193865451486272
40
0.014193865451486272
10
-13943.002847397602
20
-4473.87916043525
30
0
10
-13942.97018839532
20
-4473.8621280257357
30
0
10
-13942.933429275923
20
-4473.8455515295682
30
0
10
-13942.889995538459
20
-4473.8292805043066
30
0
10
-13942.847557393223
20
-4473.8135994142631
30
0
10
-13942.827621029601
20
-4473.8135176261003
30
0
0
SPLINE
5
374
100
AcDbEntity
8
0
100
AcDbSpline
70
0
71
3
72
8
73
4
74
0
42
0.000000001
43
0.0000000001
44
0.0000000001
40
-0.058340295150619802
40
-0.058340295150619802
40
-0.058340295150619802
40
-0.058340295150619802
40
0
40
0
40
0
40
0
10
-13943.669737050899
20
-4473.8349527391401
30
0
10
-13943.265743076799
20
-4473.9625736622402
30
0
10
-13943.174396749801
20
-4473.9686299235909
30
0
10
-13943.002847397602
20
-4473.87916043525
30
0
0
ELLIPSE
5
375
100
AcDbEntity
8
0
100
AcDbEllipse
10
-13943.742138223779
20
-4473.4614739385615
30
0
11
-0.80135418158748128
21
0.33856502167769487
31
0.0
40
0.37437035617972453
41
1.0020046488531742
42
1.8170229960662425
0
SPLINE
5
376
100
AcDbEntity
8
0
100
AcDbSpline
70
0
71
3
72
8
73
4
74
0
42
0.000000001
43
0.0000000001
44
0.0000000001
40
-0.097542186797147906
40
-0.097542186797147906
40
-0.097542186797147906
40
-0.097542186797147906
40
0
40
0
40
0
40
0
10
-13944.858683550701
20
-4472.8407963576001
30
0
10
-13944.858683550701
20
-4472.9728349017196
30
0
10
-13944.568074726201
20
-4473.3202225452296
30
0
10
-13944.2805515286
20
-4473.5318864150804
30
0
0
SPLINE
5
377
100
AcDbEntity
8
0
100
AcDbSpline
70
0
71
3
72
10
73
6
74
0
42
0.000000001
43
0.0000000001
44
0.0000000001
40
0
40
0
40
0
40
0
40
0.0089674468550702286
40
0.0089674468550702286
40
0.017915101050699322
40
0.017915101050699322
40
0.017915101050699322
40
0.017915101050699322
10
-13944.910087848502
20
-4472.6609182771199
30
0
10
-13944.895941834538
20
-4472.6872506039153
30
0
10
-13944.883108769009
20
-4472.7205968953213
30
0
10
-13944.864478734613
20
-4472.785788582215
30
0
10
-13944.858683550701
20
-4472.8176099144603
30
0
10
-13944.858683550701
20
-4472.8407963576001
30
0
0
SPLINE
5
378
100
AcDbEntity
8
0
100
AcDbSpline
70
0
71
3
72
8
73
4
74
0
42
0.000000001
43
0.0000000001
44
0.0000000001
40
-0.118918973211219
40
-0.118918973211219
40
-0.118918973211219
40
-0.118918973211219
40
0
40
0
40
0
40
0
10
-13945.100209826702
20
-4470.1999186967996
30
0
10
-13945.080067008103
20
-4471.2751131666701
30
0
10
-13944.983574775502
20
-4472.5241280867303
30
0
10
-13944.910087848502
20
-4472.6609182771199
30
0
0
SPLINE
5
379
100
AcDbEntity
8
0
100
AcDbSpline
70
0
71
3
72
18
73
14
74
0
42
0.000000001
43
0.0000000001
44
0.0000000001
40
0
40
0
40
0
40
0
40
0.00046954961438528488
40
0.00046954961438528488
40
0.0010848768535678479
40
0.0010848768535678479
40
0.0028547109764614498
40
0.0028547109764614498
40
0.0086324471426759281
40
0.0086324471426759281
40
0.029196200870584593
40
0.029196200870584593
40
0.10430359193137706
40
0.10430359193137706
40
0.10430359193137706
40
0.10430359193137706
10
-13945.180132215901
20
-4468.9460138659097
30
0
10
-13945.178867306631
20
-4468.9469356832524
30
0
10
-13945.177737614284
20
-4468.9482943864259
30
0
10
-13945.175477563131
20
-4468.9516691526333
30
0
10
-13945.174354267299
20
-4468.9539147786145
30
0
10
-13945.170764457998
20
-4468.9620652685098
30
0
10
-13945.168535720357
20
-4468.9696677770007
30
0
10
-13945.161543641563
20
-4468.9967240940032
30
0
10
-13945.157256246073
20
-4469.0243481807156
30
0
10
-13945.144216221997
20
-4469.1195268730844
30
0
10
-13945.136699581073
20
-4469.221343619618
30
0
10
-13945.114772698387
20
-4469.5653551638461
30
0
10
-13945.105369808356
20
-4469.9245025244845
30
0
10
-13945.100209826702
20
-4470.1999186967996
30
0
0
SPLINE
5
380
100
AcDbEntity
8
0
100
AcDbSpline
70
0
71
3
72
8
73
4
74
0
42
0.000000001
43
0.0000000001
44
0.0000000001
40
-0.031609244977400801
40
-0.031609244977400801
40
-0.031609244977400801
40
-0.031609244977400801
40
0
40
0
40
0
40
0
10
-13946.829980190701
20
-4468.8819658904904
30
0
10
-13946.462259443702
20
-4468.8757056547001
30
0
10
-13945.209897426203
20
-4468.9243227580801
30
0
10
-13945.180132215901
20
-4468.9460138659097
30
0
0
SPLINE
5
381
100
AcDbEntity
8
0
100
AcDbSpline
70
0
71
3
72
8
73
4
74
0
42
0.000000001
43
0.0000000001
44
0.0000000001
40
-0.11281488462945399
40
-0.11281488462945399
40
-0.11281488462945399
40
-0.11281488462945399
40
0
40
0
40
0
40
0
10
-13947.487079070699
20
-4468.9919204364096
30
0
10
-13947.321444977402
20
-4468.9061142743303
30
0
10
-13947.216458372803
20
-4468.8885505688504
30
0
10
-13946.829980190701
20
-4468.8819658904904
30
0
0
CIRCLE
5
382
100
AcDbEntity
8
0
100
AcDbCircle
10
-14071.889103187103
20
-4484.2738981205603
30
0
40
0.99999999999909106
210
0
220
-0
230
1
0
CIRCLE
5
383
100
AcDbEntity
8
0
100
AcDbCircle
10
-14151.660978187101
20
-4484.2738981205603
30
0
40
0.99999999999909106
210
0
220
-0
230
1
0
CIRCLE
5
384
100
AcDbEntity
8
0
100
AcDbCircle
10
-14171.632853187102
20
-4515.1738981205599
30
0
40
0.99999999999909106
210
0
220
-0
230
1
0
CIRCLE
5
385
100
AcDbEntity
8
0
100
AcDbCircle
10
-14200.4766031871
20
-4560.473898120561
30
0
40
0.99999999999909106
210
0
220
-0
230
1
0
CIRCLE
5
386
100
AcDbEntity
8
0
100
AcDbCircle
10
-14119.523303187099
20
-4560.8238981205604
30
0
40
0.99999999999909106
210
0
220
-0
230
1
0
CIRCLE
5
387
100
AcDbEntity
8
0
100
AcDbCircle
10
-14014.739103187101
20
-4584.2863981205601
30
0
40
0.99999999999909106
210
0
220
-0
230
1
0
CIRCLE
5
388
100
AcDbEntity
8
0
100
AcDbCircle
10
-14043.314103187102
20
-4484.2738981205603
30
0
40
0.99999999999909106
210
0
220
-0
230
1
0
CIRCLE
5
389
100
AcDbEntity
8
0
100
AcDbCircle
10
-13939.729728187102
20
-4484.2738981205603
30
0
40
0.99999999999909106
210
0
220
-0
230
1
0
CIRCLE
5
390
100
AcDbEntity
8
0
100
AcDbCircle
10
-13943.301603187101
20
-4522.3738981205597
30
0
40
0.99999999999909106
210
0
220
-0
230
1
0
CIRCLE
5
391
100
AcDbEntity
8
0
100
AcDbCircle
10
-13912.345353187102
20
-4584.2863981205601
30
0
40
0.99999999999909106
210
0
220
-0
230
1
0
CIRCLE
5
392
100
AcDbEntity
8
0
100
AcDbCircle
10
-13917.107853187101
20
-4541.4238981205599
30
0
40
0.99999999999909106
210
0
220
-0
230
1
0
CIRCLE
5
393
100
AcDbEntity
8
0
100
AcDbCircle
10
-13915.9172281871
20
-4484.2738981205603
30
0
40
0.99999999999909106
210
0
220
-0
230
1
0
CIRCLE
5
394
100
AcDbEntity
8
0
100
AcDbCircle
10
-13990.926603187099
20
-4503.3238981205604
30
0
40
0.99999999999909106
210
0
220
-0
230
1
0
CIRCLE
5
395
100
AcDbEntity
8
0
100
AcDbCircle
10
-13967.114103187101
20
-4560.473898120561
30
0
40
0.99999999999909106
210
0
220
-0
230
1
0
CIRCLE
5
396
100
AcDbEntity
8
0
100
AcDbCircle
10
-14071.889103187103
20
-4541.4238981205599
30
0
40
0.99999999999909106
210
0
220
-0
230
1
0
CIRCLE
5
397
100
AcDbEntity
8
0
100
AcDbCircle
10
-14179.045353187103
20
-4584.2863981205601
30
0
40
0.99999999999909106
210
0
220
-0
230
1
0
CIRCLE
5
398
100
AcDbEntity
8
0
100
AcDbCircle
10
-14204.048478187102
20
-4525.9457731205603
30
0
40
0.99999999999909106
210
0
220
-0
230
1
0
CIRCLE
5
399
100
AcDbEntity
8
0
100
AcDbCircle
10
-14166.8703531871
20
-4496.1238981205597
30
0
40
0.99999999999909106
210
0
220
-0
230
1
0
CIRCLE
5
400
100
AcDbEntity
8
0
100
AcDbCircle
10
-14105.226603187102
20
-4484.2738981205603
30
0
40
0.99999999999909106
210
0
220
-0
230
1
0
CIRCLE
5
401
100
AcDbEntity
8
0
100
AcDbCircle
10
-14219.5266031871
20
-4484.2738981205603
30
0
40
0.99999999999909106
210
0
220
-0
230
1
0
CIRCLE
5
402
100
AcDbEntity
8
0
100
AcDbCircle
10
-14129.0391031871
20
-4484.2738981205603
30
0
40
0.99999999999909106
210
0
220
-0
230
1
0
CIRCLE
5
403
100
AcDbEntity
8
0
100
AcDbCircle
10
-14138.832853187101
20
-4515.1738981205599
30
0
40
0.99999999999909106
210
0
220
-0
230
1
0
CIRCLE
5
404
100
AcDbEntity
8
0
100
AcDbCircle
10
-14219.5266031871
20
-4584.2863981205601
30
0
40
0.99999999999909106
210
0
220
-0
230
1
0
CIRCLE
5
405
100
AcDbEntity
8
0
100
AcDbCircle
10
-14129.0391031871
20
-4541.4238981205599
30
0
40
0.99999999999909106
210
0
220
-0
230
1
0
CIRCLE
5
406
100
AcDbEntity
8
0
100
AcDbCircle
10
-14043.314103187102
20
-4560.473898120561
30
0
40
0.99999999999909106
210
0
220
-0
230
1
0
CIRCLE
5
407
100
AcDbEntity
8
0
100
AcDbCircle
10
-14038.551603187099
20
-4522.3738981205597
30
0
40
0.99999999999909106
210
0
220
-0
230
1
0
CIRCLE
5
408
100
AcDbEntity
8
0
100
AcDbCircle
10
-13962.3516031871
20
-4484.2738981205603
30
0
40
0.99999999999909106
210
0
220
-0
230
1
0
CIRCLE
5
409
100
AcDbEntity
8
0
100
AcDbCircle
10
-13933.7766031871
20
-4503.3238981205604
30
0
40
0.99999999999909106
210
0
220
-0
230
1
0
CIRCLE
5
410
100
AcDbEntity
8
0
100
AcDbCircle
10
-13909.964103187102
20
-4560.473898120561
30
0
40
0.99999999999909106
210
0
220
-0
230
1
0
CIRCLE
5
411
100
AcDbEntity
8
0
100
AcDbCircle
10
-13893.295353187103
20
-4522.3738981205597
30
0
40
0.99999999999909106
210
0
220
-0
230
1
0
CIRCLE
5
412
100
AcDbEntity
8
0
100
AcDbCircle
10
-13895.9453531871
20
-4496.1238981205597
30
0
40
0.99999999999909106
210
0
220
-0
230
1
0
CIRCLE
5
413
100
AcDbEntity
8
0
100
AcDbCircle
10
-14005.2141031871
20
-4484.2738981205603
30
0
40
0.99999999999909106
210
0
220
-0
230
1
0
CIRCLE
5
414
100
AcDbEntity
8
0
100
AcDbCircle
10
-13995.689103187102
20
-4541.4238981205599
30
0
40
0.99999999999909106
210
0
220
-0
230
1
0
CIRCLE
5
415
100
AcDbEntity
8
0
100
AcDbCircle
10
-14095.701603187101
20
-4584.2863981205601
30
0
40
0.99999999999909106
210
0
220
-0
230
1
0
CIRCLE
5
416
100
AcDbEntity
8
0
100
AcDbCircle
10
-14174.0391031871
20
-4553.2738981205603
30
0
40
0.99999999999909106
210
0
220
-0
230
1
0
CIRCLE
5
417
100
AcDbEntity
8
0
100
AcDbCircle
10
-14219.5266031871
20
-4541.4238981205599
30
0
40
0.99999999999909106
210
0
220
-0
230
1
0
CIRCLE
5
418
100
AcDbEntity
8
0
100
AcDbCircle
10
-14134.0703531871
20
-4496.1238981205597
30
0
40
0.99999999999909106
210
0
220
-0
230
1
0
CIRCLE
5
419
100
AcDbEntity
8
0
100
AcDbCircle
10
-14177.854728187102
20
-4484.2738981205603
30
0
40
0.99999999999909106
210
0
220
-0
230
1
0
CIRCLE
5
420
100
AcDbEntity
8
0
100
AcDbCircle
10
-14229.051603187099
20
-4503.3238981205604
30
0
40
0.99999999999909106
210
0
220
-0
230
1
0
LWPOLYLINE
5
421
100
AcDbEntity
8
0
100
AcDbPolyline
90
8
70
1
43
0.0
10
-13959.6266031871
20
-4515.3738981205606
10
-13946.026603187102
20
-4515.3738981205597
42
-0.41421239080378375
10
-13945.5266031871
20
-4515.8738981205606
10
-13945.526603187102
20
-4528.8738981205597
42
-0.41421239080444971
10
-13946.026603187102
20
-4529.3738981205588
10
-13959.6266031871
20
-4529.373898120557
42
-0.41421356237309503
10
-13960.126603187098
20
-4528.8738981205597
10
-13960.1266031871
20
-4515.8738981205606
42
-0.41421356237309503
0
LWPOLYLINE
5
422
100
AcDbEntity
8
0
100
AcDbPolyline
90
8
70
1
43
0.0
10
-13998.2266031871
20
-4528.8738981205597
42
0.41421356237309503
10
-13997.726603187102
20
-4529.373898120557
10
-13984.126603187098
20
-4529.3738981205561
42
0.41421239080178585
10
-13983.626603187104
20
-4528.8738981205597
10
-13983.626603187102
20
-4515.8738981205606
42
0.41421239080111988
10
-13984.126603187098
20
-4515.3738981205606
10
-13997.726603187102
20
-4515.3738981205606
42
0.41421356237309503
10
-13998.226603187102
20
-4515.8738981205606
0
LWPOLYLINE
5
423
100
AcDbEntity
8
0
100
AcDbPolyline
90
8
70
1
43
0.0
10
-14021.7266031871
20
-4515.8738981205606
10
-14021.726603187106
20
-4528.8738981205597
42
-0.41421239080311778
10
-14022.2266031871
20
-4529.3738981205552
10
-14035.826603187099
20
-4529.3738981205588
42
-0.41421356237442697
10
-14036.326603187101
20
-4528.8738981205597
10
-14036.326603187101
20
-4515.8738981205606
42
-0.41421356237442697
10
-14035.826603187099
20
-4515.3738981205615
10
-14022.2266031871
20
-4515.3738981205597
42
-0.41421239080245181
0
LWPOLYLINE
5
424
100
AcDbEntity
8
0
100
AcDbPolyline
90
8
70
1
43
0.0
10
-14060.326603187103
20
-4529.3738981205579
42
0.41421239080444971
10
-14059.826603187103
20
-4528.8738981205597
10
-14059.826603187101
20
-4515.8738981205606
42
0.41421239080378375
10
-14060.326603187103
20
-4515.3738981205597
10
-14073.926603187101
20
-4515.3738981205524
42
0.41421356237908868
10
-14074.426603187096
20
-4515.8738981205606
10
-14074.426603187097
20
-4528.8738981205597
42
0.41421356237309503
10
-14073.926603187101
20
-4529.3738981205588
0
LWPOLYLINE
5
425
100
AcDbEntity
8
0
100
AcDbPolyline
90
8
70
1
43
0.0
10
-14112.026603187103
20
-4515.3738981205588
10
-14098.426603187099
20
-4515.3738981205579
42
-0.41421239080245181
10
-14097.926603187097
20
-4515.8738981205606
10
-14097.926603187107
20
-4528.8738981205597
42
-0.41421239080311778
10
-14098.426603187099
20
-4529.3738981205543
10
-14112.026603187103
20
-4529.3738981205588
42
-0.4142135623717631
10
-14112.5266031871
20
-4528.8738981205597
10
-14112.526603187092
20
-4515.8738981205606
42
-0.41421356237775675
0
LWPOLYLINE
5
426
100
AcDbEntity
8
0
100
AcDbPolyline
90
8
70
1
43
0.0
10
-14139.232853187097
20
-4517.1308981205511
10
-14139.232853187099
20
-4528.848898120561
42
-0.4142123908021188
10
-14139.732853187099
20
-4529.3488981205592
10
-14170.732853187101
20
-4529.3488981205574
42
-0.41421356237276202
10
-14171.232853187099
20
-4528.848898120561
10
-14171.232853187101
20
-4517.1308981205648
10
-14168.232853187099
20
-4515.3988981205639
10
-14142.232853187095
20
-4515.3988981205521
0
LWPOLYLINE
5
427
100
AcDbEntity
8
0
100
AcDbPolyline
90
8
70
1
43
0.0
10
-14122.239103187101
20
-4567.4738981205537
10
-14135.8391031871
20
-4567.4738981205537
42
-0.41421356236676837
10
-14136.339103187103
20
-4566.973898120561
10
-14136.339103187094
20
-4553.9738981205601
42
-0.41421356237309503
10
-14135.8391031871
20
-4553.4738981205655
10
-14122.239103187101
20
-4553.4738981205574
42
-0.41421239080245181
10
-14121.739103187099
20
-4553.9738981205601
10
-14121.739103187108
20
-4566.973898120561
42
-0.4142123908021188
0
LWPOLYLINE
5
428
100
AcDbEntity
8
0
100
AcDbPolyline
90
8
70
1
43
0.0
10
-14083.639103187099
20
-4553.9738981205601
10
-14083.639103187104
20
-4566.973898120561
42
-0.41421239080345074
10
-14084.139103187101
20
-4567.4738981205555
10
-14097.739103187097
20
-4567.4738981205619
42
-0.41421356237409396
10
-14098.239103187101
20
-4566.973898120561
10
-14098.239103187099
20
-4553.9738981205601
42
-0.41421356237442697
10
-14097.739103187097
20
-4553.473898120561
10
-14084.139103187101
20
-4553.4738981205501
42
-0.41421239080944439
0
LWPOLYLINE
5
429
100
AcDbEntity
8
0
100
AcDbPolyline
90
8
70
1
43
0.0
10
-14060.139103187103
20
-4566.973898120561
10
-14060.139103187095
20
-4553.9738981205601
42
-0.41421356237309503
10
-14059.639103187101
20
-4553.4738981205655
10
-14046.039103187102
20
-4553.4738981205546
42
-0.41421239080811245
10
-14045.539103187108
20
-4553.9738981205601
10
-14045.539103187108
20
-4566.973898120561
42
-0.4142123908021188
10
-14046.039103187102
20
-4567.4738981205555
10
-14059.639103187101
20
-4567.4738981205619
42
-0.41421356237276202
0
LWPOLYLINE
5
430
100
AcDbEntity
8
0
100
AcDbPolyline
90
8
70
1
43
0.0
10
-14007.9391031871
20
-4567.4738981205592
10
-14021.539103187104
20
-4567.4738981205537
42
-0.41421356236543644
10
-14022.039103187106
20
-4566.973898120561
10
-14022.039103187099
20
-4553.9738981205601
42
-0.4142135623717631
10
-14021.539103187104
20
-4553.4738981205628
10
-14007.9391031871
20
-4553.4738981205546
42
-0.41421239080811245
10
-14007.439103187106
20
-4553.9738981205601
10
-14007.439103187102
20
-4566.973898120561
42
-0.4142123908021188
0
LWPOLYLINE
5
431
100
AcDbEntity
8
0
100
AcDbPolyline
90
8
70
1
43
0.0
10
-13969.339103187102
20
-4553.9738981205601
10
-13969.339103187105
20
-4566.973898120561
42
-0.41421239080345074
10
-13969.839103187103
20
-4567.4738981205555
10
-13983.439103187102
20
-4567.4738981205601
42
-0.41421356237276202
10
-13983.939103187102
20
-4566.973898120561
10
-13983.939103187098
20
-4553.9738981205601
42
-0.41421356237309503
10
-13983.439103187102
20
-4553.4738981205628
10
-13969.839103187103
20
-4553.4738981205601
42
-0.41421239080378375
0
LWPOLYLINE
5
432
100
AcDbEntity
8
0
100
AcDbPolyline
90
8
70
1
43
0.0
10
-13922.2141031871
20
-4548.4238981205563
42
0.41421239080245181
10
-13921.714103187105
20
-4547.9238981205599
10
-13921.714103187096
20
-4534.9238981205599
42
0.4142123908021188
10
-13922.2141031871
20
-4534.4238981205599
10
-13935.814103187102
20
-4534.423898120559
42
0.41421356237309503
10
-13936.314103187098
20
-4534.9238981205599
10
-13936.314103187102
20
-4547.9238981205599
42
0.41421356237309503
10
-13935.814103187102
20
-4548.4238981205572
0
LWPOLYLINE
5
433
100
AcDbEntity
8
0
100
AcDbPolyline
90
8
70
1
43
0.0
10
-13925.345353187095
20
-4496.3488981205728
10
-13899.345353187098
20
-4496.3488981205546
10
-13896.345353187098
20
-4498.0808981205546
10
-13896.345353187102
20
-4509.7988981205599
42
-0.41421239080245181
10
-13896.8453531871
20
-4510.2988981205581
10
-13927.845353187102
20
-4510.2988981205572
42
-0.41421356237309503
10
-13928.345353187098
20
-4509.7988981205599
10
-13928.345353187095
20
-4498.0808981205719
0
LWPOLYLINE
5
434
100
AcDbEntity
8
0
100
AcDbPolyline
90
8
70
1
43
0.0
10
-14040.589103187102
20
-4477.273898120553
42
0.41421356237908868
10
-14041.089103187098
20
-4477.7738981205603
10
-14041.0891031871
20
-4490.7738981205603
42
0.41421356237309503
10
-14040.589103187102
20
-4491.2738981205603
10
-14026.989103187099
20
-4491.2738981205584
42
0.41421239080245181
10
-14026.489103187097
20
-4490.7738981205603
10
-14026.489103187096
20
-4477.7738981205603
42
0.41421239080311778
10
-14026.989103187099
20
-4477.2738981205584
0
LWPOLYLINE
5
435
100
AcDbEntity
8
0
100
AcDbPolyline
90
8
70
1
43
0.0
10
-14184.151603187102
20
-4491.2738981205584
42
0.41421239080378375
10
-14183.651603187102
20
-4490.7738981205603
10
-14183.6516031871
20
-4477.7738981205603
42
0.41421239080444971
10
-14184.151603187102
20
-4477.2738981205603
10
-14197.7516031871
20
-4477.273898120553
42
0.41421356237908868
10
-14198.2516031871
20
-4477.7738981205603
10
-14198.2516031871
20
-4490.7738981205603
42
0.41421356237309503
10
-14197.7516031871
20
-4491.2738981205584
0
LWPOLYLINE
5
436
100
AcDbEntity
8
0
100
AcDbPolyline
90
8
70
1
43
0.0
10
-14221.751603187098
20
-4534.9238981205599
42
0.41421239080078687
10
-14222.251603187098
20
-4534.4238981205581
10
-14235.851603187102
20
-4534.4238981205599
42
0.41421356237309503
10
-14236.351603187102
20
-4534.9238981205599
10
-14236.3516031871
20
-4547.9238981205599
42
0.41421356237309503
10
-14235.851603187102
20
-4548.4238981205572
10
-14222.251603187098
20
-4548.423898120559
42
0.41421239080111988
10
-14221.751603187102
20
-4547.9238981205599
0
LWPOLYLINE
5
437
100
AcDbEntity
8
0
100
AcDbPolyline
90
8
70
1
43
0.0
10
-14217.30160318709
20
-4566.973898120561
10
-14217.301603187101
20
-4553.9738981205601
42
-0.41421356237442697
10
-14216.801603187097
20
-4553.4738981205592
10
-14203.201603187101
20
-4553.4738981205528
42
-0.41421239080944439
10
-14202.701603187103
20
-4553.9738981205601
10
-14202.701603187099
20
-4566.973898120561
42
-0.41421239080345074
10
-14203.201603187101
20
-4567.4738981205601
10
-14216.801603187097
20
-4567.473898120551
42
-0.41421356237409396
0
LWPOLYLINE
5
438
100
AcDbEntity
8
0
100
AcDbPolyline
90
8
70
1
43
0.0
10
-14183.6516031871
20
-4577.7863981205601
10
-14183.651603187102
20
-4590.786398120561
42
-0.41421239080345074
10
-14184.151603187102
20
-4591.2863981205574
10
-14197.751603187098
20
-4591.2863981205546
42
-0.41421356236710138
10
-14198.251603187106
20
-4590.786398120561
10
-14198.2516031871
20
-4577.7863981205601
42
-0.41421356237309503
10
-14197.7516031871
20
-4577.286398120561
10
-14184.151603187102
20
-4577.2863981205601
42
-0.41421239080378375
0
LWPOLYLINE
5
439
100
AcDbEntity
8
0
100
AcDbPolyline
90
8
70
1
43
0.0
10
-14116.789103187102
20
-4577.2863981205564
42
0.41421356237309503
10
-14117.289103187106
20
-4577.7863981205601
10
-14117.2891031871
20
-4590.786398120561
42
0.41421356237309503
10
-14116.789103187102
20
-4591.2863981205601
10
-14103.189103187098
20
-4591.2863981205592
42
0.41421239080078687
10
-14102.689103187102
20
-4590.786398120561
10
-14102.689103187102
20
-4577.7863981205601
42
0.41421239080111988
10
-14103.189103187098
20
-4577.286398120561
0
LWPOLYLINE
5
440
100
AcDbEntity
8
0
100
AcDbPolyline
90
8
70
1
43
0.0
10
-14031.564103187102
20
-4590.786398120561
10
-14031.564103187098
20
-4577.7863981205601
42
-0.41421356237908868
10
-14031.0641031871
20
-4577.2863981205528
10
-14017.464103187102
20
-4577.2863981205601
42
-0.41421239080245181
10
-14016.964103187102
20
-4577.7863981205601
10
-14016.964103187102
20
-4590.786398120561
42
-0.4142123908021188
10
-14017.464103187102
20
-4591.2863981205601
10
-14031.0641031871
20
-4591.2863981205628
42
-0.41421356237309503
0
LWPOLYLINE
5
441
100
AcDbEntity
8
0
100
AcDbPolyline
90
8
70
1
43
0.0
10
-13945.839103187098
20
-4590.786398120561
42
0.41421356237309503
10
-13945.3391031871
20
-4591.2863981205592
10
-13931.739103187101
20
-4591.2863981205555
42
0.41421239080345074
10
-13931.239103187101
20
-4590.786398120561
10
-13931.239103187099
20
-4577.7863981205601
42
0.41421239080378375
10
-13931.739103187101
20
-4577.2863981205592
10
-13945.3391031871
20
-4577.2863981205628
42
0.41421356237309503
10
-13945.839103187107
20
-4577.7863981205601
0
LWPOLYLINE
5
442
100
AcDbEntity
8
0
100
AcDbPolyline
90
8
70
1
43
0.0
10
-13893.139103187095
20
-4577.7863981205601
42
0.41421239080245181
10
-13893.639103187099
20
-4577.2863981205555
10
-13907.239103187101
20
-4577.2863981205564
42
0.41421356237309503
10
-13907.739103187103
20
-4577.7863981205601
10
-13907.739103187097
20
-4590.786398120561
42
0.41421356237309503
10
-13907.239103187101
20
-4591.2863981205583
10
-13893.639103187099
20
-4591.2863981205592
42
0.4142123908021188
10
-13893.139103187103
20
-4590.786398120561
0
LWPOLYLINE
5
443
100
AcDbEntity
8
0
100
AcDbPolyline
90
8
70
1
43
0.0
10
-13950.2891031871
20
-4577.7863981205601
42
0.41421239080245181
10
-13950.7891031871
20
-4577.2863981205592
10
-13964.389103187103
20
-4577.286398120561
42
0.41421356237309503
10
-13964.889103187099
20
-4577.7863981205601
10
-13964.889103187104
20
-4590.786398120561
42
0.41421356237309503
10
-13964.389103187103
20
-4591.2863981205619
10
-13950.7891031871
20
-4591.2863981205555
42
0.4142123908021188
10
-13950.289103187104
20
-4590.786398120561
0
LWPOLYLINE
5
444
100
AcDbEntity
8
0
100
AcDbPolyline
90
8
70
1
43
0.0
10
-14050.614103187099
20
-4590.786398120561
10
-14050.614103187097
20
-4577.7863981205601
42
-0.41421356237309503
10
-14050.114103187099
20
-4577.2863981205628
10
-14036.514103187101
20
-4577.2863981205555
42
-0.41421239080378375
10
-14036.014103187095
20
-4577.7863981205601
10
-14036.014103187103
20
-4590.786398120561
42
-0.41421239080345074
10
-14036.514103187101
20
-4591.2863981205555
10
-14050.114103187099
20
-4591.2863981205601
42
-0.41421356237309503
0
LWPOLYLINE
5
445
100
AcDbEntity
8
0
100
AcDbPolyline
90
8
70
1
43
0.0
10
-14122.239103187101
20
-4591.2863981205574
10
-14135.8391031871
20
-4591.2863981205546
42
-0.41421356236710138
10
-14136.339103187103
20
-4590.786398120561
10
-14136.339103187096
20
-4577.7863981205601
42
-0.41421356237309503
10
-14135.8391031871
20
-4577.2863981205628
10
-14122.239103187101
20
-4577.2863981205601
42
-0.41421239080245181
10
-14121.739103187101
20
-4577.7863981205601
10
-14121.739103187103
20
-4590.786398120561
42
-0.4142123908021188
0
LWPOLYLINE
5
446
100
AcDbEntity
8
0
100
AcDbPolyline
90
8
70
1
43
0.0
10
-14216.801603187097
20
-4577.2863981205601
42
0.41421356237442697
10
-14217.301603187099
20
-4577.7863981205601
10
-14217.301603187097
20
-4590.786398120561
42
0.41421356237442697
10
-14216.801603187097
20
-4591.2863981205546
10
-14203.201603187101
20
-4591.2863981205601
42
0.41421239080345074
10
-14202.701603187099
20
-4590.786398120561
10
-14202.701603187103
20
-4577.7863981205601
42
0.4142123908097774
10
-14203.201603187101
20
-4577.2863981205574
0
LWPOLYLINE
5
447
100
AcDbEntity
8
0
100
AcDbPolyline
90
8
70
1
43
0.0
10
-14198.251603187098
20
-4566.973898120561
42
0.41421356237276202
10
-14197.7516031871
20
-4567.4738981205574
10
-14184.151603187102
20
-4567.473898120561
42
0.41421239080345074
10
-14183.6516031871
20
-4566.973898120561
10
-14183.6516031871
20
-4553.9738981205601
42
0.41421239080378375
10
-14184.151603187102
20
-4553.4738981205592
10
-14197.7516031871
20
-4553.4738981205628
42
0.41421356237309503
10
-14198.2516031871
20
-4553.9738981205601
0
LWPOLYLINE
5
448
100
AcDbEntity
8
0
100
AcDbPolyline
90
8
70
1
43
0.0
10
-14216.801603187097
20
-4496.3238981205595
10
-14203.201603187101
20
-4496.3238981205541
42
-0.41421239081011035
10
-14202.701603187104
20
-4496.8238981205604
10
-14202.701603187104
20
-4509.8238981205604
42
-0.41421239080378375
10
-14203.201603187101
20
-4510.3238981205559
10
-14216.801603187097
20
-4510.3238981205559
42
-0.41421356237442697
10
-14217.301603187096
20
-4509.8238981205604
10
-14217.301603187101
20
-4496.8238981205604
42
-0.41421356237442697
0
LWPOLYLINE
5
449
100
AcDbEntity
8
0
100
AcDbPolyline
90
8
70
1
43
0.0
10
-14169.676603187097
20
-4490.7738981205603
10
-14169.676603187099
20
-4477.7738981205603
42
-0.41421356237309503
10
-14169.176603187099
20
-4477.2738981205621
10
-14155.576603187101
20
-4477.2738981205594
42
-0.41421239080444971
10
-14155.076603187099
20
-4477.7738981205603
10
-14155.076603187101
20
-4490.7738981205603
42
-0.41421239080378375
10
-14155.576603187101
20
-4491.2738981205575
10
-14169.176603187099
20
-4491.2738981205575
42
-0.41421356237309503
0
LWPOLYLINE
5
450
100
AcDbEntity
8
0
100
AcDbPolyline
90
8
70
1
43
0.0
10
-13969.832503187095
20
-4477.8238981205614
42
0.41421239080444971
10
-13970.332503187101
20
-4477.3238981205559
10
-13982.932503187101
20
-4477.3238981205595
42
0.41421239080444971
10
-13983.432503187098
20
-4477.8238981205614
10
-13983.432503187105
20
-4490.723898120561
42
0.41421239080345074
10
-13982.932503187101
20
-4491.223898120561
10
-13970.332503187101
20
-4491.2238981205555
42
0.41421239080345074
10
-13969.832503187101
20
-4490.723898120561
0
LWPOLYLINE
5
451
100
AcDbEntity
8
0
100
AcDbPolyline
90
8
70
1
43
0.0
10
-13914.8828531871
20
-4528.8738981205597
10
-13914.8828531871
20
-4515.8738981205606
42
-0.41421356237309503
10
-13914.3828531871
20
-4515.3738981205606
10
-13896.020349187102
20
-4515.3738981205533
42
-0.41421239080378375
10
-13895.520349187093
20
-4515.8738981205606
10
-13895.5203491871
20
-4528.8738981205597
42
-0.41421239080444971
10
-13896.020349187102
20
-4529.3738981205606
10
-13914.3828531871
20
-4529.3738981205588
42
-0.41421356237309503
0
LWPOLYLINE
5
452
100
AcDbEntity
8
0
100
AcDbPolyline
90
8
70
1
43
0.0
10
-13954.864103187101
20
-4534.4238981205654
42
0.41421356237309503
10
-13955.364103187096
20
-4534.9238981205599
10
-13955.364103187097
20
-4547.9238981205599
42
0.41421356237309503
10
-13954.864103187101
20
-4548.423898120559
10
-13941.264103187103
20
-4548.4238981205581
42
0.41421239080378375
10
-13940.764103187103
20
-4547.9238981205599
10
-13940.764103187103
20
-4534.9238981205599
42
0.41421239080944439
10
-13941.264103187103
20
-4534.4238981205563
0
LWPOLYLINE
5
453
100
AcDbEntity
8
0
100
AcDbPolyline
90
8
70
1
43
0.0
10
-13979.364103187099
20
-4548.423898120559
10
-13992.964103187103
20
-4548.4238981205599
42
-0.4142135623717631
10
-13993.4641031871
20
-4547.9238981205599
10
-13993.464103187103
20
-4534.9238981205599
42
-0.4142135623717631
10
-13992.964103187103
20
-4534.423898120559
10
-13979.364103187099
20
-4534.4238981205581
42
-0.4142123908021188
10
-13978.864103187097
20
-4534.9238981205599
10
-13978.864103187099
20
-4547.9238981205599
42
-0.41421239080245181
0
LWPOLYLINE
5
454
100
AcDbEntity
8
0
100
AcDbPolyline
90
8
70
1
43
0.0
10
-14031.0641031871
20
-4534.4238981205526
42
0.41421356237875573
10
-14031.564103187098
20
-4534.9238981205599
10
-14031.564103187098
20
-4547.9238981205599
42
0.41421356237309503
10
-14031.0641031871
20
-4548.423898120559
10
-14017.464103187102
20
-4548.4238981205599
42
0.41421239080245181
10
-14016.964103187102
20
-4547.9238981205599
10
-14016.964103187102
20
-4534.9238981205599
42
0.4142123908021188
10
-14017.464103187102
20
-4534.4238981205608
0
LWPOLYLINE
5
455
100
AcDbEntity
8
0
100
AcDbPolyline
90
8
70
1
43
0.0
10
-14069.664103187104
20
-4547.9238981205599
42
0.41421356237309503
10
-14069.164103187102
20
-4548.4238981205617
10
-14055.5641031871
20
-4548.4238981205554
42
0.41421239080245181
10
-14055.064103187104
20
-4547.9238981205599
10
-14055.064103187098
20
-4534.9238981205599
42
0.4142123908021188
10
-14055.5641031871
20
-4534.4238981205599
10
-14069.164103187102
20
-4534.4238981205526
42
0.41421356237875573
10
-14069.664103187104
20
-4534.9238981205599
0
LWPOLYLINE
5
456
100
AcDbEntity
8
0
100
AcDbPolyline
90
8
70
1
43
0.0
10
-14093.664103187102
20
-4548.4238981205608
10
-14107.264103187101
20
-4548.4238981205572
42
-0.41421356237309503
10
-14107.764103187099
20
-4547.9238981205599
10
-14107.764103187103
20
-4534.9238981205599
42
-0.41421356237309503
10
-14107.264103187101
20
-4534.423898120559
10
-14093.664103187102
20
-4534.4238981205581
42
-0.41421239080345074
10
-14093.164103187099
20
-4534.9238981205599
10
-14093.1641031871
20
-4547.9238981205599
42
-0.41421239080378375
0
LWPOLYLINE
5
457
100
AcDbEntity
8
0
100
AcDbPolyline
90
8
70
1
43
0.0
10
-14131.264103187093
20
-4534.9238981205599
42
0.4142123908021188
10
-14131.764103187099
20
-4534.4238981205544
10
-14145.364103187101
20
-4534.4238981205599
42
0.41421356237309503
10
-14145.864103187097
20
-4534.9238981205599
10
-14145.864103187105
20
-4547.9238981205599
42
0.41421356236743434
10
-14145.364103187101
20
-4548.4238981205581
10
-14131.764103187099
20
-4548.4238981205581
42
0.41421239080245181
10
-14131.264103187103
20
-4547.9238981205599
0
LWPOLYLINE
5
458
100
AcDbEntity
8
0
100
AcDbPolyline
90
8
70
1
43
0.0
10
-14166.470353187098
20
-4509.7988981205599
10
-14166.470353187098
20
-4498.0808981205664
10
-14163.470353187096
20
-4496.3488981205664
10
-14137.470353187098
20
-4496.3488981205564
10
-14134.470353187098
20
-4498.0808981205564
10
-14134.470353187102
20
-4509.7988981205599
42
-0.41421239080245181
10
-14134.9703531871
20
-4510.2988981205581
10
-14165.970353187102
20
-4510.2988981205572
42
-0.41421356237309503
0
LWPOLYLINE
5
459
100
AcDbEntity
8
0
100
AcDbPolyline
90
8
70
1
43
0.0
10
-14103.001603187102
20
-4509.8238981205604
42
0.41421356237309503
10
-14102.501603187102
20
-4510.3238981205614
10
-14088.901603187103
20
-4510.3238981205559
42
0.41421239080378375
10
-14088.401603187103
20
-4509.8238981205604
10
-14088.401603187103
20
-4496.8238981205604
42
0.4142123908041167
10
-14088.901603187103
20
-4496.3238981205595
10
-14102.501603187102
20
-4496.3238981205513
42
0.41421356237875573
10
-14103.001603187102
20
-4496.8238981205604
0
LWPOLYLINE
5
460
100
AcDbEntity
8
0
100
AcDbPolyline
90
8
70
1
43
0.0
10
-14050.301603187099
20
-4496.8238981205604
10
-14050.301603187105
20
-4509.8238981205604
42
-0.41421239080378375
10
-14050.801603187101
20
-4510.3238981205559
10
-14064.4016031871
20
-4510.3238981205577
42
-0.41421356237309503
10
-14064.901603187098
20
-4509.8238981205604
10
-14064.901603187098
20
-4496.8238981205604
42
-0.41421356237309503
10
-14064.4016031871
20
-4496.3238981205632
10
-14050.801603187101
20
-4496.3238981205595
42
-0.4142123908041167
0
LWPOLYLINE
5
461
100
AcDbEntity
8
0
100
AcDbPolyline
90
8
70
1
43
0.0
10
-14026.801603187105
20
-4509.8238981205604
42
0.41421356236743434
10
-14026.301603187101
20
-4510.3238981205541
10
-14012.701603187099
20
-4510.3238981205586
42
0.41421239080245181
10
-14012.201603187103
20
-4509.8238981205604
10
-14012.201603187099
20
-4496.8238981205604
42
0.41421239080278477
10
-14012.701603187099
20
-4496.3238981205604
10
-14026.301603187101
20
-4496.3238981205614
42
0.41421356237309503
10
-14026.801603187097
20
-4496.8238981205604
0
LWPOLYLINE
5
462
100
AcDbEntity
8
0
100
AcDbPolyline
90
8
70
1
43
0.0
10
-13974.601603187102
20
-4510.3238981205595
10
-13988.201603187101
20
-4510.3238981205623
42
-0.41421356237309503
10
-13988.701603187103
20
-4509.8238981205604
10
-13988.701603187095
20
-4496.8238981205604
42
-0.41421356237875573
10
-13988.201603187101
20
-4496.3238981205559
10
-13974.601603187102
20
-4496.3238981205577
42
-0.4142123908041167
10
-13974.101603187099
20
-4496.8238981205604
10
-13974.1016031871
20
-4509.8238981205604
42
-0.41421239080378375
0
LWPOLYLINE
5
463
100
AcDbEntity
8
0
100
AcDbPolyline
90
8
70
1
43
0.0
10
-13936.5016031871
20
-4510.3238981205614
10
-13950.101603187102
20
-4510.3238981205559
42
-0.41421356237309503
10
-13950.601603187097
20
-4509.8238981205604
10
-13950.6016031871
20
-4496.8238981205604
42
-0.41421356237309503
10
-13950.101603187102
20
-4496.3238981205595
10
-13936.5016031871
20
-4496.3238981205595
42
-0.41421239080278477
10
-13936.001603187102
20
-4496.8238981205604
10
-13936.001603187102
20
-4509.8238981205604
42
-0.41421239080245181
0
LWPOLYLINE
5
464
100
AcDbEntity
8
0
100
AcDbPolyline
90
8
70
1
43
0.0
10
-13955.051603187101
20
-4496.8238981205604
10
-13955.051603187101
20
-4509.8238981205604
42
-0.41421239080111988
10
-13955.551603187097
20
-4510.3238981205595
10
-13969.151603187102
20
-4510.3238981205577
42
-0.41421356237309503
10
-13969.6516031871
20
-4509.8238981205604
10
-13969.6516031871
20
-4496.8238981205604
42
-0.41421356237875573
10
-13969.151603187102
20
-4496.3238981205541
10
-13955.551603187097
20
-4496.3238981205595
42
-0.41421239080145283
0
LWPOLYLINE
5
465
100
AcDbEntity
8
0
100
AcDbPolyline
90
8
70
1
43
0.0
10
-13993.6516031871
20
-4510.3238981205614
10
-14007.251603187098
20
-4510.3238981205559
42
-0.41421356237442697
10
-14007.751603187096
20
-4509.8238981205604
10
-14007.751603187098
20
-4496.8238981205604
42
-0.41421356238008761
10
-14007.251603187098
20
-4496.3238981205532
10
-13993.6516031871
20
-4496.3238981205577
42
-0.41421239080278477
10
-13993.151603187098
20
-4496.8238981205604
10
-13993.151603187098
20
-4509.8238981205604
42
-0.41421239080245181
0
LWPOLYLINE
5
466
100
AcDbEntity
8
0
100
AcDbPolyline
90
8
70
1
43
0.0
10
-14031.251603187102
20
-4496.8238981205604
10
-14031.251603187106
20
-4509.8238981205604
42
-0.41421239080245181
10
-14031.751603187102
20
-4510.3238981205559
10
-14045.3516031871
20
-4510.3238981205577
42
-0.41421356237309503
10
-14045.851603187097
20
-4509.8238981205604
10
-14045.851603187097
20
-4496.8238981205604
42
-0.41421356237875573
10
-14045.3516031871
20
-4496.3238981205532
10
-14031.751603187102
20
-4496.3238981205595
42
-0.41421239080278477
0
LWPOLYLINE
5
467
100
AcDbEntity
8
0
100
AcDbPolyline
90
8
70
1
43
0.0
10
-14083.951603187099
20
-4509.8238981205604
10
-14083.951603187099
20
-4496.8238981205604
42
-0.41421356237875573
10
-14083.451603187103
20
-4496.3238981205532
10
-14069.8516031871
20
-4496.3238981205577
42
-0.41421239080278477
10
-14069.351603187099
20
-4496.8238981205604
10
-14069.351603187106
20
-4509.8238981205604
42
-0.41421239080245181
10
-14069.8516031871
20
-4510.3238981205559
10
-14083.451603187103
20
-4510.3238981205577
42
-0.41421356237309503
0
LWPOLYLINE
5
468
100
AcDbEntity
8
0
100
AcDbPolyline
90
8
70
1
43
0.0
10
-14116.976603187102
20
-4515.8738981205606
10
-14116.976603187106
20
-4528.8738981205597
42
-0.41421239080444971
10
-14117.476603187104
20
-4529.3738981205561
10
-14131.076603187103
20
-4529.373898120557
42
-0.41421356237309503
10
-14131.576603187099
20
-4528.8738981205597
10
-14131.576603187103
20
-4515.8738981205606
42
-0.41421356237309503
10
-14131.076603187103
20
-4515.3738981205606
10
-14117.476603187104
20
-4515.3738981205597
42
-0.41421239080378375
0
LWPOLYLINE
5
469
100
AcDbEntity
8
0
100
AcDbPolyline
90
8
70
1
43
0.0
10
-14155.576603187101
20
-4548.4238981205572
10
-14169.176603187099
20
-4548.4238981205572
42
-0.41421356237309503
10
-14169.676603187097
20
-4547.9238981205599
10
-14169.676603187097
20
-4534.9238981205599
42
-0.41421356237309503
10
-14169.176603187099
20
-4534.4238981205617
10
-14155.576603187101
20
-4534.4238981205599
42
-0.41421239080345074
10
-14155.076603187099
20
-4534.9238981205599
10
-14155.076603187101
20
-4547.9238981205599
42
-0.41421239080378375
0
LWPOLYLINE
5
470
100
AcDbEntity
8
0
100
AcDbPolyline
90
8
70
1
43
0.0
10
-14112.7141031871
20
-4548.423898120559
10
-14126.314103187098
20
-4548.4238981205572
42
-0.41421356237442697
10
-14126.814103187098
20
-4547.9238981205599
10
-14126.814103187098
20
-4534.9238981205599
42
-0.41421356238008761
10
-14126.314103187098
20
-4534.4238981205526
10
-14112.7141031871
20
-4534.4238981205581
42
-0.4142123908021188
10
-14112.214103187098
20
-4534.9238981205599
10
-14112.2141031871
20
-4547.9238981205599
42
-0.41421239080245181
0
LWPOLYLINE
5
471
100
AcDbEntity
8
0
100
AcDbPolyline
90
8
70
1
43
0.0
10
-14088.7141031871
20
-4547.9238981205599
42
0.41421356237309503
10
-14088.214103187102
20
-4548.4238981205572
10
-14074.614103187097
20
-4548.4238981205554
42
0.41421239080111988
10
-14074.114103187103
20
-4547.9238981205599
10
-14074.114103187101
20
-4534.9238981205599
42
0.41421239080078687
10
-14074.614103187097
20
-4534.4238981205599
10
-14088.214103187102
20
-4534.4238981205535
42
0.41421356237875573
10
-14088.714103187102
20
-4534.9238981205599
0
LWPOLYLINE
5
472
100
AcDbEntity
8
0
100
AcDbPolyline
90
8
70
1
43
0.0
10
-14036.514103187101
20
-4548.423898120559
10
-14050.114103187099
20
-4548.4238981205572
42
-0.41421356237309503
10
-14050.614103187097
20
-4547.9238981205599
10
-14050.614103187097
20
-4534.9238981205599
42
-0.41421356237309503
10
-14050.114103187099
20
-4534.4238981205626
10
-14036.514103187101
20
-4534.4238981205526
42
-0.41421239080944439
10
-14036.014103187101
20
-4534.9238981205599
10
-14036.014103187099
20
-4547.9238981205599
42
-0.41421239080378375
0
LWPOLYLINE
5
473
100
AcDbEntity
8
0
100
AcDbPolyline
90
8
70
1
43
0.0
10
-14012.514103187099
20
-4547.9238981205599
42
0.41421356237309503
10
-14012.014103187103
20
-4548.4238981205572
10
-13998.414103187104
20
-4548.423898120559
42
0.41421239080378375
10
-13997.914103187102
20
-4547.9238981205599
10
-13997.9141031871
20
-4534.9238981205599
42
0.41421239080345074
10
-13998.414103187104
20
-4534.4238981205599
10
-14012.014103187103
20
-4534.4238981205563
42
0.41421356237309503
10
-14012.514103187104
20
-4534.9238981205599
0
LWPOLYLINE
5
474
100
AcDbEntity
8
0
100
AcDbPolyline
90
8
70
1
43
0.0
10
-13973.9141031871
20
-4534.4238981205599
42
0.41421356237309503
10
-13974.4141031871
20
-4534.9238981205599
10
-13974.414103187104
20
-4547.9238981205599
42
0.41421356236743434
10
-13973.9141031871
20
-4548.4238981205581
10
-13960.314103187102
20
-4548.4238981205599
42
0.41421239080378375
10
-13959.8141031871
20
-4547.9238981205599
10
-13959.814103187091
20
-4534.9238981205599
42
0.41421239079779015
10
-13960.314103187102
20
-4534.4238981205608
0
LWPOLYLINE
5
475
100
AcDbEntity
8
0
100
AcDbPolyline
90
8
70
1
43
0.0
10
-13945.3391031871
20
-4553.4738981205619
10
-13931.739103187101
20
-4553.4738981205601
42
-0.41421239080378375
10
-13931.239103187099
20
-4553.9738981205601
10
-13931.239103187105
20
-4566.973898120561
42
-0.41421239080345074
10
-13931.739103187101
20
-4567.4738981205555
10
-13945.3391031871
20
-4567.4738981205555
42
-0.41421356237276202
10
-13945.839103187096
20
-4566.973898120561
10
-13945.8391031871
20
-4553.9738981205601
42
-0.41421356237309503
0
LWPOLYLINE
5
476
100
AcDbEntity
8
0
100
AcDbPolyline
90
8
70
1
43
0.0
10
-13898.401603187102
20
-4491.2738981205603
42
0.41421239080245181
10
-13897.901603187102
20
-4490.7738981205603
10
-13897.901603187102
20
-4477.7738981205603
42
0.41421239080311778
10
-13898.401603187102
20
-4477.2738981205594
10
-13912.0016031871
20
-4477.273898120553
42
0.41421356237908868
10
-13912.501603187095
20
-4477.7738981205603
10
-13912.501603187098
20
-4490.7738981205603
42
0.41421356237309503
10
-13912.0016031871
20
-4491.2738981205584
0
LWPOLYLINE
5
477
100
AcDbEntity
8
0
100
AcDbPolyline
90
8
70
1
43
0.0
10
-14084.139103187103
20
-4477.8238981205614
42
0.4142135623794217
10
-14084.639103187101
20
-4477.3238981205532
10
-14097.239103187101
20
-4477.3238981205614
42
0.41421356237342799
10
-14097.739103187097
20
-4477.8238981205614
10
-14097.739103187101
20
-4490.723898120561
42
0.41421356237276202
10
-14097.239103187101
20
-4491.2238981205601
10
-14084.639103187101
20
-4491.2238981205574
42
0.41421356237276202
10
-14084.139103187101
20
-4490.723898120561
0
LWPOLYLINE
5
478
100
AcDbEntity
8
0
100
AcDbPolyline
90
8
70
1
43
0.0
10
-14222.251603187098
20
-4491.2738981205594
10
-14235.851603187102
20
-4491.2738981205575
42
-0.41421356237309503
10
-14236.3516031871
20
-4490.7738981205603
10
-14236.351603187106
20
-4477.7738981205603
42
-0.41421356237309503
10
-14235.851603187102
20
-4477.2738981205566
10
-14222.251603187098
20
-4477.2738981205594
42
-0.41421239080178585
10
-14221.751603187102
20
-4477.7738981205603
10
-14221.751603187102
20
-4490.7738981205603
42
-0.41421239080111988
0
LWPOLYLINE
5
479
100
AcDbEntity
8
0
100
AcDbPolyline
90
8
70
1
43
0.0
10
-14202.701603187103
20
-4534.9238981205599
42
0.41421239080944439
10
-14203.201603187101
20
-4534.4238981205526
10
-14216.801603187097
20
-4534.423898120559
42
0.41421356237442697
10
-14217.301603187099
20
-4534.9238981205599
10
-14217.301603187097
20
-4547.9238981205599
42
0.41421356237442697
10
-14216.801603187097
20
-4548.4238981205563
10
-14203.201603187101
20
-4548.4238981205599
42
0.41421239080378375
10
-14202.701603187099
20
-4547.9238981205599
0
LWPOLYLINE
5
480
100
AcDbEntity
8
0
100
AcDbPolyline
90
8
70
1
43
0.0
10
-14236.351603187102
20
-4566.973898120561
42
0.41421356237276202
10
-14235.851603187102
20
-4567.4738981205601
10
-14222.251603187098
20
-4567.4738981205583
42
0.41421239080078687
10
-14221.751603187104
20
-4566.973898120561
10
-14221.751603187096
20
-4553.9738981205601
42
0.41421239080111988
10
-14222.251603187098
20
-4553.4738981205583
10
-14235.851603187102
20
-4553.473898120561
42
0.41421356237309503
10
-14236.351603187102
20
-4553.9738981205601
0
LWPOLYLINE
5
481
100
AcDbEntity
8
0
100
AcDbPolyline
90
8
70
1
43
0.0
10
-14159.8391031871
20
-4577.7863981205601
42
0.41421239080245181
10
-14160.3391031871
20
-4577.2863981205601
10
-14173.939103187102
20
-4577.286398120561
42
0.41421356237309503
10
-14174.439103187098
20
-4577.7863981205601
10
-14174.439103187104
20
-4590.786398120561
42
0.41421356237309503
10
-14173.939103187102
20
-4591.2863981205601
10
-14160.3391031871
20
-4591.2863981205628
42
0.4142123908021188
10
-14159.839103187103
20
-4590.786398120561
0
LWPOLYLINE
5
482
100
AcDbEntity
8
0
100
AcDbPolyline
90
8
70
1
43
0.0
10
-14088.7141031871
20
-4590.786398120561
42
0.41421356237309503
10
-14088.214103187102
20
-4591.2863981205592
10
-14074.614103187097
20
-4591.2863981205555
42
0.41421239080078687
10
-14074.114103187103
20
-4590.786398120561
10
-14074.114103187105
20
-4577.7863981205601
42
0.41421239080711353
10
-14074.614103187097
20
-4577.2863981205574
10
-14088.214103187102
20
-4577.2863981205628
42
0.41421356237309503
10
-14088.714103187105
20
-4577.7863981205601
0
LWPOLYLINE
5
483
100
AcDbEntity
8
0
100
AcDbPolyline
90
8
70
1
43
0.0
10
-14002.989103187101
20
-4590.786398120561
10
-14002.989103187099
20
-4577.7863981205601
42
-0.41421356237309503
10
-14002.489103187099
20
-4577.286398120561
10
-13988.889103187103
20
-4577.2863981205583
42
-0.41421239080378375
10
-13988.389103187099
20
-4577.7863981205601
10
-13988.389103187106
20
-4590.786398120561
42
-0.41421239080345074
10
-13988.889103187103
20
-4591.2863981205555
10
-14002.489103187099
20
-4591.2863981205628
42
-0.41421356237309503
0
LWPOLYLINE
5
484
100
AcDbEntity
8
0
100
AcDbPolyline
90
8
70
1
43
0.0
10
-13926.7891031871
20
-4566.973898120561
10
-13926.789103187095
20
-4553.9738981205601
42
-0.41421356237309503
10
-13926.2891031871
20
-4553.4738981205655
10
-13912.689103187102
20
-4553.4738981205546
42
-0.41421239080811245
10
-13912.189103187106
20
-4553.9738981205601
10
-13912.189103187106
20
-4566.973898120561
42
-0.4142123908021188
10
-13912.689103187102
20
-4567.4738981205555
10
-13926.2891031871
20
-4567.4738981205601
42
-0.41421356237276202
0
LWPOLYLINE
5
485
100
AcDbEntity
8
0
100
AcDbPolyline
90
8
70
1
43
0.0
10
-13907.739103187097
20
-4566.973898120561
10
-13907.739103187097
20
-4553.9738981205601
42
-0.41421356237309503
10
-13907.239103187101
20
-4553.4738981205628
10
-13893.639103187099
20
-4553.4738981205555
42
-0.41421239080245181
10
-13893.139103187095
20
-4553.9738981205601
10
-13893.139103187099
20
-4566.973898120561
42
-0.4142123908021188
10
-13893.639103187099
20
-4567.4738981205592
10
-13907.239103187101
20
-4567.4738981205574
42
-0.41421356237276202
0
LWPOLYLINE
5
486
100
AcDbEntity
8
0
100
AcDbPolyline
90
8
70
1
43
0.0
10
-13983.439103187102
20
-4577.286398120561
10
-13969.839103187103
20
-4577.2863981205601
42
-0.41421239080378375
10
-13969.339103187102
20
-4577.7863981205601
10
-13969.339103187105
20
-4590.786398120561
42
-0.41421239080345074
10
-13969.839103187103
20
-4591.2863981205555
10
-13983.439103187102
20
-4591.2863981205546
42
-0.41421356236710138
10
-13983.939103187106
20
-4590.786398120561
10
-13983.939103187102
20
-4577.7863981205601
42
-0.41421356237309503
0
LWPOLYLINE
5
487
100
AcDbEntity
8
0
100
AcDbPolyline
90
8
70
1
43
0.0
10
-14069.664103187104
20
-4590.786398120561
10
-14069.6641031871
20
-4577.7863981205601
42
-0.41421356237309503
10
-14069.164103187102
20
-4577.286398120561
10
-14055.5641031871
20
-4577.2863981205601
42
-0.41421239080245181
10
-14055.064103187102
20
-4577.7863981205601
10
-14055.064103187106
20
-4590.786398120561
42
-0.4142123908021188
10
-14055.5641031871
20
-4591.2863981205555
10
-14069.164103187102
20
-4591.2863981205628
42
-0.41421356237309503
0
LWPOLYLINE
5
488
100
AcDbEntity
8
0
100
AcDbPolyline
90
8
70
1
43
0.0
10
-14155.389103187097
20
-4590.786398120561
10
-14155.389103187099
20
-4577.7863981205601
42
-0.41421356237442697
10
-14154.889103187099
20
-4577.2863981205628
10
-14141.2891031871
20
-4577.2863981205583
42
-0.41421239080245181
10
-14140.789103187099
20
-4577.7863981205601
10
-14140.789103187099
20
-4590.786398120561
42
-0.41421239079645816
10
-14141.2891031871
20
-4591.2863981205537
10
-14154.889103187099
20
-4591.2863981205555
42
-0.41421356237442697
0
LWPOLYLINE
5
489
100
AcDbEntity
8
0
100
AcDbPolyline
90
8
70
1
43
0.0
10
-14221.751603187102
20
-4577.7863981205601
10
-14221.751603187104
20
-4590.786398120561
42
-0.41421239080078687
10
-14222.251603187098
20
-4591.2863981205574
10
-14235.851603187102
20
-4591.2863981205546
42
-0.41421356236710138
10
-14236.351603187106
20
-4590.786398120561
10
-14236.351603187102
20
-4577.7863981205601
42
-0.41421356237309503
10
-14235.851603187102
20
-4577.286398120561
10
-14222.251603187098
20
-4577.2863981205601
42
-0.41421239080111988
0
LWPOLYLINE
5
490
100
AcDbEntity
8
0
100
AcDbPolyline
90
8
70
1
43
0.0
10
-14198.251603187106
20
-4547.9238981205599
42
0.41421356236743434
10
-14197.7516031871
20
-4548.4238981205544
10
-14184.151603187102
20
-4548.4238981205581
42
0.41421239080378375
10
-14183.6516031871
20
-4547.9238981205599
10
-14183.651603187098
20
-4534.9238981205599
42
0.41421239080345074
10
-14184.151603187102
20
-4534.4238981205599
10
-14197.7516031871
20
-4534.4238981205599
42
0.41421356237309503
10
-14198.2516031871
20
-4534.9238981205599
0
LWPOLYLINE
5
491
100
AcDbEntity
8
0
100
AcDbPolyline
90
8
70
1
43
0.0
10
-14202.701603187104
20
-4477.7738981205603
42
0.41421239080444971
10
-14203.201603187101
20
-4477.2738981205639
10
-14216.801603187097
20
-4477.2738981205603
42
0.41421356237442697
10
-14217.301603187099
20
-4477.7738981205603
10
-14217.301603187099
20
-4490.7738981205603
42
0.41421356237442697
10
-14216.801603187097
20
-4491.2738981205575
10
-14203.201603187101
20
-4491.2738981205603
42
0.41421239080378375
10
-14202.701603187099
20
-4490.7738981205603
0
LWPOLYLINE
5
492
100
AcDbEntity
8
0
100
AcDbPolyline
90
8
70
1
43
0.0
10
-14107.451603187101
20
-4477.7738981205603
10
-14107.451603187101
20
-4490.7738981205603
42
-0.41421239080378375
10
-14107.951603187103
20
-4491.2738981205603
10
-14121.551603187099
20
-4491.2738981205575
42
-0.41421356237309503
10
-14122.051603187097
20
-4490.7738981205603
10
-14122.051603187103
20
-4477.7738981205603
42
-0.41421356237309503
10
-14121.551603187099
20
-4477.2738981205575
10
-14107.951603187103
20
-4477.2738981205594
42
-0.41421239080444971
0
LWPOLYLINE
5
493
100
AcDbEntity
8
0
100
AcDbPolyline
90
8
70
1
43
0.0
10
-13959.6266031871
20
-4477.2738981205584
10
-13946.026603187102
20
-4477.2738981205594
42
-0.41421239080444971
10
-13945.5266031871
20
-4477.7738981205603
10
-13945.526603187107
20
-4490.7738981205603
42
-0.41421239080378375
10
-13946.026603187102
20
-4491.2738981205539
10
-13959.6266031871
20
-4491.2738981205603
42
-0.41421356237309503
10
-13960.1266031871
20
-4490.7738981205603
10
-13960.126603187091
20
-4477.7738981205603
42
-0.41421356237908868
0
LWPOLYLINE
5
494
100
AcDbEntity
8
0
100
AcDbPolyline
90
8
70
1
43
0.0
10
-13912.501603187102
20
-4547.9238981205599
10
-13912.501603187102
20
-4534.9238981205599
42
-0.41421239080345074
10
-13912.0016031871
20
-4534.4238981205599
10
-13898.401603187102
20
-4534.4238981205526
42
-0.41421356237875573
10
-13897.901603187103
20
-4534.9238981205599
10
-13897.901603187096
20
-4547.9238981205599
42
-0.41421356236743434
10
-13898.401603187102
20
-4548.4238981205544
10
-13912.0016031871
20
-4548.4238981205599
42
-0.41421239080378375
0
LWPOLYLINE
5
495
100
AcDbEntity
8
0
100
AcDbPolyline
90
8
70
1
43
0.0
10
-13964.889103187099
20
-4566.973898120561
10
-13964.889103187103
20
-4553.9738981205601
42
-0.41421356237309503
10
-13964.389103187103
20
-4553.473898120561
10
-13950.7891031871
20
-4553.4738981205574
42
-0.41421239080245181
10
-13950.289103187099
20
-4553.9738981205601
10
-13950.289103187106
20
-4566.973898120561
42
-0.4142123908021188
10
-13950.7891031871
20
-4567.4738981205555
10
-13964.389103187103
20
-4567.4738981205574
42
-0.41421356237276202
0
LWPOLYLINE
5
496
100
AcDbEntity
8
0
100
AcDbPolyline
90
8
70
1
43
0.0
10
-14002.989103187101
20
-4566.973898120561
10
-14002.989103187097
20
-4553.9738981205601
42
-0.41421356237309503
10
-14002.489103187099
20
-4553.4738981205628
10
-13988.889103187103
20
-4553.4738981205601
42
-0.41421239080378375
10
-13988.389103187101
20
-4553.9738981205601
10
-13988.389103187106
20
-4566.973898120561
42
-0.41421239080345074
10
-13988.889103187103
20
-4567.4738981205555
10
-14002.489103187099
20
-4567.4738981205519
42
-0.41421356236676837
0
LWPOLYLINE
5
497
100
AcDbEntity
8
0
100
AcDbPolyline
90
8
70
1
43
0.0
10
-14026.489103187097
20
-4553.9738981205601
10
-14026.489103187103
20
-4566.973898120561
42
-0.4142123908021188
10
-14026.989103187099
20
-4567.4738981205583
10
-14040.589103187102
20
-4567.4738981205601
42
-0.41421356237276202
10
-14041.0891031871
20
-4566.973898120561
10
-14041.0891031871
20
-4553.9738981205601
42
-0.41421356237309503
10
-14040.589103187102
20
-4553.473898120561
10
-14026.989103187099
20
-4553.4738981205574
42
-0.41421239080245181
0
LWPOLYLINE
5
498
100
AcDbEntity
8
0
100
AcDbPolyline
90
8
70
1
43
0.0
10
-14078.6891031871
20
-4553.4738981205601
10
-14065.089103187102
20
-4553.4738981205601
42
-0.41421239080378375
10
-14064.5891031871
20
-4553.9738981205601
10
-14064.589103187102
20
-4566.973898120561
42
-0.41421239080345074
10
-14065.089103187102
20
-4567.4738981205583
10
-14078.6891031871
20
-4567.4738981205601
42
-0.41421356237276202
10
-14079.1891031871
20
-4566.973898120561
10
-14079.1891031871
20
-4553.9738981205601
42
-0.41421356237309503
0
LWPOLYLINE
5
499
100
AcDbEntity
8
0
100
AcDbPolyline
90
8
70
1
43
0.0
10
-14103.189103187098
20
-4567.4738981205592
42
0.41421239080078687
10
-14102.689103187102
20
-4566.973898120561
10
-14102.689103187102
20
-4553.9738981205601
42
0.41421239080111988
10
-14103.189103187098
20
-4553.4738981205601
10
-14116.789103187102
20
-4553.4738981205628
42
0.41421356237309503
10
-14117.289103187102
20
-4553.9738981205601
10
-14117.289103187102
20
-4566.973898120561
42
0.41421356237276202
10
-14116.789103187102
20
-4567.473898120561
0
LWPOLYLINE
5
500
100
AcDbEntity
8
0
100
AcDbPolyline
90
8
70
1
43
0.0
10
-14173.639103187104
20
-4555.230898120556
10
-14170.639103187104
20
-4553.498898120557
10
-14144.639103187099
20
-4553.4988981205524
10
-14141.639103187097
20
-4555.2308981205515
10
-14141.639103187101
20
-4566.9488981205614
42
-0.41421239080345074
10
-14142.139103187101
20
-4567.4488981205577
10
-14173.139103187099
20
-4567.4488981205523
42
-0.41421356236710138
10
-14173.639103187104
20
-4566.9488981205614
0
LWPOLYLINE
5
501
100
AcDbEntity
8
0
100
AcDbPolyline
90
8
70
1
43
0.0
10
-14107.451603187101
20
-4496.8238981205604
10
-14107.451603187101
20
-4509.8238981205604
42
-0.41421239080378375
10
-14107.951603187103
20
-4510.3238981205604
10
-14121.551603187099
20
-4510.3238981205577
42
-0.41421356237309503
10
-14122.051603187097
20
-4509.8238981205604
10
-14122.051603187099
20
-4496.8238981205604
42
-0.41421356237875573
10
-14121.551603187099
20
-4496.3238981205523
10
-14107.951603187103
20
-4496.3238981205595
42
-0.4142123908041167
0
LWPOLYLINE
5
502
100
AcDbEntity
8
0
100
AcDbPolyline
90
8
70
1
43
0.0
10
-14092.9766031871
20
-4515.3738981205606
10
-14079.376603187102
20
-4515.3738981205579
42
-0.41421239080378375
10
-14078.876603187098
20
-4515.8738981205606
10
-14078.8766031871
20
-4528.8738981205597
42
-0.41421239080444971
10
-14079.376603187102
20
-4529.3738981205606
10
-14092.9766031871
20
-4529.3738981205588
42
-0.41421356237309503
10
-14093.4766031871
20
-4528.8738981205597
10
-14093.4766031871
20
-4515.8738981205606
42
-0.41421356237309503
0
LWPOLYLINE
5
503
100
AcDbEntity
8
0
100
AcDbPolyline
90
8
70
1
43
0.0
10
-14040.776603187096
20
-4515.8738981205606
42
0.41421239080245181
10
-14041.2766031871
20
-4515.3738981205552
10
-14054.876603187102
20
-4515.3738981205552
42
0.41421356237908868
10
-14055.376603187098
20
-4515.8738981205606
10
-14055.376603187102
20
-4528.8738981205597
42
0.41421356237309503
10
-14054.876603187102
20
-4529.3738981205588
10
-14041.2766031871
20
-4529.3738981205588
42
0.41421239080311778
10
-14040.776603187103
20
-4528.8738981205597
0
LWPOLYLINE
5
504
100
AcDbEntity
8
0
100
AcDbPolyline
90
8
70
1
43
0.0
10
-14016.7766031871
20
-4515.3738981205524
42
0.41421356237908868
10
-14017.276603187096
20
-4515.8738981205606
10
-14017.276603187102
20
-4528.8738981205597
42
0.41421356236743434
10
-14016.7766031871
20
-4529.373898120557
10
-14003.176603187101
20
-4529.3738981205543
42
0.41421239080311778
10
-14002.676603187103
20
-4528.8738981205597
10
-14002.676603187101
20
-4515.8738981205606
42
0.41421239080245181
10
-14003.176603187101
20
-4515.3738981205606
0
LWPOLYLINE
5
505
100
AcDbEntity
8
0
100
AcDbPolyline
90
8
70
1
43
0.0
10
-13965.076603187101
20
-4529.3738981205579
42
0.41421239080444971
10
-13964.576603187103
20
-4528.8738981205597
10
-13964.576603187103
20
-4515.8738981205606
42
0.4142123908097774
10
-13965.076603187101
20
-4515.3738981205579
10
-13978.676603187097
20
-4515.3738981205588
42
0.41421356237442697
10
-13979.176603187099
20
-4515.8738981205606
10
-13979.176603187099
20
-4528.8738981205597
42
0.41421356237442697
10
-13978.676603187097
20
-4529.3738981205588
0
LWPOLYLINE
5
506
100
AcDbEntity
8
0
100
AcDbPolyline
90
8
70
1
43
0.0
10
-13940.576603187101
20
-4515.3738981205615
42
0.41421356237309503
10
-13941.076603187101
20
-4515.8738981205606
10
-13941.076603187099
20
-4528.8738981205597
42
0.41421356237309503
10
-13940.576603187101
20
-4529.373898120557
10
-13926.976603187102
20
-4529.3738981205552
42
0.41421239080311778
10
-13926.476603187104
20
-4528.8738981205597
10
-13926.476603187102
20
-4515.8738981205606
42
0.41421239080245181
10
-13926.976603187102
20
-4515.3738981205597
0
ENDSEC
0
SECTION
2
OBJECTS
0
DICTIONARY
5
C
100
AcDbDictionary
3
ACAD_GROUP
350
D
3
ACAD_MLINESTYLE
350
17
0
DICTIONARY
5
D
100
AcDbDictionary
0
DICTIONARY
5
1A
330
C
100
AcDbDictionary
0
DICTIONARY
5
17
100
AcDbDictionary
0
ENDSEC
0
EOF
